<?xml version="1.0" encoding="utf-8"?>
<!-- Generator: Adobe Illustrator 23.0.6, SVG Export Plug-In . SVG Version: 6.00 Build 0)  -->
<svg version="1.1" id="Layer_1" xmlns="http://www.w3.org/2000/svg" xmlns:xlink="http://www.w3.org/1999/xlink" x="0px" y="0px"
	 viewBox="0 0 203.56 203.56" style="enable-background:new 0 0 203.56 203.56;" xml:space="preserve">
<style type="text/css">
	.st0{fill:url(#SVGID_1_);}
	.st1{fill:url(#SVGID_2_);}
	.st2{fill:url(#SVGID_3_);}
	.st3{fill:#FFFFFF;}
	.st4{fill:#211E1F;}
	.st5{fill:url(#SVGID_4_);}
	.st6{fill:url(#SVGID_5_);}
	.st7{fill:url(#SVGID_6_);}
	.st8{fill:url(#SVGID_7_);}
	.st9{fill:url(#SVGID_8_);}
	.st10{fill:url(#SVGID_9_);}
	.st11{fill:url(#SVGID_10_);}
	.st12{fill:url(#SVGID_11_);}
	.st13{fill:url(#SVGID_12_);}
	.st14{fill:url(#SVGID_13_);}
	.st15{fill:url(#SVGID_14_);}
	.st16{fill:url(#SVGID_15_);}
	.st17{fill:url(#SVGID_16_);}
	.st18{fill:url(#SVGID_17_);}
	.st19{fill:url(#SVGID_18_);}
	.st20{fill:url(#SVGID_19_);}
	.st21{fill:url(#SVGID_20_);}
	.st22{fill:url(#SVGID_21_);}
	.st23{fill:#E53935;}
	.st24{enable-background:new    ;}
	.st25{fill:#CC985A;}
	.st26{fill:#A07B4A;}
	.st27{fill:#D6A563;}
	.st28{clip-path:url(#SVGID_23_);}
	.st29{fill:#784A18;}
	.st30{fill:#683E14;}
	.st31{fill:#D89F61;}
	.st32{fill:#F0B676;}
	.st33{fill:#DFBDA2;}
	.st34{fill:#E4B089;}
	.st35{fill:#C68F67;}
	.st36{fill:#623533;}
	.st37{fill:url(#XMLID_14_);}
	.st38{opacity:0.22;fill:#623533;}
	.st39{fill:#E1C0A7;}
	.st40{fill:url(#XMLID_16_);}
	.st41{fill:url(#XMLID_17_);}
	.st42{fill:url(#XMLID_18_);}
	.st43{fill:url(#XMLID_19_);}
	.st44{fill:#E2C1A8;}
	.st45{fill:url(#XMLID_20_);}
	.st46{fill:url(#XMLID_21_);}
	.st47{fill:url(#XMLID_22_);}
	.st48{fill:url(#XMLID_23_);}
	.st49{fill:url(#XMLID_24_);}
	.st50{fill:url(#XMLID_25_);}
	.st51{fill:url(#XMLID_26_);}
	.st52{fill:url(#XMLID_28_);}
	.st53{fill:url(#XMLID_29_);}
	.st54{fill:url(#XMLID_30_);}
	.st55{fill:url(#XMLID_31_);}
	.st56{fill:url(#XMLID_33_);}
	.st57{fill:url(#XMLID_34_);}
	.st58{fill:url(#XMLID_35_);}
	.st59{fill:url(#XMLID_36_);}
	.st60{fill:#562C2C;}
	.st61{fill:url(#SVGID_24_);}
	.st62{fill:url(#SVGID_25_);}
	.st63{fill:url(#SVGID_26_);}
	.st64{fill:url(#SVGID_27_);}
	.st65{fill:url(#SVGID_28_);}
	.st66{fill:url(#SVGID_29_);}
	.st67{fill:url(#SVGID_30_);}
	.st68{fill:url(#SVGID_31_);}
	.st69{fill:url(#SVGID_32_);}
	.st70{fill:url(#SVGID_33_);}
	.st71{fill:url(#SVGID_34_);}
	.st72{fill:url(#SVGID_35_);}
	.st73{fill:url(#SVGID_36_);}
	.st74{fill:url(#SVGID_37_);}
	.st75{fill:url(#SVGID_38_);}
	.st76{fill:url(#SVGID_39_);}
	.st77{fill:url(#SVGID_40_);}
	.st78{fill:url(#SVGID_41_);}
	.st79{fill:url(#XMLID_37_);}
	.st80{fill:url(#XMLID_38_);}
	.st81{fill:url(#XMLID_43_);}
	.st82{fill:url(#XMLID_48_);}
	.st83{fill:url(#XMLID_55_);}
	.st84{fill:url(#XMLID_88_);}
	.st85{fill:url(#XMLID_264_);}
	.st86{fill:url(#XMLID_265_);}
	.st87{fill:url(#XMLID_266_);}
	.st88{fill:url(#XMLID_269_);}
	.st89{fill:url(#XMLID_270_);}
	.st90{fill:url(#XMLID_272_);}
	.st91{fill:url(#XMLID_275_);}
	.st92{fill:url(#XMLID_276_);}
	.st93{fill:url(#XMLID_277_);}
	.st94{fill:url(#XMLID_278_);}
	.st95{fill:url(#XMLID_279_);}
	.st96{fill:url(#XMLID_280_);}
	.st97{fill:url(#XMLID_281_);}
	.st98{fill:url(#XMLID_282_);}
	.st99{fill:url(#SVGID_42_);}
	.st100{fill:url(#SVGID_43_);}
	.st101{fill:url(#SVGID_44_);}
	.st102{fill:url(#SVGID_45_);}
	.st103{fill:url(#SVGID_46_);}
	.st104{fill:url(#SVGID_47_);}
	.st105{fill:url(#SVGID_48_);}
	.st106{fill:url(#SVGID_49_);}
	.st107{fill:url(#SVGID_50_);}
	.st108{fill:url(#SVGID_51_);}
	.st109{fill:url(#SVGID_52_);}
	.st110{fill:url(#SVGID_53_);}
	.st111{fill:url(#SVGID_54_);}
	.st112{fill:url(#SVGID_55_);}
	.st113{fill:url(#SVGID_56_);}
	.st114{fill:url(#SVGID_57_);}
	.st115{fill:url(#SVGID_58_);}
	.st116{fill:url(#SVGID_59_);}
	.st117{fill:url(#XMLID_297_);}
	.st118{fill:url(#XMLID_408_);}
	.st119{fill:url(#XMLID_409_);}
	.st120{fill:url(#XMLID_410_);}
	.st121{fill:url(#XMLID_411_);}
	.st122{fill:url(#XMLID_412_);}
	.st123{fill:url(#XMLID_413_);}
	.st124{fill:url(#XMLID_414_);}
	.st125{fill:url(#XMLID_415_);}
	.st126{fill:url(#XMLID_416_);}
	.st127{fill:url(#XMLID_417_);}
	.st128{fill:url(#XMLID_418_);}
	.st129{fill:url(#XMLID_419_);}
	.st130{fill:url(#XMLID_420_);}
	.st131{fill:url(#XMLID_468_);}
	.st132{fill:url(#XMLID_469_);}
	.st133{fill:url(#XMLID_470_);}
	.st134{fill:url(#XMLID_471_);}
	.st135{fill:url(#XMLID_472_);}
	.st136{fill:url(#XMLID_474_);}
	.st137{fill:url(#SVGID_60_);}
	.st138{fill:url(#SVGID_61_);}
	.st139{fill:url(#SVGID_62_);}
	.st140{fill:url(#SVGID_63_);}
	.st141{fill:url(#SVGID_64_);}
	.st142{fill:url(#SVGID_65_);}
	.st143{fill:url(#SVGID_66_);}
	.st144{fill:url(#SVGID_67_);}
	.st145{fill:url(#SVGID_68_);}
	.st146{fill:url(#SVGID_69_);}
	.st147{fill:url(#SVGID_70_);}
	.st148{fill:url(#SVGID_71_);}
	.st149{fill:url(#SVGID_72_);}
	.st150{fill:none;stroke:#FFFFFF;stroke-width:2;stroke-linecap:round;stroke-linejoin:round;stroke-miterlimit:10;}
</style>
<linearGradient id="SVGID_1_" gradientUnits="userSpaceOnUse" x1="5.8448" y1="192.9616" x2="195.4785" y2="12.7157">
	<stop  offset="5.376340e-03" style="stop-color:#B71C1C"/>
	<stop  offset="1" style="stop-color:#E53935"/>
</linearGradient>
<rect class="st0" width="203.56" height="203.56"/>
<path class="st3" d="M42.3,143.54c0-27.86,0-55.72,0-83.58c0.02-0.12,0.05-0.24,0.06-0.36c0.09-1.48,0.35-2.93,0.82-4.34
	c1.44-4.31,4.04-7.72,7.92-10.12c2.28-1.42,4.75-2.33,7.43-2.66c0.5-0.06,1-0.12,1.5-0.18c27.86,0,55.72,0,83.58,0
	c0.59,0.07,1.19,0.11,1.78,0.2c3.76,0.57,7.07,2.13,9.84,4.72c4,3.73,6.03,8.37,6.03,13.85c0.01,27.09,0.01,54.19-0.01,81.28
	c0,1.08-0.08,2.17-0.25,3.24c-0.58,3.65-2.12,6.88-4.63,9.59c-3.72,4.01-8.35,6.06-13.84,6.06c-27.12,0.01-54.25,0-81.37,0
	c-1.65,0-3.28-0.16-4.87-0.6c-5.1-1.4-9.02-4.35-11.61-8.99c-1.16-2.06-1.9-4.27-2.19-6.62C42.42,144.54,42.36,144.04,42.3,143.54z
	 M101.75,50.3c-13.43,0-26.85,0-40.28,0c-1.59,0-3.15,0.19-4.6,0.84c-3.91,1.77-6.06,4.83-6.53,9.08c-0.05,0.43-0.05,0.87-0.05,1.3
	c0,26.84,0,53.69,0,80.53c0,1.48,0.17,2.92,0.7,4.3c1,2.59,2.77,4.5,5.22,5.78c1.63,0.85,3.39,1.14,5.22,1.14
	c26.9,0,53.79,0,80.69,0c1.5,0,2.96-0.22,4.36-0.78c2.15-0.86,3.86-2.26,5.11-4.21c1.2-1.87,1.68-3.94,1.68-6.15
	c0-26.9,0-53.79,0-80.69c0-1.86-0.35-3.64-1.2-5.3c-1.05-2.06-2.62-3.62-4.69-4.67c-1.67-0.84-3.45-1.18-5.31-1.18
	C128.63,50.3,115.19,50.3,101.75,50.3z"/>
<path class="st3" d="M117.59,62.27c0.54,0.06,1.07,0.11,1.61,0.18c6.78,0.85,12.54,5.9,14.32,12.53c0.4,1.5,0.59,3.02,0.59,4.57
	c0,2.32,0,4.63-0.01,6.95c0,0.18-0.05,0.39-0.15,0.54c-10.66,18.01-21.34,36.01-32.01,54.01c-0.04,0.07-0.09,0.14-0.15,0.24
	c-0.07-0.12-0.13-0.21-0.19-0.3c-7.72-12.96-15.43-25.92-23.15-38.88c-2.95-4.96-5.9-9.92-8.86-14.88
	c-0.05-0.08-0.11-0.14-0.16-0.21c0-2.74,0-5.47,0-8.21c0.02-0.1,0.03-0.2,0.05-0.3c0.13-0.94,0.19-1.89,0.39-2.81
	c1.58-7.04,7.55-12.29,14.67-13.25c0.57-0.08,1.15-0.12,1.73-0.18c0.47,0,0.94,0,1.41,0c0.11,0.02,0.22,0.04,0.33,0.05
	c0.63,0.07,1.26,0.1,1.88,0.21c5.15,0.95,9.1,3.67,11.86,8.13c0.05,0.08,0.1,0.16,0.17,0.25c0.09-0.15,0.16-0.26,0.23-0.37
	c2.9-4.58,7.01-7.3,12.38-8.09c0.54-0.08,1.09-0.12,1.64-0.18C116.66,62.27,117.13,62.27,117.59,62.27z M75.09,87.42
	c0.07,0.13,0.12,0.22,0.18,0.32c5.86,9.82,11.71,19.64,17.56,29.46c0.28,0.47,0.62,0.88,1.04,1.22c2.08,1.67,4.41,2.57,7.12,2.24
	c4.15-0.51,6.68-4.14,5.73-8.21c-0.41-1.74-1.38-3.11-2.68-4.29c-1.18-1.08-2.52-1.95-3.84-2.83c-1.46-0.97-2.91-1.96-4.24-3.12
	c-4.58-3.99-4.99-10.18-2.24-14.6c0.03-0.05,0.05-0.1,0.09-0.18C87.57,87.42,81.36,87.42,75.09,87.42z M128.37,87.32
	c-0.16,0-0.25,0-0.34,0c-8.68-0.02-17.35-0.04-26.03-0.04c-0.33,0-0.67,0.06-0.98,0.18c-3.78,1.49-5.72,6.7-2.55,10.42
	c1.07,1.25,2.42,2.15,3.77,3.05c1.64,1.09,3.31,2.14,4.88,3.32c3.35,2.55,5.07,5.94,4.96,10.2c0,0.06,0.02,0.12,0.03,0.23
	C117.54,105.55,122.94,96.46,128.37,87.32z M99.68,82.45c0.01-0.08,0.02-0.13,0.02-0.18c-0.03-1.28-0.02-2.55-0.11-3.82
	c-0.2-2.93-1.33-5.47-3.35-7.6c-3.61-3.82-8.96-5.07-13.84-3.12c-4.38,1.75-7.01,5.02-7.87,9.68c-0.3,1.65-0.15,3.32-0.16,4.98
	c0,0.02,0.02,0.03,0.04,0.07C82.81,82.45,91.23,82.45,99.68,82.45z M129.52,82.45c0-0.51,0-1.01,0-1.51c0-1.26,0.02-2.53-0.21-3.78
	c-1.03-5.68-5.95-10.03-11.73-10.29c-3.69-0.17-6.91,1.02-9.57,3.6c-2.19,2.13-3.46,4.73-3.71,7.78c-0.11,1.35-0.06,2.71-0.07,4.07
	c0,0.05,0.02,0.09,0.03,0.14C112.68,82.45,121.08,82.45,129.52,82.45z M101.8,132.19c1.7-2.87,3.37-5.69,5.04-8.51
	c-2.77,1.78-5.72,2.49-9.02,1.83C99.17,127.77,100.48,129.96,101.8,132.19z"/>
<path class="st150" d="M117.59,62.27c0.54,0.06,1.07,0.11,1.61,0.18c6.78,0.85,12.54,5.9,14.32,12.53c0.4,1.5,0.59,3.02,0.59,4.57
	c0,2.32,0,4.63-0.01,6.95c0,0.18-0.05,0.39-0.15,0.54c-10.66,18.01-21.34,36.01-32.01,54.01c-0.04,0.07-0.09,0.14-0.15,0.24
	c-0.07-0.12-0.13-0.21-0.19-0.3c-7.72-12.96-15.43-25.92-23.15-38.88c-2.95-4.96-5.9-9.92-8.86-14.88
	c-0.05-0.08-0.11-0.14-0.16-0.21c0-2.74,0-5.47,0-8.21c0.02-0.1,0.03-0.2,0.05-0.3c0.13-0.94,0.19-1.89,0.39-2.81
	c1.58-7.04,7.55-12.29,14.67-13.25c0.57-0.08,1.15-0.12,1.73-0.18c0.47,0,0.94,0,1.41,0c0.11,0.02,0.22,0.04,0.33,0.05
	c0.63,0.07,1.26,0.1,1.88,0.21c5.15,0.95,9.1,3.67,11.86,8.13c0.05,0.08,0.1,0.16,0.17,0.25c0.09-0.15,0.16-0.26,0.23-0.37
	c2.9-4.58,7.01-7.3,12.38-8.09c0.54-0.08,1.09-0.12,1.64-0.18C116.66,62.27,117.13,62.27,117.59,62.27z M75.09,87.42
	c0.07,0.13,0.12,0.22,0.18,0.32c5.86,9.82,11.71,19.64,17.56,29.46c0.28,0.47,0.62,0.88,1.04,1.22c2.08,1.67,4.41,2.57,7.12,2.24
	c4.15-0.51,6.68-4.14,5.73-8.21c-0.41-1.74-1.38-3.11-2.68-4.29c-1.18-1.08-2.52-1.95-3.84-2.83c-1.46-0.97-2.91-1.96-4.24-3.12
	c-4.58-3.99-4.99-10.18-2.24-14.6c0.03-0.05,0.05-0.1,0.09-0.18C87.57,87.42,81.36,87.42,75.09,87.42z M128.37,87.32
	c-0.16,0-0.25,0-0.34,0c-8.68-0.02-17.35-0.04-26.03-0.04c-0.33,0-0.67,0.06-0.98,0.18c-3.78,1.49-5.72,6.7-2.55,10.42
	c1.07,1.25,2.42,2.15,3.77,3.05c1.64,1.09,3.31,2.14,4.88,3.32c3.35,2.55,5.07,5.94,4.96,10.2c0,0.06,0.02,0.12,0.03,0.23
	C117.54,105.55,122.94,96.46,128.37,87.32z M99.68,82.45c0.01-0.08,0.02-0.13,0.02-0.18c-0.03-1.28-0.02-2.55-0.11-3.82
	c-0.2-2.93-1.33-5.47-3.35-7.6c-3.61-3.82-8.96-5.07-13.84-3.12c-4.38,1.75-7.01,5.02-7.87,9.68c-0.3,1.65-0.15,3.32-0.16,4.98
	c0,0.02,0.02,0.03,0.04,0.07C82.81,82.45,91.23,82.45,99.68,82.45z M129.52,82.45c0-0.51,0-1.01,0-1.51c0-1.26,0.02-2.53-0.21-3.78
	c-1.03-5.68-5.95-10.03-11.73-10.29c-3.69-0.17-6.91,1.02-9.57,3.6c-2.19,2.13-3.46,4.73-3.71,7.78c-0.11,1.35-0.06,2.71-0.07,4.07
	c0,0.05,0.02,0.09,0.03,0.14C112.68,82.45,121.08,82.45,129.52,82.45z M101.8,132.19c1.7-2.87,3.37-5.69,5.04-8.51
	c-2.77,1.78-5.72,2.49-9.02,1.83C99.17,127.77,100.48,129.96,101.8,132.19z"/>
</svg>
