<?xml version="1.0" encoding="utf-8"?>
<!-- Generator: Adobe Illustrator 23.0.6, SVG Export Plug-In . SVG Version: 6.00 Build 0)  -->
<svg version="1.1" id="Layer_1" xmlns="http://www.w3.org/2000/svg" xmlns:xlink="http://www.w3.org/1999/xlink" x="0px" y="0px"
	 viewBox="0 0 730 400" style="enable-background:new 0 0 730 400;" xml:space="preserve">
<style type="text/css">
	.st0{fill:#FFFFFF;}
	.st1{fill:#FD475D;}
	.st2{fill:#211E1F;}
	.st3{opacity:5.000000e-02;}
	.st4{opacity:0.3;}
	.st5{fill:#EFC58B;}
	.st6{fill:#C79D5C;}
	.st7{fill:#995D43;}
	.st8{fill:#F7E6BB;}
	.st9{fill:#B88F5A;}
	.st10{fill:#A16739;}
	.st11{fill:#FAFAFA;}
	.st12{fill:#F0F0F0;}
	.st13{fill:#E0E0E0;}
	.st14{fill:#455A64;}
	.st15{fill:#00DFBF;}
	.st16{fill:#E7E7E7;}
	.st17{fill:#D33557;}
	.st18{fill:#FFAAA8;}
	.st19{fill:#2B454E;}
	.st20{fill:#263238;}
	.st21{fill:#EBEBEB;}
	.st22{fill:#FF9090;}
	.st23{opacity:0.2;fill:#FFFFFF;}
	.st24{opacity:0.1;}
	.st25{fill:#FF6982;}
	.st26{opacity:0.59;}
	.st27{fill:#351C1B;}
	.st28{fill:#231F20;}
	.st29{font-family:'Rubik-Medium';}
	.st30{font-size:1.5738px;}
</style>
<rect x="0" class="st0" width="730" height="400"/>
<polygon class="st1" points="250.1,0 248.7,400 0,400 0,0 "/>
<g>
	<path class="st1" d="M305,378.9c-0.7,0-1.3,0-1.6,0c-0.4,0-1,0-1.8,0l0.1-2.2c-0.4,0.5-0.7,0.9-1,1.1c-0.3,0.3-0.6,0.5-1,0.7
		s-0.8,0.4-1.3,0.5c-0.5,0.1-0.9,0.2-1.4,0.2c-0.8,0-1.6-0.1-2.3-0.4c-0.7-0.3-1.3-0.7-1.8-1.3c-0.5-0.5-0.9-1.2-1.1-1.9
		s-0.4-1.5-0.4-2.3c0-1.1,0.2-2.2,0.6-3.3s1-1.9,1.8-2.6s1.6-1.1,2.5-1.4c0.9-0.3,1.9-0.4,3-0.4c0.8,0,1.7,0.1,2.6,0.2
		c0.1-1.1,0.1-2.3,0.1-3.5v-0.9c0.8,0,1.4,0,1.8,0c0.6,0,1.2,0,1.9,0c-0.2,2.2-0.4,5.1-0.5,8.8S305,376.9,305,378.9z M301.9,368.3
		c-0.6-0.2-1.3-0.3-1.8-0.3c-0.7,0-1.3,0.1-1.9,0.3s-1.2,0.5-1.6,1c-0.5,0.5-0.8,1-1.1,1.7c-0.3,0.7-0.4,1.4-0.4,2s0.1,1.3,0.4,1.8
		c0.2,0.5,0.6,1,1.1,1.3s1.1,0.5,1.7,0.5c0.5,0,0.9-0.1,1.3-0.2c0.4-0.2,0.7-0.4,1-0.8c0.3-0.3,0.6-0.8,0.8-1.3
		c0.2-0.5,0.4-1.3,0.5-2.2C301.8,371.4,301.8,370.1,301.9,368.3z"/>
	<path class="st1" d="M306.6,384.8c-0.2-1.3-0.3-2.2-0.4-2.8c0.8,0.4,1.6,0.6,2.3,0.6c0.2,0,0.4,0,0.7-0.1c0.2-0.1,0.4-0.1,0.6-0.2
		c0.1-0.1,0.3-0.2,0.4-0.3c0.1-0.1,0.3-0.4,0.5-0.7c0.2-0.3,0.4-0.7,0.6-1c0.1-0.3,0.3-0.6,0.4-1.1l-2.7-7.8l-1.9-5.5
		c0.9,0,1.5,0,1.9,0c0.5,0,1,0,1.8,0c0.2,0.7,0.3,1.3,0.5,1.8l1.2,4c0.4,1.2,0.6,2.2,0.8,2.8c0.1,0.4,0.2,1,0.4,1.6
		c0.3-0.8,0.5-1.4,0.7-1.9c0.3-0.9,0.8-2.1,1.4-3.6l1.2-3.1c0.2-0.5,0.4-1.1,0.7-1.8c0.8,0,1.4,0,1.8,0c0.4,0,1,0,1.8,0l-4.9,11
		l-2.1,4.9c-0.3,0.6-0.6,1.1-0.9,1.5c-0.2,0.3-0.5,0.6-0.7,0.8c-0.3,0.2-0.5,0.4-0.8,0.5c-0.4,0.2-0.8,0.3-1.2,0.4
		c-0.5,0.1-1,0.2-1.5,0.2c-0.3,0-0.7,0-1.2-0.1C307.6,385,307.1,384.9,306.6,384.8z"/>
	<path class="st1" d="M322.2,378.9c0.2-1.9,0.4-4.1,0.5-6.5s0.2-4.6,0.2-6.5c0.8,0,1.4,0,1.9,0c0.6,0,1.1,0,1.8,0l-0.1,2.2
		c0.3-0.4,0.5-0.7,0.7-0.9s0.5-0.4,0.8-0.7c0.3-0.2,0.6-0.4,1-0.5s0.7-0.2,1.2-0.3c0.4-0.1,0.9-0.1,1.4-0.1c0.8,0,1.5,0.1,2.2,0.3
		c0.7,0.2,1.3,0.5,1.7,0.9c0.4,0.4,0.7,0.9,0.8,1.4c0.1,0.5,0.2,1,0.2,1.6c0,0.2,0,0.6,0,1.1l-0.3,5.6c0,0.8-0.1,1.6-0.1,2.5
		c-0.7,0-1.3,0-1.7,0c-0.6,0-1.3,0-2,0c0.1-0.7,0.2-2,0.3-3.9s0.2-3.1,0.2-3.7c0-0.7-0.1-1.2-0.3-1.6s-0.5-0.7-1-0.9
		c-0.4-0.2-0.9-0.3-1.4-0.3c-0.5,0-1,0.1-1.4,0.3c-0.4,0.2-0.8,0.5-1.1,0.9c-0.3,0.4-0.6,0.9-0.8,1.4c-0.2,0.6-0.3,1.6-0.4,3
		c-0.1,1.2-0.2,2.8-0.2,4.9c-0.7,0-1.3,0-1.8,0C323.6,378.9,323,378.9,322.2,378.9z"/>
	<path class="st1" d="M340,368.8c0.1-0.6,0.2-1,0.2-1.3c0-0.2,0.1-0.6,0.2-1.1c1.2-0.3,2.2-0.5,3.1-0.6c0.9-0.1,1.7-0.2,2.6-0.2
		c0.9,0,1.8,0.1,2.6,0.3c0.8,0.2,1.4,0.6,1.8,1c0.4,0.5,0.7,1.2,0.7,2.1c0,0.5-0.1,1.7-0.2,3.7s-0.2,4-0.2,6.2c-0.6,0-1.2,0-1.8,0
		c-0.5,0-1.1,0-1.8,0c0.1-1,0.2-2.2,0.3-3.6l0.2-3.2c-0.3,0.2-0.6,0.4-0.7,0.4c-0.2,0.1-0.4,0.2-0.6,0.2c-0.2,0.1-0.6,0.2-1.1,0.3
		c-0.5,0.1-1,0.3-1.3,0.4c-0.3,0.1-0.6,0.2-0.9,0.4s-0.5,0.3-0.7,0.5s-0.3,0.4-0.4,0.5c-0.1,0.2-0.1,0.4-0.1,0.6
		c0,0.4,0.1,0.7,0.3,0.9s0.5,0.4,0.8,0.5c0.3,0.1,0.7,0.2,1.1,0.2c0.3,0,0.6,0,0.9-0.1c0.3,0,0.7-0.1,1.2-0.3
		c-0.2,0.5-0.4,1.2-0.6,2.2c-0.6,0.1-1.1,0.2-1.4,0.2c-0.4,0-0.7,0-1,0c-1.1,0-2-0.1-2.6-0.4c-0.7-0.3-1.2-0.7-1.5-1.4
		c-0.3-0.6-0.5-1.3-0.5-1.9c0-0.4,0.1-0.7,0.2-1.1c0.1-0.4,0.3-0.7,0.6-1c0.2-0.3,0.6-0.6,1-0.9c0.4-0.3,1-0.5,1.7-0.8
		s1.7-0.5,2.9-0.8c0.3-0.1,0.7-0.2,1-0.2c0.3-0.1,0.6-0.2,0.8-0.3c0.2-0.1,0.4-0.2,0.5-0.4c0.2-0.1,0.3-0.3,0.3-0.5
		c0.1-0.2,0.1-0.3,0.1-0.5c0-0.3-0.1-0.6-0.3-0.8c-0.2-0.2-0.5-0.4-0.8-0.5c-0.3-0.1-0.7-0.1-1.1-0.1
		C343.6,367.7,341.9,368,340,368.8z"/>
	<path class="st1" d="M353.9,378.9c0.1-1.4,0.2-3.6,0.4-6.5s0.2-5,0.2-6.5c0.7,0,1.3,0,1.8,0c0.5,0,1.1,0,1.7,0l-0.1,2.1
		c0.3-0.4,0.5-0.7,0.7-1c0.2-0.3,0.5-0.5,0.9-0.7c0.4-0.2,0.8-0.4,1.3-0.5c0.5-0.1,1-0.2,1.5-0.2c0.4,0,0.8,0,1.1,0.1
		c0.4,0.1,0.7,0.2,1,0.3c0.3,0.1,0.5,0.3,0.8,0.5c0.2,0.2,0.4,0.4,0.5,0.6c0.1,0.2,0.3,0.5,0.5,0.9c0.2-0.3,0.4-0.5,0.5-0.7
		c0.2-0.2,0.4-0.4,0.6-0.6c0.3-0.2,0.6-0.4,0.9-0.5c0.3-0.1,0.7-0.3,1.1-0.3c0.4-0.1,0.8-0.1,1.3-0.1c0.7,0,1.4,0.1,2.1,0.4
		c0.7,0.2,1.2,0.6,1.5,1.2c0.4,0.5,0.6,1.2,0.6,1.9c0,0.4,0,1-0.1,1.8c-0.1,0.8-0.1,2.1-0.2,3.9c-0.1,1.8-0.1,3.2-0.1,4.2
		c-0.6,0-1.2,0-1.7,0c-0.6,0-1.2,0-2,0c0.1-1.1,0.1-2.2,0.2-3.5l0.2-2.9c0-0.7,0.1-1.4,0.1-1.9c0-0.6-0.1-1.1-0.3-1.4
		c-0.2-0.3-0.4-0.5-0.7-0.7c-0.3-0.1-0.6-0.2-1-0.2c-0.4,0-0.7,0.1-1,0.2c-0.3,0.1-0.6,0.4-0.9,0.7c-0.3,0.3-0.5,0.7-0.6,1.1
		c-0.1,0.4-0.3,1-0.3,1.8c-0.1,0.8-0.1,1.8-0.2,3.1l-0.1,3.6c-0.7,0-1.3,0-1.8,0c-0.5,0-1.1,0-1.9,0c0.1-0.7,0.1-2,0.3-4
		c0.1-2,0.2-3.4,0.2-4.1c0-0.4,0-0.7-0.1-1s-0.2-0.5-0.4-0.7s-0.4-0.4-0.6-0.5c-0.2-0.1-0.5-0.2-0.9-0.2c-0.6,0-1.1,0.2-1.6,0.6
		s-0.8,0.9-1,1.6c-0.2,0.7-0.4,1.9-0.5,3.8s-0.1,3.4-0.1,4.5c-0.8,0-1.4,0-1.8,0C355.3,378.9,354.7,378.9,353.9,378.9z"/>
	<path class="st1" d="M388.9,376c-0.1,0.5-0.3,1.4-0.5,2.7c-0.9,0.2-1.7,0.3-2.3,0.4c-0.6,0.1-1.3,0.1-1.9,0.1c-1.1,0-2.1-0.1-3-0.3
		c-0.9-0.2-1.7-0.6-2.3-1.2c-0.7-0.6-1.2-1.3-1.5-2.2c-0.3-0.9-0.5-1.8-0.5-2.7c0-1,0.2-2.1,0.5-3c0.4-1,0.9-1.8,1.5-2.4
		c0.7-0.6,1.4-1.1,2.3-1.3c0.8-0.3,1.7-0.4,2.6-0.4c0.9,0,1.7,0.1,2.5,0.3c0.8,0.2,1.4,0.6,2,1.1s0.9,1.1,1.2,1.8
		c0.3,0.7,0.4,1.5,0.4,2.3c0,0.4,0,0.8-0.1,1.2l-9.4,0c0,0.3,0,0.6,0,0.8c0,0.6,0.1,1.1,0.3,1.6c0.2,0.5,0.5,0.9,0.9,1.2
		c0.4,0.3,0.8,0.6,1.3,0.7c0.5,0.2,1,0.2,1.5,0.2c0.6,0,1.2-0.1,1.9-0.2S387.9,376.3,388.9,376z M380.6,370.8l6,0c0-0.4,0-0.7,0-0.9
		c0-0.2-0.1-0.4-0.2-0.7c-0.1-0.3-0.2-0.5-0.4-0.7c-0.2-0.2-0.3-0.3-0.5-0.5c-0.2-0.1-0.4-0.2-0.7-0.3c-0.3-0.1-0.6-0.1-0.9-0.1
		c-0.4,0-0.7,0.1-1,0.2s-0.6,0.3-0.9,0.5s-0.5,0.5-0.7,0.7c-0.2,0.3-0.3,0.5-0.4,0.8C380.8,370.1,380.7,370.4,380.6,370.8z"/>
	<path class="st1" d="M390.4,378.9c1.8-2.2,3.6-4.4,5.5-6.8l-1.2-1.8c-0.4-0.6-0.9-1.3-1.5-2.2l-1.6-2.3c0.9,0,1.7,0,2.2,0
		c0.7,0,1.4,0,2,0c0.4,0.6,0.8,1.3,1.4,2l1,1.4l2.7-3.4c0.6,0,1.3,0,1.9,0c0.6,0,1.3,0,2,0l-2.1,2.6c-0.5,0.6-1.4,1.8-2.7,3.5l2,3
		l2.7,3.9c-0.7,0-1.4,0-2,0c-0.8,0-1.5,0-2.2,0c-0.5-0.9-1.1-1.7-1.6-2.4s-0.9-1.3-1.2-1.7c-0.3,0.5-0.8,1-1.4,1.7s-1.2,1.5-1.8,2.3
		c-0.7,0-1.4,0-1.9,0C391.9,378.9,391.2,378.9,390.4,378.9z"/>
	<path class="st2" d="M406.6,378.9c0-0.6,0.1-1.8,0.1-3.4l1.9,0c0.2,0,0.7,0,1.7,0c0,0.6-0.1,1.2-0.1,1.9l-0.1,1.6l-1.7,0
		C408.4,378.9,407.8,378.9,406.6,378.9z"/>
	<path class="st2" d="M414.3,368.8c0.1-0.6,0.2-1,0.2-1.3c0-0.2,0.1-0.6,0.2-1.1c1.2-0.3,2.2-0.5,3.1-0.6c0.9-0.1,1.7-0.2,2.6-0.2
		c0.9,0,1.8,0.1,2.6,0.3c0.8,0.2,1.4,0.6,1.8,1c0.4,0.5,0.7,1.2,0.7,2.1c0,0.5-0.1,1.7-0.2,3.7c-0.1,2-0.2,4-0.2,6.2
		c-0.6,0-1.2,0-1.8,0c-0.5,0-1.1,0-1.8,0c0.1-1,0.2-2.2,0.3-3.6l0.2-3.2c-0.3,0.2-0.6,0.4-0.7,0.4c-0.2,0.1-0.4,0.2-0.6,0.2
		c-0.2,0.1-0.6,0.2-1.1,0.3c-0.5,0.1-1,0.3-1.3,0.4c-0.3,0.1-0.6,0.2-0.9,0.4s-0.5,0.3-0.7,0.5c-0.2,0.2-0.3,0.4-0.4,0.5
		c-0.1,0.2-0.1,0.4-0.1,0.6c0,0.4,0.1,0.7,0.3,0.9c0.2,0.3,0.5,0.4,0.8,0.5c0.3,0.1,0.7,0.2,1.1,0.2c0.3,0,0.6,0,0.9-0.1
		s0.7-0.1,1.2-0.3c-0.2,0.5-0.4,1.2-0.6,2.2c-0.6,0.1-1.1,0.2-1.4,0.2c-0.4,0-0.7,0-1,0c-1.1,0-2-0.1-2.6-0.4
		c-0.7-0.3-1.2-0.7-1.5-1.4s-0.5-1.3-0.5-1.9c0-0.4,0.1-0.7,0.2-1.1c0.1-0.4,0.3-0.7,0.6-1s0.6-0.6,1-0.9c0.4-0.3,1-0.5,1.7-0.8
		c0.7-0.3,1.7-0.5,2.9-0.8c0.3-0.1,0.7-0.2,1-0.2s0.6-0.2,0.8-0.3s0.4-0.2,0.5-0.4c0.2-0.1,0.3-0.3,0.3-0.5s0.1-0.3,0.1-0.5
		c0-0.3-0.1-0.6-0.3-0.8c-0.2-0.2-0.5-0.4-0.8-0.5c-0.3-0.1-0.7-0.1-1.1-0.1C417.8,367.7,416.1,368,414.3,368.8z"/>
	<path class="st2" d="M427.4,378.9c0-0.8,0.1-1.8,0.1-2.8c0.3-0.3,0.5-0.6,0.7-0.7l6.2-7.1h-0.7c-1.1,0-2.1,0-3,0
		c-0.9,0-1.7,0.1-2.5,0.1c0.1-0.8,0.1-1.7,0.1-2.6c1.5,0,2.9,0,4.2,0c2.3,0,4.3,0,6,0c0,0.4-0.1,1.4-0.1,3L432,376l-0.4,0.4
		c0.9,0,1.6,0.1,2.1,0.1c1.3,0,2.1,0,2.6,0c0.5,0,1.1,0,1.7-0.1c-0.1,0.6-0.1,1.5-0.2,2.5c-1.5,0-3.2,0-5.1,0
		C430.7,378.9,429,378.9,427.4,378.9z"/>
</g>
<g>
	<path class="st0" d="M137.1,39c0-1.2,1-2.2,2.2-2.2c1.2,0,2.2,1,2.2,2.2s-1,2.2-2.2,2.2C138.1,41.2,137.1,40.2,137.1,39z"/>
	<circle class="st0" cx="124.4" cy="39" r="2.2"/>
	<circle class="st0" cx="109.5" cy="39" r="2.2"/>
	<path class="st0" d="M92.4,39c0-1.2,1-2.2,2.2-2.2c1.2,0,2.2,1,2.2,2.2s-1,2.2-2.2,2.2C93.4,41.2,92.4,40.2,92.4,39z"/>
	<path class="st0" d="M77.5,39c0-1.2,1-2.2,2.2-2.2c1.2,0,2.2,1,2.2,2.2s-1,2.2-2.2,2.2C78.5,41.2,77.5,40.2,77.5,39z"/>
	<path class="st0" d="M62.6,39c0-1.2,1-2.2,2.2-2.2c1.2,0,2.2,1,2.2,2.2s-1,2.2-2.2,2.2C63.6,41.2,62.6,40.2,62.6,39z"/>
	<circle class="st0" cx="50" cy="39" r="2.2"/>
	<circle class="st0" cx="35.1" cy="39" r="2.2"/>
	<path class="st0" d="M17.9,39c0-1.2,1-2.2,2.2-2.2c1.2,0,2.2,1,2.2,2.2s-1,2.2-2.2,2.2C18.9,41.2,17.9,40.2,17.9,39z"/>
	<path class="st0" d="M129.5,27.2c0-1.2,1-2.2,2.2-2.2s2.2,1,2.2,2.2c0,1.2-1,2.2-2.2,2.2S129.5,28.4,129.5,27.2z"/>
	<path class="st0" d="M114.6,27.2c0-1.2,1-2.2,2.2-2.2c1.2,0,2.2,1,2.2,2.2c0,1.2-1,2.2-2.2,2.2C115.6,29.4,114.6,28.4,114.6,27.2z"
		/>
	<path class="st0" d="M99.7,27.2c0-1.2,1-2.2,2.2-2.2c1.2,0,2.2,1,2.2,2.2c0,1.2-1,2.2-2.2,2.2C100.7,29.4,99.7,28.4,99.7,27.2z"/>
	<path class="st0" d="M84.8,27.2c0-1.2,1-2.2,2.2-2.2c1.2,0,2.2,1,2.2,2.2c0,1.2-1,2.2-2.2,2.2C85.8,29.4,84.8,28.4,84.8,27.2z"/>
	<path class="st0" d="M69.9,27.2c0-1.2,1-2.2,2.2-2.2c1.2,0,2.2,1,2.2,2.2c0,1.2-1,2.2-2.2,2.2C71,29.4,69.9,28.4,69.9,27.2z"/>
	<path class="st0" d="M55.1,27.2c0-1.2,1-2.2,2.2-2.2s2.2,1,2.2,2.2c0,1.2-1,2.2-2.2,2.2S55.1,28.4,55.1,27.2z"/>
	<path class="st0" d="M40.2,27.2c0-1.2,1-2.2,2.2-2.2c1.2,0,2.2,1,2.2,2.2c0,1.2-1,2.2-2.2,2.2C41.2,29.4,40.2,28.4,40.2,27.2z"/>
	<path class="st0" d="M25.3,27.2c0-1.2,1-2.2,2.2-2.2c1.2,0,2.2,1,2.2,2.2c0,1.2-1,2.2-2.2,2.2C26.3,29.4,25.3,28.4,25.3,27.2z"/>
	<path class="st0" d="M10.4,27.2c0-1.2,1-2.2,2.2-2.2c1.2,0,2.2,1,2.2,2.2c0,1.2-1,2.2-2.2,2.2C11.4,29.4,10.4,28.4,10.4,27.2z"/>
</g>
<g>
	
		<rect x="611.3" y="313.9" transform="matrix(-1 -1.224647e-16 1.224647e-16 -1 1229.8475 713.9056)" class="st1" width="7.2" height="86.1"/>
	
		<rect x="591.5" y="230.3" transform="matrix(-1 -1.224647e-16 1.224647e-16 -1 1190.3278 630.3456)" class="st1" width="7.2" height="169.7"/>
</g>
<g>
	<path class="st0" d="M114.4,294.9L80,329.4l34.4,34.4l34.4-34.4L114.4,294.9z M91.9,329.4l22.5-22.5l22.5,22.5l-22.5,22.5
		L91.9,329.4z"/>
	<path class="st0" d="M89.3,357L47,399.3l0.7,0.7h14.7l-0.7-0.7l27.6-27.6l27.6,27.6l-0.7,0.7h14.7l0.7-0.7L89.3,357z"/>
</g>
<g>
	<g>
		<path class="st1" d="M271.3,36.1c0-0.5,0.2-0.9,0.5-1.1c0.3-0.2,0.7-0.3,1.3-0.3c0.4,0,0.7,0,1,0.1c0.3,0.1,0.5,0.2,0.6,0.2v15.6
			h-3.4v-6.8h-6.9v6.8H261V36.1c0-0.5,0.2-0.9,0.5-1.1c0.3-0.2,0.7-0.3,1.3-0.3c0.4,0,0.7,0,1,0.1c0.3,0.1,0.5,0.2,0.6,0.2v5.9h6.9
			V36.1z"/>
		<path class="st1" d="M290.6,44.7c0,0.9-0.2,1.7-0.5,2.5s-0.7,1.4-1.3,2s-1.2,1-2,1.3c-0.8,0.3-1.7,0.5-2.6,0.5s-1.9-0.2-2.6-0.5
			c-0.8-0.3-1.5-0.8-2-1.3s-1-1.2-1.3-2s-0.5-1.6-0.5-2.5c0-0.9,0.2-1.7,0.5-2.5s0.7-1.4,1.3-2c0.6-0.6,1.2-1,2-1.3
			c0.8-0.3,1.7-0.5,2.6-0.5s1.9,0.2,2.6,0.5c0.8,0.3,1.5,0.8,2,1.3c0.6,0.6,1,1.2,1.3,2S290.6,43.8,290.6,44.7z M287.3,44.7
			c0-0.5-0.1-1-0.2-1.5c-0.1-0.5-0.3-0.8-0.6-1.2c-0.3-0.3-0.6-0.6-1-0.8c-0.4-0.2-0.8-0.3-1.3-0.3s-1,0.1-1.3,0.3
			c-0.4,0.2-0.7,0.5-1,0.8c-0.3,0.3-0.5,0.7-0.6,1.2c-0.1,0.5-0.2,0.9-0.2,1.5s0.1,1,0.2,1.5c0.1,0.5,0.3,0.8,0.6,1.2
			c0.3,0.3,0.6,0.6,1,0.8c0.4,0.2,0.8,0.3,1.3,0.3s1-0.1,1.3-0.3c0.4-0.2,0.7-0.5,1-0.8s0.5-0.7,0.6-1.2
			C287.3,45.7,287.3,45.2,287.3,44.7z"/>
		<path class="st1" d="M304.8,47.2c0,0.4-0.1,0.7-0.2,1.1c-0.1,0.4-0.4,0.8-0.7,1.1s-0.7,0.6-1.3,0.8c-0.5,0.2-1.2,0.3-2,0.3h-7.1
			V40.4c0-1.1,0.6-1.7,1.8-1.7h4.8c1.4,0,2.4,0.3,3.1,0.9c0.7,0.6,1,1.4,1,2.4c0,0.6-0.2,1.1-0.5,1.6c-0.3,0.5-0.7,0.8-1.2,1
			c0.2,0,0.4,0.1,0.6,0.2c0.3,0.1,0.5,0.2,0.8,0.4s0.5,0.5,0.6,0.8C304.7,46.3,304.8,46.7,304.8,47.2z M301,42.3
			c0-0.1,0-0.3-0.1-0.4c0-0.1-0.1-0.3-0.2-0.4c-0.1-0.1-0.3-0.2-0.4-0.3c-0.2-0.1-0.4-0.1-0.7-0.1h-2.8v2.5h2.8
			c0.5,0,0.9-0.1,1.1-0.4C300.9,42.8,301,42.5,301,42.3z M301.5,46.9c0-0.1,0-0.3-0.1-0.4c-0.1-0.1-0.1-0.3-0.3-0.4
			c-0.1-0.1-0.3-0.2-0.5-0.3c-0.2-0.1-0.5-0.1-0.8-0.1h-3.1v2.6h3.1c0.3,0,0.6,0,0.8-0.1c0.2-0.1,0.4-0.2,0.5-0.3
			c0.1-0.1,0.2-0.3,0.3-0.4C301.5,47.2,301.5,47.1,301.5,46.9z"/>
		<path class="st1" d="M319.8,44.7c0,0.9-0.2,1.7-0.5,2.5s-0.7,1.4-1.3,2s-1.2,1-2,1.3c-0.8,0.3-1.7,0.5-2.6,0.5s-1.9-0.2-2.6-0.5
			c-0.8-0.3-1.5-0.8-2-1.3s-1-1.2-1.3-2s-0.5-1.6-0.5-2.5c0-0.9,0.2-1.7,0.5-2.5s0.7-1.4,1.3-2c0.6-0.6,1.2-1,2-1.3
			c0.8-0.3,1.7-0.5,2.6-0.5s1.9,0.2,2.6,0.5c0.8,0.3,1.5,0.8,2,1.3c0.6,0.6,1,1.2,1.3,2S319.8,43.8,319.8,44.7z M316.5,44.7
			c0-0.5-0.1-1-0.2-1.5c-0.1-0.5-0.3-0.8-0.6-1.2c-0.3-0.3-0.6-0.6-1-0.8c-0.4-0.2-0.8-0.3-1.3-0.3s-1,0.1-1.3,0.3
			c-0.4,0.2-0.7,0.5-1,0.8c-0.3,0.3-0.5,0.7-0.6,1.2c-0.1,0.5-0.2,0.9-0.2,1.5s0.1,1,0.2,1.5c0.1,0.5,0.3,0.8,0.6,1.2
			c0.3,0.3,0.6,0.6,1,0.8c0.4,0.2,0.8,0.3,1.3,0.3s1-0.1,1.3-0.3c0.4-0.2,0.7-0.5,1-0.8s0.5-0.7,0.6-1.2
			C316.4,45.7,316.5,45.2,316.5,44.7z"/>
		<path class="st1" d="M333.9,47.2c0,0.4-0.1,0.7-0.2,1.1c-0.1,0.4-0.4,0.8-0.7,1.1s-0.7,0.6-1.3,0.8c-0.5,0.2-1.2,0.3-2,0.3h-7.1
			V40.4c0-1.1,0.6-1.7,1.8-1.7h4.8c1.4,0,2.4,0.3,3.1,0.9c0.7,0.6,1,1.4,1,2.4c0,0.6-0.2,1.1-0.5,1.6c-0.3,0.5-0.7,0.8-1.2,1
			c0.2,0,0.4,0.1,0.6,0.2c0.3,0.1,0.5,0.2,0.8,0.4s0.5,0.5,0.6,0.8C333.8,46.3,333.9,46.7,333.9,47.2z M330.1,42.3
			c0-0.1,0-0.3-0.1-0.4c0-0.1-0.1-0.3-0.2-0.4c-0.1-0.1-0.3-0.2-0.4-0.3c-0.2-0.1-0.4-0.1-0.7-0.1h-2.8v2.5h2.8
			c0.5,0,0.9-0.1,1.1-0.4C330,42.8,330.1,42.5,330.1,42.3z M330.6,46.9c0-0.1,0-0.3-0.1-0.4c-0.1-0.1-0.1-0.3-0.3-0.4
			c-0.1-0.1-0.3-0.2-0.5-0.3c-0.2-0.1-0.5-0.1-0.8-0.1h-3.1v2.6h3.1c0.3,0,0.6,0,0.8-0.1c0.2-0.1,0.4-0.2,0.5-0.3
			c0.1-0.1,0.2-0.3,0.3-0.4C330.6,47.2,330.6,47.1,330.6,46.9z"/>
		<path class="st1" d="M347.9,47.2c0,0.4-0.1,0.7-0.2,1.1c-0.1,0.4-0.4,0.8-0.7,1.1s-0.7,0.6-1.3,0.8c-0.5,0.2-1.2,0.3-2,0.3h-7.1
			V40.4c0-1.1,0.6-1.7,1.8-1.7h4.8c1.4,0,2.4,0.3,3.1,0.9c0.7,0.6,1,1.4,1,2.4c0,0.6-0.2,1.1-0.5,1.6c-0.3,0.5-0.7,0.8-1.2,1
			c0.2,0,0.4,0.1,0.6,0.2c0.3,0.1,0.5,0.2,0.8,0.4s0.5,0.5,0.6,0.8C347.8,46.3,347.9,46.7,347.9,47.2z M344.1,42.3
			c0-0.1,0-0.3-0.1-0.4c0-0.1-0.1-0.3-0.2-0.4c-0.1-0.1-0.3-0.2-0.4-0.3c-0.2-0.1-0.4-0.1-0.7-0.1h-2.8v2.5h2.8
			c0.5,0,0.9-0.1,1.1-0.4C344,42.8,344.1,42.5,344.1,42.3z M344.6,46.9c0-0.1,0-0.3-0.1-0.4c-0.1-0.1-0.1-0.3-0.3-0.4
			c-0.1-0.1-0.3-0.2-0.5-0.3c-0.2-0.1-0.5-0.1-0.8-0.1h-3.1v2.6h3.1c0.3,0,0.6,0,0.8-0.1c0.2-0.1,0.4-0.2,0.5-0.3
			c0.1-0.1,0.2-0.3,0.3-0.4C344.6,47.2,344.6,47.1,344.6,46.9z"/>
		<path class="st1" d="M361.7,42.9c0,0.5-0.1,0.9-0.2,1.3c-0.1,0.4-0.3,0.7-0.6,1c-0.3,0.3-0.7,0.5-1.1,0.6
			c-0.5,0.1-1.1,0.2-1.7,0.2h-4.6c0.1,0.6,0.5,1.2,1.1,1.6c0.6,0.4,1.4,0.7,2.4,0.7c1,0,1.7-0.1,2.3-0.2c0.5-0.1,0.9-0.3,1-0.3
			l0.9,2.3c0,0-0.2,0.1-0.4,0.2c-0.2,0.1-0.5,0.2-0.9,0.3c-0.4,0.1-0.9,0.2-1.4,0.3c-0.5,0.1-1.1,0.1-1.8,0.1
			c-0.9,0-1.8-0.1-2.6-0.4c-0.8-0.2-1.5-0.6-2-1.1c-0.6-0.5-1-1.1-1.4-1.9c-0.3-0.8-0.5-1.7-0.5-2.7c0-1,0.2-1.9,0.5-2.6
			c0.3-0.8,0.7-1.5,1.3-2s1.2-1,2-1.3c0.8-0.3,1.6-0.5,2.6-0.5c0.9,0,1.7,0.1,2.3,0.4s1.2,0.6,1.7,1c0.5,0.4,0.8,0.9,1,1.5
			C361.6,41.7,361.7,42.3,361.7,42.9z M358.7,42.6c0-0.2,0-0.4-0.1-0.7s-0.2-0.5-0.4-0.7c-0.2-0.2-0.4-0.4-0.7-0.5
			c-0.3-0.1-0.7-0.2-1.1-0.2c-0.5,0-0.9,0.1-1.3,0.3c-0.4,0.2-0.7,0.5-0.9,0.8c-0.2,0.3-0.4,0.7-0.6,1.1c-0.1,0.4-0.2,0.8-0.2,1.1
			h4.1c0.5,0,0.8-0.1,1-0.3C358.6,43.4,358.7,43.1,358.7,42.6z"/>
		<path class="st1" d="M363.4,47.9h2.2c0.1-0.3,0.2-0.7,0.3-1.1s0.3-0.9,0.4-1.3c0.1-0.4,0.2-0.8,0.3-1.2c0.1-0.4,0.2-0.6,0.2-0.8
			c0.4-1.7,1-2.9,2-3.6c0.9-0.7,2.3-1.1,4-1.1h2.2c0.4,0,0.7,0,0.9,0.1c0.2,0.1,0.4,0.2,0.6,0.4v8.7h1.8v6.8h-3.1v-4.2h-8.7v4.2
			h-3.1V47.9z M369.8,44.3c0,0.1-0.1,0.3-0.2,0.6c-0.1,0.3-0.2,0.6-0.2,0.9c-0.1,0.3-0.2,0.7-0.3,1c-0.1,0.4-0.2,0.7-0.3,1.1h4.5
			v-6.5h-0.5c-0.9,0-1.6,0.2-2,0.7C370.4,42.6,370,43.4,369.8,44.3z"/>
		<path class="st1" d="M391.8,42.9c0,0.5-0.1,0.9-0.2,1.3c-0.1,0.4-0.3,0.7-0.6,1c-0.3,0.3-0.7,0.5-1.1,0.6
			c-0.5,0.1-1.1,0.2-1.7,0.2h-4.6c0.1,0.6,0.5,1.2,1.1,1.6c0.6,0.4,1.4,0.7,2.4,0.7c1,0,1.7-0.1,2.3-0.2c0.5-0.1,0.9-0.3,1-0.3
			l0.9,2.3c0,0-0.2,0.1-0.4,0.2c-0.2,0.1-0.5,0.2-0.9,0.3c-0.4,0.1-0.9,0.2-1.4,0.3c-0.5,0.1-1.1,0.1-1.8,0.1
			c-0.9,0-1.8-0.1-2.6-0.4c-0.8-0.2-1.5-0.6-2-1.1c-0.6-0.5-1-1.1-1.4-1.9c-0.3-0.8-0.5-1.7-0.5-2.7c0-1,0.2-1.9,0.5-2.6
			c0.3-0.8,0.7-1.5,1.3-2s1.2-1,2-1.3c0.8-0.3,1.6-0.5,2.6-0.5c0.9,0,1.7,0.1,2.3,0.4s1.2,0.6,1.7,1c0.5,0.4,0.8,0.9,1,1.5
			C391.7,41.7,391.8,42.3,391.8,42.9z M388.8,42.6c0-0.2,0-0.4-0.1-0.7s-0.2-0.5-0.4-0.7c-0.2-0.2-0.4-0.4-0.7-0.5
			c-0.3-0.1-0.7-0.2-1.1-0.2c-0.5,0-0.9,0.1-1.3,0.3c-0.4,0.2-0.7,0.5-0.9,0.8c-0.2,0.3-0.4,0.7-0.6,1.1c-0.1,0.4-0.2,0.8-0.2,1.1
			h4.1c0.5,0,0.8-0.1,1-0.3C388.7,43.4,388.8,43.1,388.8,42.6z"/>
		<path class="st1" d="M394.6,40.1c0-0.5,0.2-0.9,0.5-1.1s0.7-0.3,1.2-0.3c0.4,0,0.7,0,1,0.1c0.3,0.1,0.5,0.1,0.6,0.2v4.3h4.9v-3.1
			c0-0.5,0.2-0.9,0.5-1.1s0.7-0.3,1.2-0.3c0.4,0,0.7,0,1,0.1c0.3,0.1,0.5,0.1,0.6,0.2v11.5h-3.2v-4.6h-4.9v4.6h-3.2V40.1z"/>
		<path class="st1" d="M415,42.6c0.7-1,1.2-1.7,1.6-2.3c0.4-0.6,0.7-1,0.9-1.1c0.1-0.1,0.3-0.2,0.6-0.3c0.3-0.1,0.6-0.2,1.1-0.2
			c0.6,0,1.1,0.1,1.7,0.3v11.5h-3.2V47c0-0.9,0-1.8,0-2.5c0-0.7,0-1.4,0.1-2.1h0c-0.2,0.3-0.3,0.6-0.6,1c-0.2,0.4-0.5,0.8-0.7,1.2
			s-0.5,0.8-0.7,1.2s-0.4,0.6-0.6,0.8c-0.2,0.3-0.4,0.6-0.6,0.8c-0.2,0.3-0.4,0.6-0.6,0.9c-0.2,0.3-0.4,0.6-0.7,1
			c-0.2,0.4-0.5,0.8-0.8,1.3h-3.1V40.1c0-0.5,0.2-0.9,0.5-1.1c0.3-0.2,0.7-0.3,1.2-0.3c0.4,0,0.7,0,1,0.1c0.3,0.1,0.4,0.1,0.5,0.2
			v2.9c0,0.9,0,1.8,0,2.5c0,0.7-0.1,1.4-0.1,2.1h0c0.2-0.3,0.3-0.6,0.6-0.9c0.2-0.4,0.4-0.7,0.7-1.1c0.2-0.4,0.4-0.7,0.6-1
			C414.7,43.1,414.9,42.8,415,42.6z"/>
		<path class="st1" d="M433.7,50.6h-3.2v-3.9c-0.1,0-0.3,0-0.4,0c-0.1,0-0.3,0-0.5,0c-0.4,0-0.7,0.1-1,0.3c-0.3,0.2-0.6,0.4-0.8,0.7
			c-0.3,0.3-0.5,0.6-0.8,0.9c-0.3,0.3-0.6,0.7-0.9,1c-0.3,0.3-0.7,0.6-1.1,0.8c-0.4,0.2-0.9,0.4-1.4,0.4v-3.2c0.2,0,0.5-0.1,0.7-0.3
			c0.2-0.1,0.4-0.3,0.6-0.5c0.2-0.2,0.4-0.3,0.5-0.5c0.2-0.2,0.3-0.3,0.5-0.4c-0.6-0.3-1.1-0.8-1.4-1.3s-0.5-1.2-0.5-1.9
			c0-1.3,0.4-2.3,1.2-3s1.9-1,3.3-1h3.8c0.4,0,0.7,0,0.9,0.1c0.2,0.1,0.4,0.2,0.6,0.4V50.6z M429.3,44.3c0.2,0,0.4,0,0.6,0
			c0.2,0,0.4,0,0.6-0.1v-3h-2c-0.4,0-0.7,0.1-1,0.4c-0.3,0.3-0.4,0.7-0.4,1.2c0,0.5,0.2,0.9,0.6,1.1
			C427.9,44.1,428.5,44.3,429.3,44.3z"/>
		<path class="st1" d="M453.8,47.2c0,0.4-0.1,0.7-0.2,1.1c-0.1,0.4-0.4,0.8-0.7,1.1s-0.7,0.6-1.3,0.8c-0.5,0.2-1.2,0.3-2,0.3h-7.1
			V40.4c0-1.1,0.6-1.7,1.8-1.7h4.8c1.4,0,2.4,0.3,3.1,0.9c0.7,0.6,1,1.4,1,2.4c0,0.6-0.2,1.1-0.5,1.6c-0.3,0.5-0.7,0.8-1.2,1
			c0.2,0,0.4,0.1,0.6,0.2c0.3,0.1,0.5,0.2,0.8,0.4s0.5,0.5,0.6,0.8C453.7,46.3,453.8,46.7,453.8,47.2z M450,42.3
			c0-0.1,0-0.3-0.1-0.4c0-0.1-0.1-0.3-0.2-0.4c-0.1-0.1-0.3-0.2-0.4-0.3c-0.2-0.1-0.4-0.1-0.7-0.1h-2.8v2.5h2.8
			c0.5,0,0.9-0.1,1.1-0.4C449.9,42.8,450,42.5,450,42.3z M450.5,46.9c0-0.1,0-0.3-0.1-0.4c-0.1-0.1-0.1-0.3-0.3-0.4
			c-0.1-0.1-0.3-0.2-0.5-0.3c-0.2-0.1-0.5-0.1-0.8-0.1h-3.1v2.6h3.1c0.3,0,0.6,0,0.8-0.1c0.2-0.1,0.4-0.2,0.5-0.3
			c0.1-0.1,0.2-0.3,0.3-0.4C450.4,47.2,450.5,47.1,450.5,46.9z"/>
		<path class="st1" d="M468.5,41.4v9.2h-3.2v-9.2h-3.1c-0.5,0-0.9-0.1-1.1-0.3c-0.2-0.2-0.3-0.6-0.3-1c0-0.3,0-0.6,0.1-0.8
			c0.1-0.2,0.2-0.4,0.2-0.5h10.5c0.5,0,0.9,0.1,1.1,0.3c0.2,0.2,0.3,0.6,0.3,1c0,0.3,0,0.6-0.1,0.8c-0.1,0.2-0.2,0.4-0.2,0.5H468.5z
			"/>
		<path class="st1" d="M485.9,50.5c0,0-0.2,0-0.5,0.1s-0.7,0.1-1.2,0.1c-0.5,0-1.1,0.1-1.7,0.1c-0.7,0-1.4,0.1-2.2,0.1
			c-1.1,0-2.1-0.1-2.8-0.3s-1.3-0.5-1.7-0.8c-0.4-0.3-0.7-0.7-0.9-1.2s-0.2-1-0.2-1.5c0-0.7,0.1-1.2,0.3-1.7c0.2-0.5,0.5-0.9,1-1.2
			c0.4-0.3,1-0.6,1.7-0.7c0.7-0.2,1.6-0.2,2.6-0.2c0.7,0,1.3,0,1.7,0.1s0.7,0.1,0.8,0.1V43c0-0.7-0.2-1.3-0.7-1.7
			c-0.5-0.4-1.3-0.6-2.3-0.6c-0.5,0-0.9,0-1.2,0.1c-0.4,0.1-0.7,0.2-0.9,0.3s-0.5,0.2-0.6,0.3c-0.2,0.1-0.3,0.2-0.4,0.3
			c-0.2-0.1-0.4-0.3-0.6-0.6c-0.2-0.3-0.3-0.6-0.3-0.9c0-0.3,0.1-0.6,0.3-0.9c0.2-0.2,0.5-0.4,0.9-0.6c0.4-0.1,0.8-0.3,1.3-0.3
			c0.5-0.1,1-0.1,1.4-0.1c0.9,0,1.8,0.1,2.6,0.2c0.8,0.2,1.5,0.4,2,0.8c0.6,0.4,1,0.9,1.3,1.6c0.3,0.7,0.5,1.5,0.5,2.5V50.5z
			 M482.7,45.4c0,0-0.1,0-0.3,0c-0.1,0-0.3,0-0.5,0c-0.2,0-0.4,0-0.7,0s-0.5,0-0.7,0c-0.6,0-1,0-1.4,0.1c-0.4,0.1-0.6,0.2-0.8,0.4
			c-0.2,0.2-0.3,0.4-0.4,0.6c-0.1,0.2-0.1,0.5-0.1,0.7c0,0.2,0,0.4,0.1,0.6c0.1,0.2,0.2,0.4,0.4,0.5s0.5,0.3,0.8,0.4
			s0.8,0.2,1.4,0.2c0.6,0,1.1,0,1.5-0.1s0.6-0.1,0.8-0.1V45.4z"/>
		<path class="st1" d="M500.3,47.8c0-0.9-0.1-1.8-0.1-2.7s0-1.8,0-2.9h-0.1c-0.3,0.9-0.7,1.9-1.2,3s-1,2.2-1.6,3.3h-1.9
			c-0.6-1.2-1.1-2.3-1.6-3.3s-0.9-2-1.2-3h-0.1c0,1.1,0,2.1,0,2.9c0,0.9,0,1.7-0.1,2.7c0,0.5-0.1,1-0.1,1.4c0,0.5-0.1,0.9-0.1,1.3
			h-3.1c0.1-1.7,0.2-3.4,0.3-5.1c0.1-1.7,0.2-3.4,0.3-5.1c0-0.6,0.2-1,0.5-1.2c0.3-0.3,0.8-0.4,1.3-0.4c0.5,0,0.9,0.1,1.2,0.2
			c0.3,0.1,0.6,0.2,0.7,0.2c0.3,0.6,0.5,1.2,0.8,1.6c0.2,0.5,0.4,0.9,0.6,1.3c0.2,0.4,0.4,0.8,0.6,1.3s0.5,1,0.8,1.5h0
			c0.3-0.6,0.5-1,0.8-1.5c0.2-0.4,0.4-0.8,0.6-1.2c0.2-0.4,0.3-0.7,0.5-1.1c0.2-0.4,0.3-0.7,0.5-1.2c0.1-0.3,0.2-0.5,0.4-0.6
			c0.1-0.2,0.3-0.3,0.4-0.4c0.1-0.1,0.3-0.2,0.5-0.2c0.2,0,0.4,0,0.7,0c0.5,0,1,0.1,1.3,0.2c0.3,0.1,0.6,0.2,0.7,0.3
			c0.1,2,0.2,4,0.3,5.8s0.2,3.7,0.3,5.5h-3.1c0-0.3-0.1-0.7-0.1-1.2S500.3,48.4,500.3,47.8z"/>
		<path class="st1" d="M519.1,44.7c0,0.9-0.2,1.7-0.5,2.5s-0.7,1.4-1.3,2s-1.2,1-2,1.3c-0.8,0.3-1.7,0.5-2.6,0.5s-1.9-0.2-2.6-0.5
			c-0.8-0.3-1.5-0.8-2-1.3s-1-1.2-1.3-2s-0.5-1.6-0.5-2.5c0-0.9,0.2-1.7,0.5-2.5s0.7-1.4,1.3-2c0.6-0.6,1.2-1,2-1.3
			c0.8-0.3,1.7-0.5,2.6-0.5s1.9,0.2,2.6,0.5c0.8,0.3,1.5,0.8,2,1.3c0.6,0.6,1,1.2,1.3,2S519.1,43.8,519.1,44.7z M515.8,44.7
			c0-0.5-0.1-1-0.2-1.5c-0.1-0.5-0.3-0.8-0.6-1.2c-0.3-0.3-0.6-0.6-1-0.8c-0.4-0.2-0.8-0.3-1.3-0.3s-1,0.1-1.3,0.3
			c-0.4,0.2-0.7,0.5-1,0.8c-0.3,0.3-0.5,0.7-0.6,1.2c-0.1,0.5-0.2,0.9-0.2,1.5s0.1,1,0.2,1.5c0.1,0.5,0.3,0.8,0.6,1.2
			c0.3,0.3,0.6,0.6,1,0.8c0.4,0.2,0.8,0.3,1.3,0.3s1-0.1,1.3-0.3c0.4-0.2,0.7-0.5,1-0.8s0.5-0.7,0.6-1.2
			C515.8,45.7,515.8,45.2,515.8,44.7z"/>
		<path class="st1" d="M537.7,51c-0.4,0-0.8-0.1-1.2-0.3c-0.4-0.2-0.7-0.4-1.1-0.7c-0.4-0.3-0.7-0.6-1-0.9s-0.6-0.7-0.9-1
			c-0.4-0.5-0.8-1-1.2-1.4s-0.8-0.7-1.3-0.8v4.7h-3.2v-4.7c-0.4,0.1-0.9,0.3-1.3,0.8s-0.8,0.9-1.2,1.4c-0.3,0.3-0.6,0.7-0.9,1
			s-0.7,0.7-1,0.9c-0.4,0.3-0.7,0.5-1.1,0.7c-0.4,0.2-0.8,0.3-1.2,0.3v-3c0.2,0,0.4-0.2,0.6-0.3c0.2-0.2,0.4-0.4,0.6-0.6
			c0.2-0.2,0.4-0.4,0.6-0.7c0.2-0.2,0.3-0.4,0.5-0.5c0.3-0.3,0.6-0.6,1-0.7c0.4-0.2,0.8-0.3,1.1-0.5v0c-0.6-0.2-1.1-0.4-1.6-0.8
			s-0.8-0.7-1.1-1.2c-0.1-0.2-0.3-0.5-0.5-0.8c-0.2-0.3-0.3-0.5-0.5-0.8c-0.2-0.2-0.4-0.5-0.6-0.6c-0.2-0.2-0.5-0.3-0.7-0.4
			c0-0.1,0.1-0.2,0.1-0.4c0.1-0.2,0.2-0.3,0.3-0.5s0.3-0.3,0.5-0.4c0.2-0.1,0.5-0.2,0.8-0.2c0.4,0,0.7,0.1,1,0.2
			c0.3,0.1,0.5,0.3,0.8,0.6c0.2,0.2,0.4,0.5,0.6,0.8c0.2,0.3,0.4,0.6,0.5,0.9c0.4,0.6,0.7,1.2,1.2,1.7c0.4,0.5,0.9,0.8,1.3,0.9v-3.5
			c0-0.5,0.2-0.9,0.5-1.1s0.7-0.3,1.2-0.3c0.4,0,0.7,0,1,0.1c0.3,0.1,0.5,0.1,0.6,0.2v4.6c0.5-0.1,0.9-0.4,1.3-0.9
			c0.4-0.5,0.8-1.1,1.2-1.7c0.2-0.3,0.3-0.6,0.5-0.9c0.2-0.3,0.4-0.6,0.6-0.8c0.2-0.2,0.5-0.4,0.8-0.6c0.3-0.1,0.6-0.2,1-0.2
			c0.3,0,0.6,0.1,0.8,0.2c0.2,0.1,0.4,0.3,0.5,0.4s0.2,0.3,0.3,0.5c0.1,0.2,0.1,0.3,0.1,0.4c-0.3,0.1-0.5,0.2-0.7,0.4
			c-0.2,0.2-0.4,0.4-0.6,0.6c-0.2,0.2-0.4,0.5-0.5,0.8c-0.2,0.3-0.3,0.5-0.5,0.8c-0.3,0.4-0.6,0.8-1.1,1.2s-1,0.6-1.6,0.8v0
			c0.4,0.1,0.7,0.3,1.1,0.5c0.4,0.2,0.7,0.4,1,0.7c0.1,0.1,0.3,0.3,0.5,0.5c0.2,0.2,0.4,0.4,0.6,0.7c0.2,0.2,0.4,0.4,0.6,0.6
			s0.4,0.3,0.6,0.3V51z"/>
		<path class="st1" d="M551.3,42.9c0,0.5-0.1,0.9-0.2,1.3c-0.1,0.4-0.3,0.7-0.6,1c-0.3,0.3-0.7,0.5-1.1,0.6
			c-0.5,0.1-1.1,0.2-1.7,0.2H543c0.1,0.6,0.5,1.2,1.1,1.6c0.6,0.4,1.4,0.7,2.4,0.7c1,0,1.7-0.1,2.3-0.2c0.5-0.1,0.9-0.3,1-0.3
			l0.9,2.3c0,0-0.2,0.1-0.4,0.2c-0.2,0.1-0.5,0.2-0.9,0.3c-0.4,0.1-0.9,0.2-1.4,0.3c-0.5,0.1-1.1,0.1-1.8,0.1
			c-0.9,0-1.8-0.1-2.6-0.4c-0.8-0.2-1.5-0.6-2-1.1c-0.6-0.5-1-1.1-1.4-1.9c-0.3-0.8-0.5-1.7-0.5-2.7c0-1,0.2-1.9,0.5-2.6
			c0.3-0.8,0.7-1.5,1.3-2s1.2-1,2-1.3c0.8-0.3,1.6-0.5,2.6-0.5c0.9,0,1.7,0.1,2.3,0.4s1.2,0.6,1.7,1c0.5,0.4,0.8,0.9,1,1.5
			C551.2,41.7,551.3,42.3,551.3,42.9z M548.3,42.6c0-0.2,0-0.4-0.1-0.7s-0.2-0.5-0.4-0.7c-0.2-0.2-0.4-0.4-0.7-0.5
			c-0.3-0.1-0.7-0.2-1.1-0.2c-0.5,0-0.9,0.1-1.3,0.3c-0.4,0.2-0.7,0.5-0.9,0.8c-0.2,0.3-0.4,0.7-0.6,1.1c-0.1,0.4-0.2,0.8-0.2,1.1
			h4.1c0.5,0,0.8-0.1,1-0.3C548.2,43.4,548.3,43.1,548.3,42.6z"/>
		<path class="st1" d="M554.1,40.1c0-0.5,0.2-0.9,0.5-1.1s0.7-0.3,1.2-0.3c0.4,0,0.7,0,1,0.1c0.3,0.1,0.5,0.1,0.6,0.2v4.3h4.9v-3.1
			c0-0.5,0.2-0.9,0.5-1.1s0.7-0.3,1.2-0.3c0.4,0,0.7,0,1,0.1c0.3,0.1,0.5,0.1,0.6,0.2v11.5h-3.2v-4.6h-4.9v4.6h-3.2V40.1z"/>
		<path class="st1" d="M569,40.1c0-0.5,0.2-0.9,0.5-1.1s0.7-0.3,1.2-0.3c0.4,0,0.7,0,1,0.1c0.3,0.1,0.5,0.1,0.6,0.2v4.3h4.9v-3.1
			c0-0.5,0.2-0.9,0.5-1.1s0.7-0.3,1.2-0.3c0.4,0,0.7,0,1,0.1c0.3,0.1,0.5,0.1,0.6,0.2v11.5h-3.2v-4.6h-4.9v4.6H569V40.1z"/>
		<path class="st1" d="M596.2,44.7c0,0.9-0.2,1.7-0.5,2.5s-0.7,1.4-1.3,2s-1.2,1-2,1.3c-0.8,0.3-1.7,0.5-2.6,0.5s-1.9-0.2-2.6-0.5
			c-0.8-0.3-1.5-0.8-2-1.3s-1-1.2-1.3-2s-0.5-1.6-0.5-2.5c0-0.9,0.2-1.7,0.5-2.5s0.7-1.4,1.3-2c0.6-0.6,1.2-1,2-1.3
			c0.8-0.3,1.7-0.5,2.6-0.5s1.9,0.2,2.6,0.5c0.8,0.3,1.5,0.8,2,1.3c0.6,0.6,1,1.2,1.3,2S596.2,43.8,596.2,44.7z M592.9,44.7
			c0-0.5-0.1-1-0.2-1.5c-0.1-0.5-0.3-0.8-0.6-1.2c-0.3-0.3-0.6-0.6-1-0.8c-0.4-0.2-0.8-0.3-1.3-0.3s-1,0.1-1.3,0.3
			c-0.4,0.2-0.7,0.5-1,0.8c-0.3,0.3-0.5,0.7-0.6,1.2c-0.1,0.5-0.2,0.9-0.2,1.5s0.1,1,0.2,1.5c0.1,0.5,0.3,0.8,0.6,1.2
			c0.3,0.3,0.6,0.6,1,0.8c0.4,0.2,0.8,0.3,1.3,0.3s1-0.1,1.3-0.3c0.4-0.2,0.7-0.5,1-0.8s0.5-0.7,0.6-1.2
			C592.9,45.7,592.9,45.2,592.9,44.7z"/>
		<path class="st1" d="M610,47.8c0-0.9-0.1-1.8-0.1-2.7s0-1.8,0-2.9h-0.1c-0.3,0.9-0.7,1.9-1.2,3s-1,2.2-1.6,3.3h-1.9
			c-0.6-1.2-1.1-2.3-1.6-3.3s-0.9-2-1.2-3h-0.1c0,1.1,0,2.1,0,2.9c0,0.9,0,1.7-0.1,2.7c0,0.5-0.1,1-0.1,1.4c0,0.5-0.1,0.9-0.1,1.3
			H599c0.1-1.7,0.2-3.4,0.3-5.1c0.1-1.7,0.2-3.4,0.3-5.1c0-0.6,0.2-1,0.5-1.2c0.3-0.3,0.8-0.4,1.3-0.4c0.5,0,0.9,0.1,1.2,0.2
			c0.3,0.1,0.6,0.2,0.7,0.2c0.3,0.6,0.5,1.2,0.8,1.6c0.2,0.5,0.4,0.9,0.6,1.3c0.2,0.4,0.4,0.8,0.6,1.3s0.5,1,0.8,1.5h0
			c0.3-0.6,0.5-1,0.8-1.5c0.2-0.4,0.4-0.8,0.6-1.2c0.2-0.4,0.3-0.7,0.5-1.1c0.2-0.4,0.3-0.7,0.5-1.2c0.1-0.3,0.2-0.5,0.4-0.6
			c0.1-0.2,0.3-0.3,0.4-0.4c0.1-0.1,0.3-0.2,0.5-0.2c0.2,0,0.4,0,0.7,0c0.5,0,1,0.1,1.3,0.2c0.3,0.1,0.6,0.2,0.7,0.3
			c0.1,2,0.2,4,0.3,5.8s0.2,3.7,0.3,5.5h-3.1c0-0.3-0.1-0.7-0.1-1.2S610.1,48.4,610,47.8z"/>
		<path class="st28" d="M260.8,67.3c0.1,0,0.2-0.1,0.5-0.3c0.3-0.1,0.6-0.3,1.1-0.4c0.4-0.1,1-0.3,1.6-0.4s1.4-0.2,2.2-0.2
			c1,0,2,0.2,2.8,0.5s1.5,0.8,2.1,1.3c0.6,0.6,1,1.3,1.3,2.1c0.3,0.8,0.5,1.7,0.5,2.7c0,1-0.1,1.8-0.4,2.5c-0.3,0.7-0.7,1.3-1.2,1.8
			s-1.1,0.9-1.7,1.1c-0.7,0.2-1.4,0.4-2.1,0.4c-0.5,0-1-0.1-1.4-0.2s-0.8-0.2-1-0.3c-0.3-0.1-0.5-0.3-0.7-0.4s-0.2-0.2-0.3-0.3V83
			h-3.2V67.3z M269.6,72.4c0-0.5-0.1-0.9-0.2-1.4s-0.3-0.8-0.6-1.2c-0.3-0.3-0.6-0.6-1-0.8s-0.9-0.3-1.4-0.3c-0.7,0-1.3,0.1-1.6,0.2
			c-0.3,0.1-0.5,0.2-0.6,0.2v5.3c0.1,0.1,0.2,0.3,0.3,0.4c0.1,0.2,0.3,0.3,0.5,0.5c0.2,0.1,0.5,0.3,0.8,0.4c0.3,0.1,0.7,0.2,1.1,0.2
			c0.9,0,1.6-0.3,2.1-0.9C269.3,74.3,269.6,73.4,269.6,72.4z"/>
		<path class="st28" d="M286.9,70.7c0,0.5-0.1,0.9-0.2,1.3c-0.1,0.4-0.3,0.7-0.6,1c-0.3,0.3-0.7,0.5-1.1,0.6
			c-0.5,0.1-1.1,0.2-1.7,0.2h-4.6c0.1,0.6,0.5,1.2,1.1,1.6c0.6,0.4,1.4,0.7,2.4,0.7c1,0,1.7-0.1,2.3-0.2c0.5-0.1,0.9-0.3,1-0.3
			l0.9,2.3c0,0-0.2,0.1-0.4,0.2c-0.2,0.1-0.5,0.2-0.9,0.3c-0.4,0.1-0.9,0.2-1.4,0.3c-0.5,0.1-1.1,0.1-1.8,0.1
			c-0.9,0-1.8-0.1-2.6-0.4c-0.8-0.2-1.5-0.6-2-1.1c-0.6-0.5-1-1.1-1.4-1.9c-0.3-0.8-0.5-1.7-0.5-2.7c0-1,0.2-1.9,0.5-2.6
			c0.3-0.8,0.7-1.5,1.3-2s1.2-1,2-1.3c0.8-0.3,1.6-0.5,2.6-0.5c0.9,0,1.7,0.1,2.3,0.4s1.2,0.6,1.7,1c0.5,0.4,0.8,0.9,1,1.5
			C286.8,69.5,286.9,70.1,286.9,70.7z M283.9,70.4c0-0.2,0-0.4-0.1-0.7s-0.2-0.5-0.4-0.7c-0.2-0.2-0.4-0.4-0.7-0.5
			c-0.3-0.1-0.7-0.2-1.1-0.2c-0.5,0-0.9,0.1-1.3,0.3c-0.4,0.2-0.7,0.5-0.9,0.8c-0.2,0.3-0.4,0.7-0.6,1.1c-0.1,0.4-0.2,0.8-0.2,1.1
			h4.1c0.5,0,0.8-0.1,1-0.3C283.8,71.2,283.9,70.8,283.9,70.4z"/>
		<path class="st28" d="M293,69.2v9.2h-3.2V68.2c0-1.1,0.6-1.7,1.8-1.7h6.2c0.5,0,0.9,0.1,1.1,0.3c0.2,0.2,0.3,0.6,0.3,1
			c0,0.3,0,0.6-0.1,0.8c-0.1,0.2-0.2,0.4-0.2,0.5H293z"/>
		<path class="st28" d="M309.5,67.9c0.2-0.4,0.4-0.7,0.6-1c0.2-0.3,0.6-0.4,1.2-0.4c0.5,0,0.9,0.1,1.2,0.3c0.3,0.2,0.5,0.3,0.5,0.4
			c-0.1,0.4-0.3,0.8-0.5,1.3c-0.2,0.5-0.4,1.1-0.7,1.6c-0.2,0.6-0.5,1.2-0.8,1.7c-0.3,0.6-0.5,1.1-0.7,1.6c-0.4,1-0.9,2-1.4,3
			c-0.5,1-1,1.9-1.6,2.9c-0.3,0.5-0.5,0.9-0.8,1.3c-0.3,0.4-0.6,0.8-1,1.1c-0.4,0.3-0.8,0.6-1.3,0.8s-1.1,0.3-1.7,0.3
			c-0.4,0-0.7,0-1.1-0.1s-0.6-0.1-0.9-0.2c-0.2-0.1-0.4-0.2-0.6-0.2s-0.2-0.1-0.3-0.2l0.9-2.3c0.1,0,0.3,0.1,0.6,0.2
			c0.3,0.1,0.6,0.1,1,0.1c0.5,0,0.9-0.1,1.2-0.4s0.7-0.7,1-1.3l0.7-1.3c-0.3-0.4-0.6-0.9-0.9-1.4s-0.6-1.1-0.9-1.6
			c-0.3-0.6-0.6-1.1-0.9-1.6s-0.6-1-0.8-1.5c-0.2-0.4-0.5-0.8-0.6-1.1c-0.2-0.3-0.3-0.5-0.3-0.6c-0.1-0.2-0.2-0.5-0.3-0.7
			s-0.1-0.4-0.1-0.7c0-0.2,0-0.4,0.1-0.5c0.1-0.2,0.1-0.3,0.3-0.5c0.1-0.1,0.3-0.3,0.5-0.3c0.2-0.1,0.5-0.1,0.8-0.1
			c0.5,0,0.8,0,1.1,0.1c0.2,0.1,0.4,0.1,0.4,0.2c0,0.1,0.2,0.4,0.4,0.9s0.5,1.1,0.9,1.8s0.7,1.4,1.1,2.2c0.4,0.8,0.8,1.5,1.1,2.2
			c0.3-0.6,0.6-1.3,0.8-2c0.3-0.7,0.5-1.3,0.8-1.8s0.4-1,0.6-1.4C309.3,68.4,309.4,68.1,309.5,67.9z"/>
		<path class="st28" d="M313.5,75.7c0.2-0.1,0.5-0.2,0.7-0.4c0.2-0.2,0.4-0.5,0.6-1c0.1-0.4,0.3-0.9,0.4-1.5
			c0.1-0.6,0.2-1.1,0.3-1.5c0.4-1.7,1-2.9,2-3.6c1-0.7,2.3-1.1,4-1.1h2.5c0.4,0,0.7,0,0.9,0.1c0.2,0.1,0.4,0.2,0.6,0.4v11.3h-3.2
			v-9.2h-0.7c-0.9,0-1.6,0.2-2,0.7c-0.4,0.5-0.7,1.2-1,2.2c-0.1,0.4-0.2,1-0.4,1.6c-0.1,0.6-0.3,1.3-0.5,1.9c-0.3,1-0.8,1.7-1.5,2.2
			c-0.6,0.5-1.5,0.8-2.7,0.9V75.7z"/>
		<path class="st28" d="M334.4,70.4c0.7-1,1.2-1.7,1.6-2.3c0.4-0.6,0.7-1,0.9-1.1c0.1-0.1,0.3-0.2,0.6-0.3c0.3-0.1,0.6-0.2,1.1-0.2
			c0.6,0,1.1,0.1,1.7,0.3v11.5h-3.2v-3.6c0-0.9,0-1.8,0-2.5c0-0.7,0-1.4,0.1-2.1h0c-0.2,0.3-0.3,0.6-0.6,1c-0.2,0.4-0.5,0.8-0.7,1.2
			s-0.5,0.8-0.7,1.2s-0.4,0.6-0.6,0.8c-0.2,0.3-0.4,0.6-0.6,0.8c-0.2,0.3-0.4,0.6-0.6,0.9c-0.2,0.3-0.4,0.6-0.7,1
			c-0.2,0.4-0.5,0.8-0.8,1.3H329V67.9c0-0.5,0.2-0.9,0.5-1.1c0.3-0.2,0.7-0.3,1.2-0.3c0.4,0,0.7,0,1,0.1c0.3,0.1,0.4,0.1,0.5,0.2
			v2.9c0,0.9,0,1.8,0,2.5c0,0.7-0.1,1.4-0.1,2.1h0c0.2-0.3,0.3-0.6,0.6-0.9c0.2-0.4,0.4-0.7,0.7-1.1c0.2-0.4,0.4-0.7,0.6-1
			C334.1,70.9,334.3,70.6,334.4,70.4z"/>
		<path class="st28" d="M343.9,67.3c0.1,0,0.2-0.1,0.5-0.3c0.3-0.1,0.6-0.3,1.1-0.4c0.4-0.1,1-0.3,1.6-0.4s1.4-0.2,2.2-0.2
			c1,0,2,0.2,2.8,0.5s1.5,0.8,2.1,1.3c0.6,0.6,1,1.3,1.3,2.1c0.3,0.8,0.5,1.7,0.5,2.7c0,1-0.1,1.8-0.4,2.5c-0.3,0.7-0.7,1.3-1.2,1.8
			s-1.1,0.9-1.7,1.1c-0.7,0.2-1.4,0.4-2.1,0.4c-0.5,0-1-0.1-1.4-0.2s-0.8-0.2-1-0.3c-0.3-0.1-0.5-0.3-0.7-0.4s-0.2-0.2-0.3-0.3V83
			h-3.2V67.3z M352.7,72.4c0-0.5-0.1-0.9-0.2-1.4s-0.3-0.8-0.6-1.2c-0.3-0.3-0.6-0.6-1-0.8s-0.9-0.3-1.4-0.3c-0.7,0-1.3,0.1-1.6,0.2
			c-0.3,0.1-0.5,0.2-0.6,0.2v5.3c0.1,0.1,0.2,0.3,0.3,0.4c0.1,0.2,0.3,0.3,0.5,0.5c0.2,0.1,0.5,0.3,0.8,0.4c0.3,0.1,0.7,0.2,1.1,0.2
			c0.9,0,1.6-0.3,2.1-0.9C352.4,74.3,352.7,73.4,352.7,72.4z"/>
		<path class="st28" d="M371.2,72.4c0,0.9-0.2,1.7-0.5,2.5s-0.7,1.4-1.3,2s-1.2,1-2,1.3c-0.8,0.3-1.7,0.5-2.6,0.5s-1.9-0.2-2.6-0.5
			c-0.8-0.3-1.5-0.8-2-1.3s-1-1.2-1.3-2s-0.5-1.6-0.5-2.5c0-0.9,0.2-1.7,0.5-2.5s0.7-1.4,1.3-2c0.6-0.6,1.2-1,2-1.3
			c0.8-0.3,1.7-0.5,2.6-0.5s1.9,0.2,2.6,0.5c0.8,0.3,1.5,0.8,2,1.3c0.6,0.6,1,1.2,1.3,2S371.2,71.6,371.2,72.4z M367.9,72.4
			c0-0.5-0.1-1-0.2-1.5c-0.1-0.5-0.3-0.8-0.6-1.2c-0.3-0.3-0.6-0.6-1-0.8c-0.4-0.2-0.8-0.3-1.3-0.3s-1,0.1-1.3,0.3
			c-0.4,0.2-0.7,0.5-1,0.8c-0.3,0.3-0.5,0.7-0.6,1.2c-0.1,0.5-0.2,0.9-0.2,1.5s0.1,1,0.2,1.5c0.1,0.5,0.3,0.8,0.6,1.2
			c0.3,0.3,0.6,0.6,1,0.8c0.4,0.2,0.8,0.3,1.3,0.3s1-0.1,1.3-0.3c0.4-0.2,0.7-0.5,1-0.8s0.5-0.7,0.6-1.2
			C367.8,73.5,367.9,73,367.9,72.4z"/>
		<path class="st28" d="M385.3,75c0,0.4-0.1,0.7-0.2,1.1c-0.1,0.4-0.4,0.8-0.7,1.1s-0.7,0.6-1.3,0.8c-0.5,0.2-1.2,0.3-2,0.3h-7.1
			V68.2c0-1.1,0.6-1.7,1.8-1.7h4.8c1.4,0,2.4,0.3,3.1,0.9c0.7,0.6,1,1.4,1,2.4c0,0.6-0.2,1.1-0.5,1.6c-0.3,0.5-0.7,0.8-1.2,1
			c0.2,0,0.4,0.1,0.6,0.2c0.3,0.1,0.5,0.2,0.8,0.4s0.5,0.5,0.6,0.8C385.2,74.1,385.3,74.5,385.3,75z M381.5,70.1
			c0-0.1,0-0.3-0.1-0.4c0-0.1-0.1-0.3-0.2-0.4c-0.1-0.1-0.3-0.2-0.4-0.3c-0.2-0.1-0.4-0.1-0.7-0.1h-2.8v2.5h2.8
			c0.5,0,0.9-0.1,1.1-0.4C381.4,70.6,381.5,70.3,381.5,70.1z M382,74.7c0-0.1,0-0.3-0.1-0.4c-0.1-0.1-0.1-0.3-0.3-0.4
			c-0.1-0.1-0.3-0.2-0.5-0.3c-0.2-0.1-0.5-0.1-0.8-0.1h-3.1v2.6h3.1c0.3,0,0.6,0,0.8-0.1c0.2-0.1,0.4-0.2,0.5-0.3
			c0.1-0.1,0.2-0.3,0.3-0.4C382,75,382,74.9,382,74.7z"/>
		<path class="st28" d="M398.6,78.3c0,0-0.2,0-0.5,0.1s-0.7,0.1-1.2,0.1c-0.5,0-1.1,0.1-1.7,0.1c-0.7,0-1.4,0.1-2.2,0.1
			c-1.1,0-2.1-0.1-2.8-0.3s-1.3-0.5-1.7-0.8c-0.4-0.3-0.7-0.7-0.9-1.2s-0.2-1-0.2-1.5c0-0.7,0.1-1.2,0.3-1.7c0.2-0.5,0.5-0.9,1-1.2
			c0.4-0.3,1-0.6,1.7-0.7c0.7-0.2,1.6-0.2,2.6-0.2c0.7,0,1.3,0,1.7,0.1s0.7,0.1,0.8,0.1v-0.4c0-0.7-0.2-1.3-0.7-1.7
			c-0.5-0.4-1.3-0.6-2.3-0.6c-0.5,0-0.9,0-1.2,0.1c-0.4,0.1-0.7,0.2-0.9,0.3s-0.5,0.2-0.6,0.3c-0.2,0.1-0.3,0.2-0.4,0.3
			c-0.2-0.1-0.4-0.3-0.6-0.6c-0.2-0.3-0.3-0.6-0.3-0.9c0-0.3,0.1-0.6,0.3-0.9c0.2-0.2,0.5-0.4,0.9-0.6c0.4-0.1,0.8-0.3,1.3-0.3
			c0.5-0.1,1-0.1,1.4-0.1c0.9,0,1.8,0.1,2.6,0.2c0.8,0.2,1.5,0.4,2,0.8c0.6,0.4,1,0.9,1.3,1.6c0.3,0.7,0.5,1.5,0.5,2.5V78.3z
			 M395.4,73.2c0,0-0.1,0-0.3,0c-0.1,0-0.3,0-0.5,0c-0.2,0-0.4,0-0.7,0s-0.5,0-0.7,0c-0.6,0-1,0-1.4,0.1c-0.4,0.1-0.6,0.2-0.8,0.4
			c-0.2,0.2-0.3,0.4-0.4,0.6c-0.1,0.2-0.1,0.5-0.1,0.7c0,0.2,0,0.4,0.1,0.6c0.1,0.2,0.2,0.4,0.4,0.5s0.5,0.3,0.8,0.4
			s0.8,0.2,1.4,0.2c0.6,0,1.1,0,1.5-0.1s0.6-0.1,0.8-0.1V73.2z"/>
		<path class="st28" d="M402,67.9c0-0.5,0.2-0.9,0.5-1.1s0.7-0.3,1.2-0.3c0.4,0,0.7,0,1,0.1c0.3,0.1,0.5,0.1,0.6,0.2v4.3h4.9v-3.1
			c0-0.5,0.2-0.9,0.5-1.1s0.7-0.3,1.2-0.3c0.4,0,0.7,0,1,0.1c0.3,0.1,0.5,0.1,0.6,0.2v11.5h-3.2v-4.6h-4.9v4.6H402V67.9z"/>
		<path class="st28" d="M422.5,70.4c0.7-1,1.2-1.7,1.6-2.3c0.4-0.6,0.7-1,0.9-1.1c0.1-0.1,0.3-0.2,0.6-0.3c0.3-0.1,0.6-0.2,1.1-0.2
			c0.6,0,1.1,0.1,1.7,0.3v11.5h-3.2v-3.6c0-0.9,0-1.8,0-2.5c0-0.7,0-1.4,0.1-2.1h0c-0.2,0.3-0.3,0.6-0.6,1c-0.2,0.4-0.5,0.8-0.7,1.2
			s-0.5,0.8-0.7,1.2s-0.4,0.6-0.6,0.8c-0.2,0.3-0.4,0.6-0.6,0.8c-0.2,0.3-0.4,0.6-0.6,0.9c-0.2,0.3-0.4,0.6-0.7,1
			c-0.2,0.4-0.5,0.8-0.8,1.3H417V67.9c0-0.5,0.2-0.9,0.5-1.1c0.3-0.2,0.7-0.3,1.2-0.3c0.4,0,0.7,0,1,0.1c0.3,0.1,0.4,0.1,0.5,0.2
			v2.9c0,0.9,0,1.8,0,2.5c0,0.7-0.1,1.4-0.1,2.1h0c0.2-0.3,0.3-0.6,0.6-0.9c0.2-0.4,0.4-0.7,0.7-1.1c0.2-0.4,0.4-0.7,0.6-1
			C422.2,70.9,422.3,70.6,422.5,70.4z"/>
		<path class="st28" d="M437.4,70.4c0.7-1,1.2-1.7,1.6-2.3c0.4-0.6,0.7-1,0.9-1.1c0.1-0.1,0.3-0.2,0.6-0.3c0.3-0.1,0.6-0.2,1.1-0.2
			c0.6,0,1.1,0.1,1.7,0.3v11.5h-3.2v-3.6c0-0.9,0-1.8,0-2.5c0-0.7,0-1.4,0.1-2.1h0c-0.2,0.3-0.3,0.6-0.6,1c-0.2,0.4-0.5,0.8-0.7,1.2
			s-0.5,0.8-0.7,1.2s-0.4,0.6-0.6,0.8c-0.2,0.3-0.4,0.6-0.6,0.8c-0.2,0.3-0.4,0.6-0.6,0.9c-0.2,0.3-0.4,0.6-0.7,1
			c-0.2,0.4-0.5,0.8-0.8,1.3h-3.1V67.9c0-0.5,0.2-0.9,0.5-1.1c0.3-0.2,0.7-0.3,1.2-0.3c0.4,0,0.7,0,1,0.1c0.3,0.1,0.4,0.1,0.5,0.2
			v2.9c0,0.9,0,1.8,0,2.5c0,0.7-0.1,1.4-0.1,2.1h0c0.2-0.3,0.3-0.6,0.6-0.9c0.2-0.4,0.4-0.7,0.7-1.1c0.2-0.4,0.4-0.7,0.6-1
			C437.1,70.9,437.3,70.6,437.4,70.4z"/>
		<path class="st28" d="M450.2,76.8c0,0.6-0.2,1-0.6,1.4s-0.9,0.6-1.4,0.6c-0.6,0-1-0.2-1.4-0.6s-0.6-0.9-0.6-1.4
			c0-0.6,0.2-1,0.6-1.4s0.9-0.6,1.4-0.6c0.6,0,1,0.2,1.4,0.6S450.2,76.2,450.2,76.8z M446.6,63.8c0-0.5,0.2-0.9,0.5-1.1
			c0.3-0.2,0.7-0.3,1.2-0.3c0.4,0,0.7,0,1,0.1c0.3,0.1,0.5,0.1,0.6,0.2v10.4h-3.2V63.8z"/>
	</g>
</g>
<g>
	<path class="st3" d="M514.6,293.2c6.5,8.9,1.4,16.1-19.3,36.6c-17.9,17.7-42.2,19.7-48.6,10.8c-6.5-8.9,1.8-33.6,25.2-42.9
		C496.9,287.9,508.1,284.4,514.6,293.2z"/>
	<g>
		<g>
			<polygon class="st4" points="307.1,218.7 405.8,275.7 310.6,330.7 211.9,273.7 			"/>
			<polygon class="st5" points="310.6,219.6 215.2,164.5 215.2,274 310.6,329.2 			"/>
			<polygon class="st6" points="402.6,276 310.6,329.2 310.6,219.6 402.6,166.4 			"/>
			<g>
				<g>
					<path class="st7" d="M334.8,285l-17.5,10.1l0,20.2l17.5-10.1L334.8,285z M318,314v-18.4l16-9.2l0,18.4L318,314z"/>
					<polygon class="st7" points="323.1,307 324.6,306.2 324.6,296.4 325.4,295.9 323.9,293.4 322.4,297.7 323.1,297.2 					"/>
					<polygon class="st7" points="322.4,310.1 329.7,305.9 329.7,304.1 322.4,308.3 					"/>
					<polygon class="st7" points="326.7,295.2 327.4,294.8 327.4,304.6 328.9,303.7 328.9,293.9 329.7,293.4 328.2,290.9 					"/>
				</g>
				<g>
					<path class="st7" d="M356,272.8l-17.5,10.1l0,20.2L356,293V272.8z M339.2,301.7l0-18.4l16-9.2l0,18.4L339.2,301.7z"/>
					<polygon class="st7" points="342,291.3 343.3,292 343.9,291.7 343.9,297 343.3,297.3 342,298.6 342,298.7 346.4,296.1 
						346.4,296.1 345.1,296.3 344.5,296.7 344.5,291.3 345.1,291 346.4,288.8 346.4,281.8 342,284.3 					"/>
					<path class="st7" d="M348,287.8l1.3,0.7l0.6-0.3v5.3l-0.6,0.4l-1.3,1.2v0.1l4.4-2.5v-0.1l-1.3,0.3l-0.6,0.3v-5.3l0.6-0.3
						l1.3-2.2v-7l-4.4,2.5V287.8z M348.4,281l3.6-2.1v6.2l-1.2,2l-1.5,0.9l-0.9-0.5V281z"/>
				</g>
			</g>
			<polygon class="st8" points="307.2,111.3 402.6,166.4 310.6,219.6 215.2,164.5 			"/>
			<g>
				<polygon class="st9" points="268.9,195.3 264.3,196.4 256.7,188.3 348.8,135.2 361,142.2 				"/>
				<polygon class="st10" points="268.9,213.3 256.7,206.3 256.7,188.3 268.9,195.3 				"/>
			</g>
		</g>
		<g id="Document_3_">
			<g id="XMLID_291_">
				<path id="XMLID_292_" class="st11" d="M357.7,268.9c-0.6-0.4-1.1-1.3-1.1-2.1V164.7c0-0.8,0.5-1.7,1.2-2.1l65.1-37.5
					c0.7-0.4,1.7-0.4,2.4,0c0.6,0.4,1.1,1.3,1.1,2.1l0,102.2c0,0.8-0.5,1.7-1.2,2.1l-65.1,37.5C359.4,269.3,358.3,269.3,357.7,268.9
					z"/>
			</g>
			<g id="XMLID_289_">
				<path id="XMLID_290_" class="st12" d="M360.1,268.9l65.1-37.5c0.7-0.4,1.2-1.3,1.2-2.1l0-102.2c0-0.8-0.5-1.1-1.2-0.7
					l-65.1,37.5c-0.7,0.4-1.2,1.3-1.2,2.1l0,102.2C358.8,269,359.4,269.3,360.1,268.9z"/>
			</g>
			<g id="XMLID_287_">
				<path id="XMLID_288_" class="st13" d="M359.9,269c-0.7,0.3-1.6,0.3-2.2,0c-0.6-0.4-1.1-1.3-1.1-2.1V164.7c0-0.4,0.1-0.8,0.4-1.2
					l2.3,1.3c-0.2,0.4-0.4,0.8-0.4,1.2v102.2C358.8,268.9,359.3,269.2,359.9,269z"/>
			</g>
			<g id="Text_3_">
				<polygon class="st13" points="369.5,158.5 415.2,132.1 415.2,142.6 369.5,169 				"/>
				<g>
					<path class="st13" d="M365.5,175.7l14.8-8.5c0.3-0.2,0.6-0.1,0.6,0.3c0,0.4-0.3,0.8-0.6,1l-14.8,8.5c-0.3,0.2-0.6,0.1-0.6-0.3
						C364.9,176.3,365.2,175.9,365.5,175.7z"/>
					<path class="st13" d="M365.5,178.3l14.8-8.5c0.3-0.2,0.6-0.1,0.6,0.3c0,0.4-0.3,0.8-0.6,1l-14.8,8.5c-0.3,0.2-0.6,0.1-0.6-0.3
						C364.9,178.9,365.2,178.5,365.5,178.3z"/>
					<path class="st13" d="M365.5,180.9l14.8-8.5c0.3-0.2,0.6-0.1,0.6,0.3c0,0.4-0.3,0.8-0.6,1l-14.8,8.5c-0.3,0.2-0.6,0.1-0.6-0.3
						C364.9,181.6,365.2,181.1,365.5,180.9z"/>
					<path class="st13" d="M365.5,183.6l14.8-8.5c0.3-0.2,0.6-0.1,0.6,0.3c0,0.4-0.3,0.8-0.6,1l-14.8,8.5c-0.3,0.2-0.6,0.1-0.6-0.3
						C364.9,184.2,365.2,183.8,365.5,183.6z"/>
				</g>
				<g>
					<path class="st13" d="M405.2,167.3l14.8-8.5c0.3-0.2,0.6-0.1,0.6,0.3c0,0.4-0.3,0.8-0.6,1l-14.8,8.5c-0.3,0.2-0.6,0.1-0.6-0.3
						C404.6,167.9,404.9,167.5,405.2,167.3z"/>
					<path class="st13" d="M405.2,169.9l14.8-8.5c0.3-0.2,0.6-0.1,0.6,0.3c0,0.4-0.3,0.8-0.6,1l-14.8,8.5c-0.3,0.2-0.6,0.1-0.6-0.3
						C404.6,170.6,404.9,170.1,405.2,169.9z"/>
					<path class="st13" d="M405.2,172.5L420,164c0.3-0.2,0.6-0.1,0.6,0.3c0,0.4-0.3,0.8-0.6,1l-14.8,8.5c-0.3,0.2-0.6,0.1-0.6-0.3
						C404.6,173.2,404.9,172.7,405.2,172.5z"/>
					<path class="st13" d="M405.2,175.2l14.8-8.5c0.3-0.2,0.6-0.1,0.6,0.3c0,0.4-0.3,0.8-0.6,1l-14.8,8.5c-0.3,0.2-0.6,0.1-0.6-0.3
						C404.6,175.8,404.9,175.4,405.2,175.2z"/>
				</g>
				<g>
					<path class="st13" d="M365.5,257.5l55.9-32.3c0.3-0.2,0.6-0.1,0.6,0.3s-0.3,0.8-0.6,1l-55.9,32.3c-0.3,0.2-0.6,0.1-0.6-0.3
						S365.2,257.7,365.5,257.5z"/>
					<path class="st13" d="M365.5,260.1l55.9-32.3c0.3-0.2,0.6-0.1,0.6,0.3c0,0.4-0.3,0.8-0.6,1l-55.9,32.3
						c-0.3,0.2-0.6,0.1-0.6-0.3C364.9,260.7,365.2,260.3,365.5,260.1z"/>
				</g>
				<g>
					<path class="st13" d="M401.5,154.9l18.3-10.6c0.3-0.2,0.6-0.1,0.6,0.3c0,0.4-0.3,0.8-0.6,1l-18.3,10.6
						c-0.3,0.2-0.6,0.1-0.6-0.3C400.9,155.6,401.1,155.1,401.5,154.9z"/>
					<path class="st13" d="M401.5,157.5l18.3-10.6c0.3-0.2,0.6-0.1,0.6,0.3c0,0.4-0.3,0.8-0.6,1l-18.3,10.6
						c-0.3,0.2-0.6,0.1-0.6-0.3C400.9,158.2,401.1,157.7,401.5,157.5z"/>
					<path class="st13" d="M401.5,160.2l18.3-10.6c0.3-0.2,0.6-0.1,0.6,0.3c0,0.4-0.3,0.8-0.6,1l-18.3,10.6
						c-0.3,0.2-0.6,0.1-0.6-0.3C400.9,160.8,401.1,160.4,401.5,160.2z"/>
					<path class="st13" d="M401.5,162.8l18.3-10.6c0.3-0.2,0.6-0.1,0.6,0.3c0,0.4-0.3,0.8-0.6,1l-18.3,10.6
						c-0.3,0.2-0.6,0.1-0.6-0.3C400.9,163.5,401.1,163,401.5,162.8z"/>
				</g>
				<g>
					<path class="st14" d="M365.7,199.3c-0.1,0-0.1,0-0.2,0c0,0-0.1-0.1-0.1-0.2V191c0-0.1,0-0.2,0.1-0.3c0-0.1,0.1-0.2,0.2-0.2
						l1.1-0.6c0.1,0,0.1,0,0.2,0s0.1,0.1,0.1,0.2v8.1c0,0.1,0,0.2-0.1,0.3c0,0.1-0.1,0.2-0.2,0.2L365.7,199.3z"/>
					<path class="st14" d="M371.8,195.8c-0.1,0.1-0.2,0.1-0.2,0c-0.1,0-0.1-0.1-0.1-0.1l-1.9-3.2v4.2c0,0.1,0,0.2-0.1,0.3
						c0,0.1-0.1,0.2-0.2,0.2l-1.1,0.6c-0.1,0-0.1,0-0.2,0c0,0-0.1-0.1-0.1-0.2v-8.1c0-0.1,0-0.2,0.1-0.3c0-0.1,0.1-0.2,0.2-0.2
						l0.8-0.5c0.1-0.1,0.2-0.1,0.2,0c0.1,0,0.1,0.1,0.1,0.1l1.9,3.2v-4.2c0-0.1,0-0.2,0.1-0.3c0-0.1,0.1-0.2,0.2-0.2l1.1-0.6
						c0.1,0,0.1,0,0.2,0c0,0,0.1,0.1,0.1,0.2v8.1c0,0.1,0,0.2-0.1,0.3c0,0.1-0.1,0.2-0.2,0.2L371.8,195.8z"/>
					<path class="st14" d="M375.7,193.5c-0.2,0.1-0.4,0-0.4-0.3l-1.7-6.8c0-0.1,0-0.1,0-0.1c0,0,0,0,0,0c0-0.1,0-0.1,0.1-0.2
						s0.1-0.1,0.1-0.2l1-0.6c0.1-0.1,0.2-0.1,0.2,0c0,0,0.1,0.1,0.1,0.2l1.1,4.8l1.1-6.1c0-0.1,0-0.2,0.1-0.3c0-0.1,0.1-0.2,0.2-0.2
						l1-0.6c0,0,0.1,0,0.1,0c0,0,0.1,0.1,0.1,0.2c0,0,0,0,0,0.1c0,0,0,0.1,0,0.1l-1.7,8.7c-0.1,0.4-0.2,0.6-0.4,0.7L375.7,193.5z"/>
					<path class="st14" d="M379.3,186c0-0.5,0.1-1,0.2-1.4c0.1-0.5,0.3-0.9,0.5-1.4c0.2-0.4,0.5-0.8,0.8-1.2
						c0.3-0.4,0.7-0.6,1.1-0.9c0.4-0.2,0.7-0.3,1.1-0.3c0.3,0,0.6,0.1,0.8,0.3c0.2,0.2,0.4,0.4,0.5,0.8c0.1,0.3,0.2,0.7,0.2,1.2
						c0,0.4,0,0.7,0,1.1c0,0.4,0,0.8,0,1.1c0,0.5-0.1,1-0.2,1.4c-0.1,0.5-0.3,0.9-0.5,1.4c-0.2,0.4-0.5,0.8-0.8,1.2
						c-0.3,0.4-0.7,0.6-1.1,0.9c-0.4,0.2-0.8,0.3-1.1,0.3c-0.3,0-0.6-0.1-0.8-0.3c-0.2-0.2-0.4-0.4-0.5-0.8
						c-0.1-0.3-0.2-0.7-0.2-1.2c0-0.3,0-0.7,0-1.1C379.2,186.7,379.2,186.4,379.3,186z M382.8,186.1c0-0.2,0-0.3,0-0.5
						c0-0.2,0-0.4,0-0.6c0-0.2,0-0.4,0-0.6c0-0.2,0-0.3,0-0.5c0-0.2,0-0.4-0.1-0.5c0-0.1-0.1-0.3-0.2-0.3c-0.1-0.1-0.2-0.1-0.3-0.1
						c-0.1,0-0.3,0-0.4,0.1c-0.2,0.1-0.3,0.2-0.4,0.4c-0.1,0.1-0.2,0.3-0.3,0.5c-0.1,0.2-0.1,0.4-0.2,0.6c0,0.2-0.1,0.4-0.1,0.6
						c0,0.1,0,0.3,0,0.5c0,0.2,0,0.4,0,0.6c0,0.2,0,0.4,0,0.6c0,0.2,0,0.3,0,0.5c0,0.4,0.1,0.7,0.3,0.9c0.2,0.2,0.4,0.2,0.7,0
						c0.3-0.2,0.6-0.5,0.7-0.8C382.7,186.9,382.8,186.5,382.8,186.1z"/>
					<path class="st14" d="M385.5,187.9c-0.1,0-0.1,0-0.2,0c0,0-0.1-0.1-0.1-0.2v-8.1c0-0.1,0-0.2,0.1-0.3c0-0.1,0.1-0.2,0.2-0.2
						l1.1-0.6c0.1,0,0.1,0,0.2,0c0,0,0.1,0.1,0.1,0.2v8.1c0,0.1,0,0.2-0.1,0.3c0,0.1-0.1,0.2-0.2,0.2L385.5,187.9z"/>
					<path class="st14" d="M389.2,180.3c0,0.1,0,0.3,0,0.5c0,0.2,0,0.4,0,0.6c0,0.2,0,0.4,0,0.6c0,0.2,0,0.3,0,0.4
						c0,0.2,0,0.4,0.1,0.5c0,0.2,0.1,0.3,0.2,0.4c0.1,0.1,0.2,0.1,0.3,0.1c0.1,0,0.3,0,0.5-0.1c0.2-0.1,0.3-0.2,0.5-0.4
						c0.1-0.1,0.2-0.3,0.3-0.4c0.1-0.1,0.1-0.3,0.2-0.4c0-0.1,0.1-0.3,0.1-0.4c0-0.1,0.1-0.3,0.1-0.3c0-0.1,0.1-0.1,0.2-0.2l1.1-0.6
						c0,0,0.1,0,0.1,0c0,0,0.1,0.1,0.1,0.2c0,0.4-0.1,0.9-0.2,1.3c-0.1,0.4-0.3,0.9-0.5,1.3c-0.2,0.4-0.5,0.8-0.8,1.1
						c-0.3,0.3-0.6,0.6-1,0.8c-0.4,0.2-0.7,0.3-1,0.3c-0.3,0-0.6-0.1-0.8-0.3c-0.2-0.2-0.4-0.4-0.5-0.8c-0.1-0.3-0.2-0.7-0.2-1.2
						c0-0.3,0-0.7,0-1.1c0-0.4,0-0.8,0-1.1c0-0.5,0.1-0.9,0.2-1.4c0.1-0.5,0.3-0.9,0.5-1.4c0.2-0.4,0.5-0.8,0.8-1.2
						c0.3-0.4,0.7-0.6,1-0.9c0.4-0.2,0.7-0.3,1-0.3c0.3,0,0.6,0.1,0.8,0.2c0.2,0.1,0.4,0.4,0.5,0.7c0.1,0.3,0.2,0.7,0.2,1.1
						c0,0.1,0,0.1-0.1,0.2c0,0.1-0.1,0.1-0.1,0.2l-1.1,0.6c-0.1,0.1-0.2,0.1-0.2,0c0,0-0.1-0.1-0.1-0.2c0-0.1-0.1-0.2-0.1-0.3
						c0-0.1-0.1-0.2-0.2-0.2c-0.1-0.1-0.2-0.1-0.3-0.1c-0.1,0-0.3,0.1-0.5,0.2c-0.2,0.1-0.3,0.2-0.5,0.4c-0.1,0.2-0.2,0.3-0.3,0.5
						c-0.1,0.2-0.1,0.4-0.2,0.6C389.2,179.9,389.2,180.1,389.2,180.3z"/>
					<path class="st14" d="M397.6,178.9c0.1,0,0.1,0,0.2,0c0,0,0.1,0.1,0.1,0.2v1.3c0,0.1,0,0.2-0.1,0.3c0,0.1-0.1,0.2-0.2,0.2
						l-3.8,2.2c-0.1,0-0.1,0-0.2,0c0,0-0.1-0.1-0.1-0.2v-8.1c0-0.1,0-0.2,0.1-0.3c0-0.1,0.1-0.2,0.2-0.2l3.8-2.2c0.1,0,0.1,0,0.2,0
						c0,0,0.1,0.1,0.1,0.2v1.3c0,0.1,0,0.2-0.1,0.3c0,0.1-0.1,0.2-0.2,0.2l-2.5,1.4v1.3l2.3-1.3c0.1,0,0.1,0,0.2,0
						c0,0,0.1,0.1,0.1,0.2v1.3c0,0.1,0,0.2-0.1,0.3c0,0.1-0.1,0.2-0.2,0.2l-2.3,1.3v1.4L397.6,178.9z"/>
				</g>
				<g>
					<polygon class="st15" points="364.9,203.7 422,170.7 422,172.1 364.9,205 					"/>
					<polygon class="st1" points="364.9,203.7 422,170.7 422,172.1 364.9,205 					"/>
				</g>
				<g>
					<polygon class="st15" points="364.9,238 422,205 422,206.4 364.9,239.3 					"/>
					<polygon class="st1" points="364.9,238 422,205 422,206.4 364.9,239.3 					"/>
				</g>
				<polygon class="st1" points="364.9,207.7 385.5,195.8 385.5,198.4 364.9,210.3 				"/>
				<polygon class="st1" points="390,193.2 399.2,187.9 399.2,190.5 390,195.8 				"/>
				<polygon class="st1" points="401.5,186.6 410.6,181.3 410.6,183.9 401.5,189.2 				"/>
				<polygon class="st1" points="412.9,180 422,174.7 422,177.3 412.9,182.6 				"/>
				<polygon class="st16" points="364.9,215.6 422,182.6 422,187.9 364.9,220.9 				"/>
				<polygon class="st16" points="364.9,226.1 422,193.2 422,198.4 364.9,231.4 				"/>
				<g>
					<path class="st14" d="M367.2,212.1c-0.1,0-0.3-0.1-0.4-0.2c-0.1-0.2,0-0.5,0.2-0.6l16-9.2c0.2-0.1,0.5,0,0.6,0.2
						c0.1,0.2,0,0.5-0.2,0.6l-16,9.2C367.3,212,367.3,212.1,367.2,212.1z"/>
				</g>
				<g>
					<g>
						<path class="st14" d="M392.3,196.4c-0.1,0-0.2-0.1-0.2-0.1c-0.1-0.1,0-0.3,0.1-0.4l6.9-4c0.1-0.1,0.3,0,0.4,0.1
							c0.1,0.1,0,0.3-0.1,0.4l-6.9,4C392.4,196.4,392.4,196.4,392.3,196.4z"/>
					</g>
					<g>
						<path class="st14" d="M392.3,198.3c-0.1,0-0.2-0.1-0.2-0.1c-0.1-0.1,0-0.3,0.1-0.4l6.9-4c0.1-0.1,0.3,0,0.4,0.1
							c0.1,0.1,0,0.3-0.1,0.4l-6.9,4C392.4,198.3,392.4,198.3,392.3,198.3z"/>
					</g>
				</g>
				<g>
					<path class="st14" d="M403.8,190.8c-0.1,0-0.2-0.1-0.2-0.1c-0.1-0.1,0-0.3,0.1-0.4l6.9-4c0.1-0.1,0.3,0,0.4,0.1
						c0.1,0.1,0,0.3-0.1,0.4l-6.9,4C403.9,190.8,403.8,190.8,403.8,190.8z"/>
				</g>
				<g>
					<path class="st14" d="M415.2,184.2c-0.1,0-0.2-0.1-0.2-0.1c-0.1-0.1,0-0.3,0.1-0.4l6.9-4c0.1-0.1,0.3,0,0.4,0.1
						c0.1,0.1,0,0.3-0.1,0.4l-6.9,4C415.3,184.2,415.2,184.2,415.2,184.2z"/>
				</g>
				<g>
					<path class="st14" d="M367.2,217.3c-0.1,0-0.3-0.1-0.4-0.2c-0.1-0.2,0-0.5,0.2-0.6l11.4-6.6c0.2-0.1,0.5,0,0.6,0.2
						c0.1,0.2,0,0.5-0.2,0.6l-11.4,6.6C367.3,217.3,367.3,217.3,367.2,217.3z"/>
				</g>
				<g>
					<g>
						<path class="st14" d="M392.3,201.7c-0.1,0-0.2-0.1-0.2-0.1c-0.1-0.1,0-0.3,0.1-0.4l6.9-4c0.1-0.1,0.3,0,0.4,0.1
							c0.1,0.1,0,0.3-0.1,0.4l-6.9,4C392.4,201.7,392.4,201.7,392.3,201.7z"/>
					</g>
					<g>
						<path class="st14" d="M392.3,203.6c-0.1,0-0.2-0.1-0.2-0.1c-0.1-0.1,0-0.3,0.1-0.4l6.9-4c0.1-0.1,0.3,0,0.4,0.1
							c0.1,0.1,0,0.3-0.1,0.4l-6.9,4C392.4,203.6,392.4,203.6,392.3,203.6z"/>
					</g>
				</g>
				<g>
					<path class="st14" d="M403.8,196.1c-0.1,0-0.2-0.1-0.2-0.1c-0.1-0.1,0-0.3,0.1-0.4l6.9-4c0.1-0.1,0.3,0,0.4,0.1
						c0.1,0.1,0,0.3-0.1,0.4l-6.9,4C403.9,196.1,403.8,196.1,403.8,196.1z"/>
				</g>
				<g>
					<path class="st14" d="M415.2,189.5c-0.1,0-0.2-0.1-0.2-0.1c-0.1-0.1,0-0.3,0.1-0.4l6.9-4c0.1-0.1,0.3,0,0.4,0.1
						c0.1,0.1,0,0.3-0.1,0.4l-6.9,4C415.3,189.5,415.2,189.5,415.2,189.5z"/>
				</g>
				<g>
					<path class="st14" d="M367.2,222.6c-0.1,0-0.3-0.1-0.4-0.2c-0.1-0.2,0-0.5,0.2-0.6l18.3-10.6c0.2-0.1,0.5,0,0.6,0.2
						c0.1,0.2,0,0.5-0.2,0.6l-18.3,10.6C367.3,222.6,367.3,222.6,367.2,222.6z"/>
				</g>
				<g>
					<g>
						<path class="st14" d="M392.3,207c-0.1,0-0.2-0.1-0.2-0.1c-0.1-0.1,0-0.3,0.1-0.4l6.9-4c0.1-0.1,0.3,0,0.4,0.1
							c0.1,0.1,0,0.3-0.1,0.4l-6.9,4C392.4,207,392.4,207,392.3,207z"/>
					</g>
					<g>
						<path class="st14" d="M392.3,208.9c-0.1,0-0.2-0.1-0.2-0.1c-0.1-0.1,0-0.3,0.1-0.4l6.9-4c0.1-0.1,0.3,0,0.4,0.1
							c0.1,0.1,0,0.3-0.1,0.4l-6.9,4C392.4,208.8,392.4,208.9,392.3,208.9z"/>
					</g>
				</g>
				<g>
					<path class="st14" d="M403.8,201.4c-0.1,0-0.2-0.1-0.2-0.1c-0.1-0.1,0-0.3,0.1-0.4l6.9-4c0.1-0.1,0.3,0,0.4,0.1
						c0.1,0.1,0,0.3-0.1,0.4l-6.9,4C403.9,201.3,403.8,201.4,403.8,201.4z"/>
				</g>
				<g>
					<path class="st14" d="M415.2,194.8c-0.1,0-0.2-0.1-0.2-0.1c-0.1-0.1,0-0.3,0.1-0.4l6.9-4c0.1-0.1,0.3,0,0.4,0.1
						c0.1,0.1,0,0.3-0.1,0.4l-6.9,4C415.3,194.8,415.2,194.8,415.2,194.8z"/>
				</g>
				<g>
					<path class="st14" d="M367.2,227.9c-0.1,0-0.3-0.1-0.4-0.2c-0.1-0.2,0-0.5,0.2-0.6l9.1-5.3c0.2-0.1,0.5,0,0.6,0.2
						c0.1,0.2,0,0.5-0.2,0.6l-9.1,5.3C367.3,227.9,367.3,227.9,367.2,227.9z"/>
				</g>
				<g>
					<g>
						<path class="st14" d="M392.3,212.2c-0.1,0-0.2-0.1-0.2-0.1c-0.1-0.1,0-0.3,0.1-0.4l6.9-4c0.1-0.1,0.3,0,0.4,0.1
							c0.1,0.1,0,0.3-0.1,0.4l-6.9,4C392.4,212.2,392.4,212.2,392.3,212.2z"/>
					</g>
					<g>
						<path class="st14" d="M392.3,214.1c-0.1,0-0.2-0.1-0.2-0.1c-0.1-0.1,0-0.3,0.1-0.4l6.9-4c0.1-0.1,0.3,0,0.4,0.1
							c0.1,0.1,0,0.3-0.1,0.4l-6.9,4C392.4,214.1,392.4,214.1,392.3,214.1z"/>
					</g>
				</g>
				<g>
					<path class="st14" d="M403.8,206.6c-0.1,0-0.2-0.1-0.2-0.1c-0.1-0.1,0-0.3,0.1-0.4l6.9-4c0.1-0.1,0.3,0,0.4,0.1
						c0.1,0.1,0,0.3-0.1,0.4l-6.9,4C403.9,206.6,403.8,206.6,403.8,206.6z"/>
				</g>
				<g>
					<path class="st14" d="M415.2,200c-0.1,0-0.2-0.1-0.2-0.1c-0.1-0.1,0-0.3,0.1-0.4l6.9-4c0.1-0.1,0.3,0,0.4,0.1
						c0.1,0.1,0,0.3-0.1,0.4l-6.9,4C415.3,200,415.2,200,415.2,200z"/>
				</g>
				<g>
					<path class="st14" d="M367.2,233.2c-0.1,0-0.3-0.1-0.4-0.2c-0.1-0.2,0-0.5,0.2-0.6l16-9.2c0.2-0.1,0.5,0,0.6,0.2
						c0.1,0.2,0,0.5-0.2,0.6l-16,9.2C367.3,233.1,367.3,233.2,367.2,233.2z"/>
				</g>
				<g>
					<g>
						<path class="st14" d="M392.3,217.5c-0.1,0-0.2-0.1-0.2-0.1c-0.1-0.1,0-0.3,0.1-0.4l6.9-4c0.1-0.1,0.3,0,0.4,0.1
							c0.1,0.1,0,0.3-0.1,0.4l-6.9,4C392.4,217.5,392.4,217.5,392.3,217.5z"/>
					</g>
					<g>
						<path class="st14" d="M392.3,219.4c-0.1,0-0.2-0.1-0.2-0.1c-0.1-0.1,0-0.3,0.1-0.4l6.9-4c0.1-0.1,0.3,0,0.4,0.1
							c0.1,0.1,0,0.3-0.1,0.4l-6.9,4C392.4,219.4,392.4,219.4,392.3,219.4z"/>
					</g>
				</g>
				<g>
					<path class="st14" d="M403.8,211.9c-0.1,0-0.2-0.1-0.2-0.1c-0.1-0.1,0-0.3,0.1-0.4l6.9-4c0.1-0.1,0.3,0,0.4,0.1
						c0.1,0.1,0,0.3-0.1,0.4l-6.9,4C403.9,211.9,403.8,211.9,403.8,211.9z"/>
				</g>
				<g>
					<path class="st14" d="M415.2,205.3c-0.1,0-0.2-0.1-0.2-0.1c-0.1-0.1,0-0.3,0.1-0.4l6.9-4c0.1-0.1,0.3,0,0.4,0.1
						c0.1,0.1,0,0.3-0.1,0.4l-6.9,4C415.3,205.3,415.2,205.3,415.2,205.3z"/>
				</g>
				<g>
					<path class="st14" d="M403.8,219.8c-0.1,0-0.2-0.1-0.2-0.1c-0.1-0.1,0-0.3,0.1-0.4l6.9-4c0.1-0.1,0.3,0,0.4,0.1
						c0.1,0.1,0,0.3-0.1,0.4l-6.9,4C403.9,219.8,403.8,219.8,403.8,219.8z"/>
				</g>
				<g>
					<path class="st14" d="M415.2,213.2c-0.1,0-0.2-0.1-0.2-0.1c-0.1-0.1,0-0.3,0.1-0.4l6.9-4c0.1-0.1,0.3,0,0.4,0.1
						c0.1,0.1,0,0.3-0.1,0.4l-6.9,4C415.3,213.2,415.2,213.2,415.2,213.2z"/>
				</g>
				<g>
					<path class="st14" d="M403.8,222.5c-0.1,0-0.2-0.1-0.2-0.1c-0.1-0.1,0-0.3,0.1-0.4l6.9-4c0.1-0.1,0.3,0,0.4,0.1
						c0.1,0.1,0,0.3-0.1,0.4l-6.9,4C403.9,222.5,403.8,222.5,403.8,222.5z"/>
				</g>
				<g>
					<path class="st14" d="M415.2,215.9c-0.1,0-0.2-0.1-0.2-0.1c-0.1-0.1,0-0.3,0.1-0.4l6.9-4c0.1-0.1,0.3,0,0.4,0.1
						c0.1,0.1,0,0.3-0.1,0.4l-6.9,4C415.3,215.9,415.2,215.9,415.2,215.9z"/>
				</g>
				<polygon class="st1" points="422,214.3 385.5,235.4 385.5,243.3 422,222.2 				"/>
				<g>
					<path class="st11" d="M392.3,233.3C392.4,233.3,392.4,233.3,392.3,233.3c0.1,0,0.1,0.1,0.1,0.1v0.6c0,0,0,0.1,0,0.1
						c0,0,0,0.1-0.1,0.1l-0.7,0.4v3.1c0,0,0,0.1,0,0.1c0,0,0,0.1-0.1,0.1l-0.5,0.3c0,0-0.1,0-0.1,0c0,0,0-0.1,0-0.1v-3.1l-0.7,0.4
						c0,0-0.1,0-0.1,0c0,0,0-0.1,0-0.1v-0.6c0,0,0-0.1,0-0.1c0,0,0-0.1,0.1-0.1L392.3,233.3z"/>
					<path class="st11" d="M392.6,234.7c0-0.2,0-0.5,0.1-0.7c0.1-0.2,0.1-0.4,0.2-0.7c0.1-0.2,0.2-0.4,0.4-0.6
						c0.1-0.2,0.3-0.3,0.5-0.4c0.2-0.1,0.4-0.2,0.5-0.2c0.1,0,0.3,0,0.4,0.1c0.1,0.1,0.2,0.2,0.2,0.4c0.1,0.2,0.1,0.4,0.1,0.6
						c0,0.2,0,0.3,0,0.5c0,0.2,0,0.4,0,0.5c0,0.2,0,0.5-0.1,0.7c-0.1,0.2-0.1,0.5-0.2,0.7c-0.1,0.2-0.2,0.4-0.4,0.6
						c-0.1,0.2-0.3,0.3-0.5,0.4c-0.2,0.1-0.4,0.2-0.5,0.2c-0.1,0-0.3,0-0.4-0.1s-0.2-0.2-0.2-0.4c-0.1-0.2-0.1-0.4-0.1-0.6
						c0-0.2,0-0.3,0-0.5C392.6,235,392.6,234.9,392.6,234.7z M394.4,234.7c0-0.1,0-0.2,0-0.2c0-0.1,0-0.2,0-0.3c0-0.1,0-0.2,0-0.3
						c0-0.1,0-0.2,0-0.2c0-0.1,0-0.2,0-0.3c0-0.1-0.1-0.1-0.1-0.2c0,0-0.1-0.1-0.1-0.1c-0.1,0-0.1,0-0.2,0.1c-0.1,0-0.2,0.1-0.2,0.2
						c-0.1,0.1-0.1,0.1-0.2,0.2c0,0.1-0.1,0.2-0.1,0.3c0,0.1,0,0.2,0,0.3c0,0.1,0,0.2,0,0.2c0,0.1,0,0.2,0,0.3c0,0.1,0,0.2,0,0.3
						c0,0.1,0,0.2,0,0.2c0,0.2,0.1,0.3,0.1,0.4c0.1,0.1,0.2,0.1,0.4,0c0.2-0.1,0.3-0.2,0.4-0.4C394.3,235.1,394.4,234.9,394.4,234.7
						z"/>
					<path class="st11" d="M397.5,230.3C397.5,230.3,397.6,230.3,397.5,230.3c0.1,0,0.1,0.1,0.1,0.1v0.6c0,0,0,0.1,0,0.1
						c0,0,0,0.1-0.1,0.1l-0.7,0.4v3.1c0,0,0,0.1,0,0.1c0,0,0,0.1-0.1,0.1l-0.5,0.3c0,0-0.1,0-0.1,0c0,0,0-0.1,0-0.1v-3.1l-0.7,0.4
						c0,0-0.1,0-0.1,0c0,0,0-0.1,0-0.1v-0.6c0,0,0-0.1,0-0.1c0,0,0-0.1,0.1-0.1L397.5,230.3z"/>
					<path class="st11" d="M399.1,229.4c0.1,0,0.1,0,0.1,0c0,0,0,0.1,0.1,0.1l0.9,3.3c0,0,0,0.1,0,0.1c0,0,0,0.1,0,0.1
						c0,0,0,0.1-0.1,0.1l-0.5,0.3c-0.1,0-0.1,0-0.1,0c0,0,0,0,0-0.1l-0.1-0.4l-1,0.6l-0.1,0.6c0,0,0,0.1,0,0.1c0,0-0.1,0.1-0.1,0.1
						l-0.5,0.3c0,0,0,0-0.1,0c0,0,0,0,0-0.1c0,0,0-0.1,0-0.1l0.9-4.3c0-0.1,0-0.1,0.1-0.2c0-0.1,0.1-0.1,0.1-0.1L399.1,229.4z
						 M398.5,232.4l0.6-0.4l-0.3-1.3L398.5,232.4z"/>
					<path class="st11" d="M402.4,230.7C402.4,230.7,402.5,230.7,402.4,230.7c0.1,0,0.1,0.1,0.1,0.1v0.6c0,0,0,0.1,0,0.1
						c0,0,0,0.1-0.1,0.1l-1.8,1c0,0-0.1,0-0.1,0c0,0,0-0.1,0-0.1v-3.9c0,0,0-0.1,0-0.1c0,0,0-0.1,0.1-0.1l0.5-0.3c0,0,0.1,0,0.1,0
						c0,0,0,0.1,0,0.1v3.1L402.4,230.7z"/>
				</g>
				<g>
					<path class="st11" d="M410.6,222.7c0.1,0,0.2,0,0.3,0c0.1,0,0.2,0.1,0.2,0.1c0.1,0.1,0.1,0.1,0.1,0.2c0,0.1,0.1,0.2,0.1,0.3
						c0,0,0,0.1,0,0.1c0,0,0,0.1-0.1,0.1l-0.3,0.2c0,0-0.1,0-0.1,0c0,0,0,0-0.1-0.1c0-0.1-0.1-0.1-0.2-0.2c-0.1,0-0.2,0-0.4,0.1
						c-0.1,0-0.1,0.1-0.2,0.1c-0.1,0.1-0.1,0.1-0.2,0.2c0,0.1-0.1,0.1-0.1,0.2c0,0.1,0,0.2,0,0.2c0,0.1,0,0.2,0,0.2
						c0,0,0.1,0.1,0.1,0.1c0.1,0,0.1,0,0.2,0c0.1,0,0.2-0.1,0.4-0.1c0.2,0,0.3-0.1,0.4,0c0.1,0,0.2,0,0.3,0.1
						c0.1,0.1,0.1,0.1,0.1,0.3c0,0.1,0,0.2,0,0.4c0,0.2,0,0.3-0.1,0.5c0,0.2-0.1,0.3-0.2,0.5c-0.1,0.2-0.2,0.3-0.3,0.4
						c-0.1,0.1-0.2,0.3-0.4,0.4v0.4c0,0,0,0.1,0,0.1c0,0,0,0.1-0.1,0.1l-0.3,0.2c0,0-0.1,0-0.1,0c0,0,0-0.1,0-0.1v-0.4
						c-0.1,0-0.2,0.1-0.3,0c-0.1,0-0.2,0-0.3-0.1c-0.1-0.1-0.1-0.1-0.2-0.2c0-0.1-0.1-0.2-0.1-0.4c0,0,0-0.1,0-0.1
						c0,0,0-0.1,0.1-0.1l0.3-0.2c0,0,0.1,0,0.1,0c0,0,0,0,0.1,0.1c0,0,0,0.1,0.1,0.1c0,0,0.1,0.1,0.1,0.1c0,0,0.1,0,0.2,0
						c0.1,0,0.1,0,0.2-0.1c0.1,0,0.2-0.1,0.2-0.2c0.1-0.1,0.1-0.1,0.2-0.2c0.1-0.1,0.1-0.2,0.1-0.2c0-0.1,0.1-0.2,0.1-0.3
						c0-0.1,0-0.1-0.1-0.2c0,0-0.1-0.1-0.2,0c-0.1,0-0.2,0-0.3,0c-0.1,0-0.2,0.1-0.4,0.1c-0.1,0-0.2,0-0.3,0c-0.1,0-0.2,0-0.2-0.1
						c-0.1-0.1-0.1-0.1-0.1-0.3c0-0.1,0-0.3,0-0.4c0-0.2,0-0.3,0.1-0.5c0-0.2,0.1-0.3,0.2-0.5c0.1-0.1,0.2-0.3,0.2-0.4
						c0.1-0.1,0.2-0.2,0.3-0.3v-0.4c0,0,0-0.1,0-0.1c0,0,0-0.1,0.1-0.1l0.3-0.2c0,0,0.1,0,0.1,0c0,0,0,0.1,0,0.1V222.7z"/>
					<path class="st11" d="M413.3,221.1c0.1,0,0.2,0,0.3,0c0.1,0,0.2,0.1,0.2,0.1c0.1,0.1,0.1,0.1,0.1,0.2c0,0.1,0.1,0.2,0.1,0.3
						c0,0,0,0.1,0,0.1c0,0,0,0.1-0.1,0.1l-0.3,0.2c0,0-0.1,0-0.1,0c0,0,0,0-0.1-0.1c0-0.1-0.1-0.1-0.2-0.2c-0.1,0-0.2,0-0.4,0.1
						c-0.1,0-0.1,0.1-0.2,0.1c-0.1,0.1-0.1,0.1-0.2,0.2c0,0.1-0.1,0.1-0.1,0.2c0,0.1,0,0.2,0,0.2c0,0.1,0,0.2,0,0.2
						c0,0,0.1,0.1,0.1,0.1c0.1,0,0.1,0,0.2,0c0.1,0,0.2,0,0.4-0.1c0.2,0,0.3-0.1,0.4,0c0.1,0,0.2,0,0.3,0.1c0.1,0.1,0.1,0.1,0.1,0.3
						c0,0.1,0,0.2,0,0.4c0,0.2,0,0.3-0.1,0.5s-0.1,0.3-0.2,0.5c-0.1,0.2-0.2,0.3-0.3,0.4c-0.1,0.1-0.2,0.3-0.4,0.4v0.4
						c0,0,0,0.1,0,0.1c0,0,0,0.1-0.1,0.1l-0.3,0.2c0,0-0.1,0-0.1,0c0,0,0-0.1,0-0.1v-0.4c-0.1,0-0.2,0.1-0.3,0s-0.2,0-0.3-0.1
						c-0.1-0.1-0.1-0.1-0.2-0.2c0-0.1-0.1-0.2-0.1-0.4c0,0,0-0.1,0-0.1c0,0,0-0.1,0.1-0.1l0.3-0.2c0,0,0.1,0,0.1,0c0,0,0,0,0.1,0.1
						c0,0,0,0.1,0.1,0.1c0,0,0.1,0.1,0.1,0.1c0,0,0.1,0,0.2,0c0.1,0,0.1,0,0.2-0.1c0.1,0,0.2-0.1,0.2-0.2c0.1-0.1,0.1-0.1,0.2-0.2
						c0.1-0.1,0.1-0.2,0.1-0.2c0-0.1,0.1-0.2,0.1-0.3c0-0.1,0-0.2-0.1-0.2c0,0-0.1-0.1-0.2,0c-0.1,0-0.2,0-0.3,0
						c-0.1,0-0.2,0.1-0.4,0.1c-0.1,0-0.2,0-0.3,0c-0.1,0-0.2,0-0.2-0.1c-0.1-0.1-0.1-0.1-0.1-0.3c0-0.1,0-0.3,0-0.4
						c0-0.2,0-0.3,0.1-0.5c0-0.2,0.1-0.3,0.2-0.5c0.1-0.1,0.2-0.3,0.2-0.4c0.1-0.1,0.2-0.2,0.3-0.3V221c0,0,0-0.1,0-0.1
						c0,0,0-0.1,0.1-0.1l0.3-0.2c0,0,0.1,0,0.1,0c0,0,0,0.1,0,0.1V221.1z"/>
					<path class="st11" d="M416,219.5c0.1,0,0.2,0,0.3,0c0.1,0,0.2,0.1,0.2,0.1c0.1,0.1,0.1,0.1,0.1,0.2c0,0.1,0.1,0.2,0.1,0.3
						c0,0,0,0.1,0,0.1c0,0,0,0.1-0.1,0.1l-0.3,0.2c0,0-0.1,0-0.1,0c0,0,0,0-0.1-0.1c0-0.1-0.1-0.1-0.2-0.2c-0.1,0-0.2,0-0.4,0.1
						c-0.1,0-0.1,0.1-0.2,0.1c-0.1,0.1-0.1,0.1-0.2,0.2c0,0.1-0.1,0.1-0.1,0.2c0,0.1,0,0.2,0,0.2c0,0.1,0,0.2,0,0.2
						c0,0,0.1,0.1,0.1,0.1c0.1,0,0.1,0,0.2,0c0.1,0,0.2,0,0.4-0.1c0.2,0,0.3-0.1,0.4,0c0.1,0,0.2,0,0.3,0.1c0.1,0.1,0.1,0.1,0.1,0.3
						c0,0.1,0,0.2,0,0.4c0,0.2,0,0.3-0.1,0.5c0,0.2-0.1,0.3-0.2,0.5c-0.1,0.2-0.2,0.3-0.3,0.4c-0.1,0.1-0.2,0.3-0.4,0.4v0.4
						c0,0,0,0.1,0,0.1c0,0,0,0.1-0.1,0.1l-0.3,0.2c0,0-0.1,0-0.1,0c0,0,0-0.1,0-0.1v-0.4c-0.1,0-0.2,0.1-0.3,0c-0.1,0-0.2,0-0.3-0.1
						c-0.1-0.1-0.1-0.1-0.2-0.2c0-0.1-0.1-0.2-0.1-0.4c0,0,0-0.1,0-0.1c0,0,0-0.1,0.1-0.1l0.3-0.2c0,0,0.1,0,0.1,0c0,0,0,0,0.1,0.1
						c0,0,0,0.1,0.1,0.1c0,0,0.1,0.1,0.1,0.1c0,0,0.1,0,0.2,0c0.1,0,0.1,0,0.2-0.1c0.1,0,0.2-0.1,0.2-0.2c0.1-0.1,0.1-0.1,0.2-0.2
						c0.1-0.1,0.1-0.2,0.1-0.2c0-0.1,0.1-0.2,0.1-0.3c0-0.1,0-0.1-0.1-0.2c0,0-0.1-0.1-0.2,0c-0.1,0-0.2,0-0.3,0
						c-0.1,0-0.2,0.1-0.4,0.1c-0.1,0-0.2,0-0.3,0c-0.1,0-0.2,0-0.2-0.1c-0.1-0.1-0.1-0.1-0.1-0.3c0-0.1,0-0.3,0-0.4
						c0-0.2,0-0.3,0.1-0.5c0-0.2,0.1-0.3,0.2-0.5c0.1-0.1,0.2-0.3,0.2-0.4c0.1-0.1,0.2-0.2,0.3-0.3v-0.4c0,0,0-0.1,0-0.1
						c0,0,0-0.1,0.1-0.1l0.3-0.2c0,0,0.1,0,0.1,0c0,0,0,0.1,0,0.1V219.5z"/>
					<path class="st11" d="M418.8,218c0.1,0,0.2,0,0.3,0c0.1,0,0.2,0.1,0.2,0.1c0.1,0.1,0.1,0.1,0.1,0.2c0,0.1,0.1,0.2,0.1,0.3
						c0,0,0,0.1,0,0.1c0,0,0,0.1-0.1,0.1l-0.3,0.2c0,0-0.1,0-0.1,0c0,0,0,0-0.1-0.1c0-0.1-0.1-0.1-0.2-0.2c-0.1,0-0.2,0-0.4,0.1
						c-0.1,0-0.1,0.1-0.2,0.1c-0.1,0.1-0.1,0.1-0.2,0.2c0,0.1-0.1,0.1-0.1,0.2c0,0.1,0,0.2,0,0.2c0,0.1,0,0.2,0,0.2
						c0,0,0.1,0.1,0.1,0.1c0.1,0,0.1,0,0.2,0c0.1,0,0.2,0,0.4-0.1c0.2,0,0.3-0.1,0.4,0c0.1,0,0.2,0,0.3,0.1c0.1,0.1,0.1,0.1,0.1,0.3
						c0,0.1,0,0.2,0,0.4c0,0.2,0,0.3-0.1,0.5c0,0.2-0.1,0.3-0.2,0.5c-0.1,0.2-0.2,0.3-0.3,0.4c-0.1,0.1-0.2,0.3-0.4,0.4v0.4
						c0,0,0,0.1,0,0.1c0,0,0,0.1-0.1,0.1l-0.3,0.2c0,0-0.1,0-0.1,0c0,0,0-0.1,0-0.1v-0.4c-0.1,0-0.2,0.1-0.3,0c-0.1,0-0.2,0-0.3-0.1
						c-0.1-0.1-0.1-0.1-0.2-0.2c0-0.1-0.1-0.2-0.1-0.4c0,0,0-0.1,0-0.1c0,0,0-0.1,0.1-0.1l0.3-0.2c0,0,0.1,0,0.1,0c0,0,0,0,0.1,0.1
						c0,0,0,0.1,0.1,0.1c0,0,0.1,0.1,0.1,0.1c0,0,0.1,0,0.2,0c0.1,0,0.1,0,0.2-0.1c0.1,0,0.2-0.1,0.2-0.2c0.1-0.1,0.1-0.1,0.2-0.2
						c0.1-0.1,0.1-0.2,0.1-0.2c0-0.1,0.1-0.2,0.1-0.3c0-0.1,0-0.2-0.1-0.2c0,0-0.1-0.1-0.2,0c-0.1,0-0.2,0-0.3,0
						c-0.1,0-0.2,0.1-0.4,0.1c-0.1,0-0.2,0-0.3,0c-0.1,0-0.2,0-0.2-0.1c-0.1-0.1-0.1-0.1-0.1-0.3c0-0.1,0-0.3,0-0.4
						c0-0.2,0-0.3,0.1-0.5c0-0.2,0.1-0.3,0.2-0.5c0.1-0.1,0.2-0.3,0.2-0.4c0.1-0.1,0.2-0.2,0.3-0.3v-0.4c0,0,0-0.1,0-0.1
						c0,0,0-0.1,0.1-0.1l0.3-0.2c0,0,0.1,0,0.1,0c0,0,0,0.1,0,0.1V218z"/>
				</g>
				<g>
					<path class="st14" d="M367.2,246.2c-0.1,0-0.2-0.1-0.2-0.1c-0.1-0.1,0-0.3,0.1-0.4l13.7-7.9c0.1-0.1,0.3,0,0.4,0.1
						c0.1,0.1,0,0.3-0.1,0.4l-13.7,7.9C367.3,246.2,367.2,246.2,367.2,246.2z"/>
				</g>
				<g>
					<path class="st14" d="M367.2,248.9c-0.1,0-0.2-0.1-0.2-0.1c-0.1-0.1,0-0.3,0.1-0.4l13.7-7.9c0.1-0.1,0.3,0,0.4,0.1
						c0.1,0.1,0,0.3-0.1,0.4l-13.7,7.9C367.3,248.8,367.2,248.9,367.2,248.9z"/>
				</g>
				<g>
					<path class="st14" d="M367.2,251.5c-0.1,0-0.2-0.1-0.2-0.1c-0.1-0.1,0-0.3,0.1-0.4l13.7-7.9c0.1-0.1,0.3,0,0.4,0.1
						c0.1,0.1,0,0.3-0.1,0.4l-13.7,7.9C367.3,251.5,367.2,251.5,367.2,251.5z"/>
				</g>
			</g>
		</g>
		<g id="Ticket_2_">
			<g>
				<g>
					<path class="st11" d="M351.1,350.6v-2.5c0-0.1-0.1-0.1-0.1-0.1h-4.5v-2.5c0-0.1-0.1-0.1-0.1-0.1h-4.5v-2.5
						c0-0.1-0.1-0.1-0.1-0.1h-4.5V340c0-0.1-0.1-0.1-0.1-0.1h-4.5v-2.5c0-0.1-0.1-0.1-0.1-0.1h-4.5v-2.5c0-0.1-0.1-0.1-0.1-0.1h-4.5
						l0-2.5l104.3-60.2l0,2.4c0,0.1,0.1,0.1,0.1,0.1l4.5,0v2.5c0,0.1,0.1,0.1,0.1,0.1h4.5v2.5c0,0.1,0.1,0.1,0.1,0.1h4.5v2.5
						c0,0.1,0.1,0.1,0.1,0.1h4.5v2.5c0,0.1,0.1,0.1,0.1,0.1h4.5v2.5c0,0.1,0.1,0.1,0.1,0.1h4.5v2.5c0,0.1,0.1,0.1,0.1,0.1h4.1
						l-104.1,60.1H351.1z"/>
				</g>
				<g>
					<path class="st13" d="M427.4,272.1l0,2.2c0,0.2,0.1,0.3,0.3,0.3l4.4,0v2.4c0,0.2,0.1,0.3,0.3,0.3h4.4v2.4
						c0,0.2,0.1,0.3,0.3,0.3h4.4v2.4c0,0.2,0.1,0.3,0.3,0.3h4.4v2.4c0,0.2,0.1,0.3,0.3,0.3h4.4v2.4c0,0.2,0.1,0.3,0.3,0.3h4.4v2.4
						c0,0.2,0.1,0.3,0.3,0.3h3.6l-103.6,59.8h-4.3v-2.4c0-0.2-0.1-0.3-0.3-0.3h-4.4v-2.4c0-0.2-0.1-0.3-0.3-0.3H342v-2.4
						c0-0.2-0.1-0.3-0.3-0.3h-4.4V340c0-0.2-0.1-0.3-0.3-0.3h-4.4v-2.4c0-0.2-0.1-0.3-0.3-0.3H328v-2.4c0-0.2-0.1-0.3-0.3-0.3
						l-4.4,0l0-2.2L427.4,272.1 M427.7,271.6L323.1,332l0,2.7l4.6,0v2.7h4.6v2.7h4.6v2.7h4.6v2.7h4.6v2.7h4.6v2.7h4.6l104.6-60.4
						h-4.6v-2.7h-4.6V285h-4.6v-2.7h-4.6v-2.7H437v-2.7h-4.6v-2.7l-4.6,0L427.7,271.6L427.7,271.6z"/>
				</g>
			</g>
			<g>
				<g>
					<g>
						<path class="st1" d="M441.6,290.9c-0.1,0-0.2,0-0.3-0.1l-13.9-8.1c-0.3-0.2-0.4-0.5-0.2-0.8c0.2-0.3,0.5-0.4,0.8-0.2l13.9,8.1
							c0.3,0.2,0.4,0.5,0.2,0.8C442,290.8,441.8,290.9,441.6,290.9z"/>
					</g>
					<g>
						<path class="st14" d="M441.6,293.3c0,0-0.1,0-0.1,0l-18.6-10.7c-0.1-0.1-0.1-0.2-0.1-0.3c0.1-0.1,0.2-0.1,0.3-0.1l18.6,10.7
							c0.1,0.1,0.1,0.2,0.1,0.3C441.8,293.2,441.7,293.3,441.6,293.3z"/>
					</g>
					<g>
						<path class="st14" d="M439.3,294.6c0,0-0.1,0-0.1,0l-18.6-10.7c-0.1-0.1-0.1-0.2-0.1-0.3c0.1-0.1,0.2-0.1,0.3-0.1l18.6,10.7
							c0.1,0.1,0.1,0.2,0.1,0.3C439.5,294.6,439.4,294.6,439.3,294.6z"/>
					</g>
				</g>
				<g>
					<g>
						<path class="st14" d="M430,294.6c0,0-0.1,0-0.1,0l-16.3-9.4c-0.1-0.1-0.1-0.2-0.1-0.3c0.1-0.1,0.2-0.1,0.3-0.1l16.3,9.4
							c0.1,0.1,0.1,0.2,0.1,0.3C430.2,294.6,430.1,294.6,430,294.6z"/>
					</g>
					<g>
						<path class="st14" d="M437,298.6c0,0-0.1,0-0.1,0l-4.6-2.7c-0.1-0.1-0.1-0.2-0.1-0.3c0.1-0.1,0.2-0.1,0.3-0.1l4.6,2.7
							c0.1,0.1,0.1,0.2,0.1,0.3C437.1,298.6,437.1,298.6,437,298.6z"/>
					</g>
				</g>
				<g>
					<g>
						<path class="st14" d="M427.7,296c0,0-0.1,0-0.1,0l-16.3-9.4c-0.1-0.1-0.1-0.2-0.1-0.3c0.1-0.1,0.2-0.1,0.3-0.1l16.3,9.4
							c0.1,0.1,0.1,0.2,0.1,0.3C427.8,295.9,427.8,296,427.7,296z"/>
					</g>
					<g>
						<path class="st14" d="M434.7,300c0,0-0.1,0-0.1,0l-4.6-2.7c-0.1-0.1-0.1-0.2-0.1-0.3c0.1-0.1,0.2-0.1,0.3-0.1l4.6,2.7
							c0.1,0.1,0.1,0.2,0.1,0.3C434.8,299.9,434.7,300,434.7,300z"/>
					</g>
				</g>
				<g>
					<g>
						<path class="st14" d="M425.4,297.3c0,0-0.1,0-0.1,0l-16.3-9.4c-0.1-0.1-0.1-0.2-0.1-0.3c0.1-0.1,0.2-0.1,0.3-0.1l16.3,9.4
							c0.1,0.1,0.1,0.2,0.1,0.3C425.5,297.3,425.4,297.3,425.4,297.3z"/>
					</g>
					<g>
						<path class="st14" d="M432.3,301.3c0,0-0.1,0-0.1,0l-4.6-2.7c-0.1-0.1-0.1-0.2-0.1-0.3c0.1-0.1,0.2-0.1,0.3-0.1l4.6,2.7
							c0.1,0.1,0.1,0.2,0.1,0.3C432.5,301.3,432.4,301.3,432.3,301.3z"/>
					</g>
				</g>
				<g>
					<g>
						<path class="st14" d="M423,298.6c0,0-0.1,0-0.1,0l-16.3-9.4c-0.1-0.1-0.1-0.2-0.1-0.3c0.1-0.1,0.2-0.1,0.3-0.1l16.3,9.4
							c0.1,0.1,0.1,0.2,0.1,0.3C423.2,298.6,423.1,298.6,423,298.6z"/>
					</g>
					<g>
						<path class="st14" d="M430,302.7c0,0-0.1,0-0.1,0l-4.6-2.7c-0.1-0.1-0.1-0.2-0.1-0.3c0.1-0.1,0.2-0.1,0.3-0.1l4.6,2.7
							c0.1,0.1,0.1,0.2,0.1,0.3C430.2,302.6,430.1,302.7,430,302.7z"/>
					</g>
				</g>
				<g>
					<g>
						<path class="st14" d="M420.7,300c0,0-0.1,0-0.1,0l-16.3-9.4c-0.1-0.1-0.1-0.2-0.1-0.3c0.1-0.1,0.2-0.1,0.3-0.1l16.3,9.4
							c0.1,0.1,0.1,0.2,0.1,0.3C420.9,299.9,420.8,300,420.7,300z"/>
					</g>
					<g>
						<path class="st14" d="M427.7,304c0,0-0.1,0-0.1,0l-4.6-2.7c-0.1-0.1-0.1-0.2-0.1-0.3c0.1-0.1,0.2-0.1,0.3-0.1l4.6,2.7
							c0.1,0.1,0.1,0.2,0.1,0.3C427.8,304,427.8,304,427.7,304z"/>
					</g>
				</g>
				<g>
					<g>
						<path class="st14" d="M418.4,301.3c0,0-0.1,0-0.1,0l-16.3-9.4c-0.1-0.1-0.1-0.2-0.1-0.3c0.1-0.1,0.2-0.1,0.3-0.1l16.3,9.4
							c0.1,0.1,0.1,0.2,0.1,0.3C418.5,301.3,418.5,301.3,418.4,301.3z"/>
					</g>
					<g>
						<path class="st14" d="M425.4,305.3c0,0-0.1,0-0.1,0l-4.6-2.7c-0.1-0.1-0.1-0.2-0.1-0.3c0.1-0.1,0.2-0.1,0.3-0.1l4.6,2.7
							c0.1,0.1,0.1,0.2,0.1,0.3C425.5,305.3,425.4,305.3,425.4,305.3z"/>
					</g>
				</g>
				<g>
					<g>
						<path class="st14" d="M416.1,302.7c0,0-0.1,0-0.1,0l-16.3-9.4c-0.1-0.1-0.1-0.2-0.1-0.3c0.1-0.1,0.2-0.1,0.3-0.1l16.3,9.4
							c0.1,0.1,0.1,0.2,0.1,0.3C416.2,302.6,416.1,302.7,416.1,302.7z"/>
					</g>
					<g>
						<path class="st14" d="M423,306.7c0,0-0.1,0-0.1,0l-4.6-2.7c-0.1-0.1-0.1-0.2-0.1-0.3c0.1-0.1,0.2-0.1,0.3-0.1l4.6,2.7
							c0.1,0.1,0.1,0.2,0.1,0.3C423.2,306.7,423.1,306.7,423,306.7z"/>
					</g>
				</g>
				<g>
					<g>
						<path class="st14" d="M413.7,304c0,0-0.1,0-0.1,0l-16.3-9.4c-0.1-0.1-0.1-0.2-0.1-0.3c0.1-0.1,0.2-0.1,0.3-0.1l16.3,9.4
							c0.1,0.1,0.1,0.2,0.1,0.3C413.9,304,413.8,304,413.7,304z"/>
					</g>
					<g>
						<path class="st14" d="M420.7,308c0,0-0.1,0-0.1,0l-4.6-2.7c-0.1-0.1-0.1-0.2-0.1-0.3c0.1-0.1,0.2-0.1,0.3-0.1l4.6,2.7
							c0.1,0.1,0.1,0.2,0.1,0.3C420.9,308,420.8,308,420.7,308z"/>
					</g>
				</g>
				<g>
					<g>
						<path class="st14" d="M411.4,305.3c0,0-0.1,0-0.1,0l-16.3-9.4c-0.1-0.1-0.1-0.2-0.1-0.3c0.1-0.1,0.2-0.1,0.3-0.1l16.3,9.4
							c0.1,0.1,0.1,0.2,0.1,0.3C411.6,305.3,411.5,305.3,411.4,305.3z"/>
					</g>
					<g>
						<path class="st14" d="M418.4,309.4c0,0-0.1,0-0.1,0l-4.6-2.7c-0.1-0.1-0.1-0.2-0.1-0.3c0.1-0.1,0.2-0.1,0.3-0.1l4.6,2.7
							c0.1,0.1,0.1,0.2,0.1,0.3C418.5,309.3,418.5,309.4,418.4,309.4z"/>
					</g>
				</g>
				<g>
					<g>
						<path class="st14" d="M409.1,306.7c0,0-0.1,0-0.1,0l-16.3-9.4c-0.1-0.1-0.1-0.2-0.1-0.3c0.1-0.1,0.2-0.1,0.3-0.1l16.3,9.4
							c0.1,0.1,0.1,0.2,0.1,0.3C409.2,306.7,409.2,306.7,409.1,306.7z"/>
					</g>
					<g>
						<path class="st14" d="M416.1,310.7c0,0-0.1,0-0.1,0l-4.6-2.7c-0.1-0.1-0.1-0.2-0.1-0.3c0.1-0.1,0.2-0.1,0.3-0.1l4.6,2.7
							c0.1,0.1,0.1,0.2,0.1,0.3C416.2,310.7,416.1,310.7,416.1,310.7z"/>
					</g>
				</g>
				<g>
					<g>
						<path class="st14" d="M406.8,308c0,0-0.1,0-0.1,0l-16.3-9.4c-0.1-0.1-0.1-0.2-0.1-0.3c0.1-0.1,0.2-0.1,0.3-0.1l16.3,9.4
							c0.1,0.1,0.1,0.2,0.1,0.3C406.9,308,406.8,308,406.8,308z"/>
					</g>
					<g>
						<path class="st14" d="M413.7,312.1c0,0-0.1,0-0.1,0l-4.6-2.7c-0.1-0.1-0.1-0.2-0.1-0.3c0.1-0.1,0.2-0.1,0.3-0.1l4.6,2.7
							c0.1,0.1,0.1,0.2,0.1,0.3C413.9,312,413.8,312.1,413.7,312.1z"/>
					</g>
				</g>
				<g>
					<g>
						<path class="st14" d="M404.4,309.4c0,0-0.1,0-0.1,0l-16.3-9.4c-0.1-0.1-0.1-0.2-0.1-0.3c0.1-0.1,0.2-0.1,0.3-0.1l16.3,9.4
							c0.1,0.1,0.1,0.2,0.1,0.3C404.6,309.3,404.5,309.4,404.4,309.4z"/>
					</g>
					<g>
						<path class="st14" d="M411.4,313.4c0,0-0.1,0-0.1,0l-4.6-2.7c-0.1-0.1-0.1-0.2-0.1-0.3c0.1-0.1,0.2-0.1,0.3-0.1l4.6,2.7
							c0.1,0.1,0.1,0.2,0.1,0.3C411.6,313.4,411.5,313.4,411.4,313.4z"/>
					</g>
				</g>
				<g>
					<g>
						<path class="st14" d="M402.1,310.7c0,0-0.1,0-0.1,0l-16.3-9.4c-0.1-0.1-0.1-0.2-0.1-0.3c0.1-0.1,0.2-0.1,0.3-0.1l16.3,9.4
							c0.1,0.1,0.1,0.2,0.1,0.3C402.3,310.7,402.2,310.7,402.1,310.7z"/>
					</g>
					<g>
						<path class="st14" d="M409.1,314.7c0,0-0.1,0-0.1,0l-4.6-2.7c-0.1-0.1-0.1-0.2-0.1-0.3c0.1-0.1,0.2-0.1,0.3-0.1l4.6,2.7
							c0.1,0.1,0.1,0.2,0.1,0.3C409.2,314.7,409.2,314.7,409.1,314.7z"/>
					</g>
				</g>
				<g>
					<g>
						<path class="st14" d="M399.8,312.1c0,0-0.1,0-0.1,0l-16.3-9.4c-0.1-0.1-0.1-0.2-0.1-0.3c0.1-0.1,0.2-0.1,0.3-0.1l16.3,9.4
							c0.1,0.1,0.1,0.2,0.1,0.3C399.9,312,399.9,312.1,399.8,312.1z"/>
					</g>
					<g>
						<path class="st14" d="M406.8,316.1c0,0-0.1,0-0.1,0l-4.6-2.7c-0.1-0.1-0.1-0.2-0.1-0.3c0.1-0.1,0.2-0.1,0.3-0.1l4.6,2.7
							c0.1,0.1,0.1,0.2,0.1,0.3C406.9,316,406.8,316.1,406.8,316.1z"/>
					</g>
				</g>
				<g>
					<g>
						<path class="st14" d="M397.5,313.4c0,0-0.1,0-0.1,0l-16.3-9.4c-0.1-0.1-0.1-0.2-0.1-0.3c0.1-0.1,0.2-0.1,0.3-0.1l16.3,9.4
							c0.1,0.1,0.1,0.2,0.1,0.3C397.6,313.4,397.5,313.4,397.5,313.4z"/>
					</g>
					<g>
						<path class="st14" d="M404.4,317.4c0,0-0.1,0-0.1,0l-4.6-2.7c-0.1-0.1-0.1-0.2-0.1-0.3c0.1-0.1,0.2-0.1,0.3-0.1l4.6,2.7
							c0.1,0.1,0.1,0.2,0.1,0.3C404.6,317.4,404.5,317.4,404.4,317.4z"/>
					</g>
				</g>
				<g>
					<g>
						<path class="st14" d="M395.1,314.7c0,0-0.1,0-0.1,0l-16.3-9.4c-0.1-0.1-0.1-0.2-0.1-0.3c0.1-0.1,0.2-0.1,0.3-0.1l16.3,9.4
							c0.1,0.1,0.1,0.2,0.1,0.3C395.3,314.7,395.2,314.7,395.1,314.7z"/>
					</g>
					<g>
						<path class="st14" d="M402.1,318.8c0,0-0.1,0-0.1,0l-4.6-2.7c-0.1-0.1-0.1-0.2-0.1-0.3c0.1-0.1,0.2-0.1,0.3-0.1l4.6,2.7
							c0.1,0.1,0.1,0.2,0.1,0.3C402.3,318.7,402.2,318.8,402.1,318.8z"/>
					</g>
				</g>
				<g>
					<g>
						<path class="st14" d="M392.8,316.1c0,0-0.1,0-0.1,0l-16.3-9.4c-0.1-0.1-0.1-0.2-0.1-0.3c0.1-0.1,0.2-0.1,0.3-0.1l16.3,9.4
							c0.1,0.1,0.1,0.2,0.1,0.3C393,316,392.9,316.1,392.8,316.1z"/>
					</g>
					<g>
						<path class="st14" d="M399.8,320.1c0,0-0.1,0-0.1,0l-4.6-2.7c-0.1-0.1-0.1-0.2-0.1-0.3c0.1-0.1,0.2-0.1,0.3-0.1l4.6,2.7
							c0.1,0.1,0.1,0.2,0.1,0.3C399.9,320.1,399.9,320.1,399.8,320.1z"/>
					</g>
				</g>
				<g>
					<g>
						<path class="st14" d="M390.5,317.4c0,0-0.1,0-0.1,0l-16.3-9.4c-0.1-0.1-0.1-0.2-0.1-0.3c0.1-0.1,0.2-0.1,0.3-0.1l16.3,9.4
							c0.1,0.1,0.1,0.2,0.1,0.3C390.6,317.4,390.6,317.4,390.5,317.4z"/>
					</g>
					<g>
						<path class="st14" d="M397.5,321.5c0,0-0.1,0-0.1,0l-4.6-2.7c-0.1-0.1-0.1-0.2-0.1-0.3c0.1-0.1,0.2-0.1,0.3-0.1l4.6,2.7
							c0.1,0.1,0.1,0.2,0.1,0.3C397.6,321.4,397.5,321.5,397.5,321.5z"/>
					</g>
				</g>
				<g>
					<g>
						<path class="st1" d="M385.8,320.1c0,0-0.1,0-0.1,0l-16.3-9.4c-0.1-0.1-0.1-0.2-0.1-0.3c0.1-0.1,0.2-0.1,0.3-0.1l16.3,9.4
							c0.1,0.1,0.1,0.2,0.1,0.3C386,320.1,385.9,320.1,385.8,320.1z"/>
					</g>
					<g>
						<path class="st1" d="M392.8,324.1c0,0-0.1,0-0.1,0l-4.6-2.7c-0.1-0.1-0.1-0.2-0.1-0.3c0.1-0.1,0.2-0.1,0.3-0.1l4.6,2.7
							c0.1,0.1,0.1,0.2,0.1,0.3C393,324.1,392.9,324.1,392.8,324.1z"/>
					</g>
				</g>
				<g>
					<path class="st1" d="M381.2,323.2c-0.1,0-0.2,0-0.3-0.1l-9.3-5.4c-0.3-0.2-0.4-0.5-0.2-0.8c0.2-0.3,0.5-0.4,0.8-0.2l9.3,5.4
						c0.3,0.2,0.4,0.5,0.2,0.8C381.6,323,381.4,323.2,381.2,323.2z"/>
				</g>
				<g>
					<path class="st14" d="M381.2,330.8c0,0-0.1,0-0.1,0l-23.2-13.4c-0.1-0.1-0.1-0.2-0.1-0.3c0.1-0.1,0.2-0.1,0.3-0.1l23.2,13.4
						c0.1,0.1,0.1,0.2,0.1,0.3C381.3,330.8,381.3,330.8,381.2,330.8z"/>
				</g>
				<g>
					<path class="st14" d="M378.8,332.2c0,0-0.1,0-0.1,0l-23.2-13.4c-0.1-0.1-0.1-0.2-0.1-0.3c0.1-0.1,0.2-0.1,0.3-0.1l23.2,13.4
						c0.1,0.1,0.1,0.2,0.1,0.3C379,332.1,378.9,332.2,378.8,332.2z"/>
				</g>
				<g>
					<path class="st14" d="M376.4,333.5c0,0-0.1,0-0.1,0L353.1,320c-0.1-0.1-0.1-0.2-0.1-0.3c0.1-0.1,0.2-0.1,0.3-0.1l23.2,13.4
						c0.1,0.1,0.1,0.2,0.1,0.3C376.6,333.4,376.5,333.5,376.4,333.5z"/>
				</g>
				<g>
					<path class="st14" d="M374.1,334.8c0,0-0.1,0-0.1,0l-23.2-13.4c-0.1-0.1-0.1-0.2-0.1-0.3c0.1-0.1,0.2-0.1,0.3-0.1l23.2,13.4
						c0.1,0.1,0.1,0.2,0.1,0.3C374.2,334.7,374.1,334.8,374.1,334.8z"/>
				</g>
				<g>
					<path class="st14" d="M360.3,342.9c0,0-0.1,0-0.1,0l-23.2-13.4c-0.1-0.1-0.1-0.2-0.1-0.3c0.1-0.1,0.2-0.1,0.3-0.1l23.2,13.4
						c0.1,0.1,0.1,0.2,0.1,0.3C360.4,342.9,360.3,342.9,360.3,342.9z"/>
				</g>
				<g>
					<path class="st14" d="M357.9,344.2c0,0-0.1,0-0.1,0l-23.2-13.4c-0.1-0.1-0.1-0.2-0.1-0.3c0.1-0.1,0.2-0.1,0.3-0.1l23.2,13.4
						c0.1,0.1,0.1,0.2,0.1,0.3C358,344.2,358,344.2,357.9,344.2z"/>
				</g>
				<g>
					<path class="st14" d="M364.9,334.9c0,0-0.1,0-0.1,0l-13.9-8.1c-0.1-0.1-0.1-0.2-0.1-0.3c0.1-0.1,0.2-0.1,0.3-0.1l13.9,8.1
						c0.1,0.1,0.1,0.2,0.1,0.3C365.1,334.8,365,334.9,364.9,334.9z"/>
				</g>
				<g>
					<path class="st14" d="M362.6,336.2c0,0-0.1,0-0.1,0l-13.9-8.1c-0.1-0.1-0.1-0.2-0.1-0.3c0.1-0.1,0.2-0.1,0.3-0.1l13.9,8.1
						c0.1,0.1,0.1,0.2,0.1,0.3C362.7,336.1,362.7,336.2,362.6,336.2z"/>
				</g>
				<g>
					<path class="st14" d="M360.3,337.5c0,0-0.1,0-0.1,0l-13.9-8.1c-0.1-0.1-0.1-0.2-0.1-0.3c0.1-0.1,0.2-0.1,0.3-0.1l13.9,8.1
						c0.1,0.1,0.1,0.2,0.1,0.3C360.4,337.5,360.4,337.5,360.3,337.5z"/>
				</g>
			</g>
		</g>
		<g id="Character_2_">
			<g id="XMLID_263_">
				<path id="XMLID_286_" class="st14" d="M479.3,300.1c-0.1,1.1-0.2,2.2,0.3,3.4c0.7,1.8,2,2.6,2.8,3.3c0.8,0.7,1.7,1.7,2.4,2.7
					c0.6,0.9,1.2,1.9,2.5,2.9c0.8,0.6,2.9,0.6,3.9,0.2c1-0.4,1.3-0.8,1.2-2.5c-0.1-1.6-5-2.1-5-2.1L479.3,300.1z"/>
				<path id="XMLID_284_" class="st17" d="M491.7,305.4c0.4,0.2,0.5,0.9,0.6,2.5c0.1,1.2,0.6,3-1,3.7c-1.3,0.6-3.5,0.3-4.4-0.8
					c-1.2-1.4-1.9-2.6-3.6-4.3c-1.4-1.5-2.9-1.9-3.6-4.9c-0.4-1.9-0.1-2.7,1.1-3.3c1.8-0.8,4.6,1.6,6,2
					C488.1,300.6,491.2,305.3,491.7,305.4z"/>
				<path id="XMLID_283_" class="st11" d="M486.9,300.3c-0.1,0-0.2,0-0.2-0.1c-2.6,0.3-3.6,2.1-3.8,2.6c-0.2,0.5,0.5,0.9,0.9,0.5
					c1-2,3-2.5,3.8-2.6C487.3,300.5,487.1,300.4,486.9,300.3z"/>
				<path id="XMLID_282_" class="st11" d="M488,301.2c-2.4,0.4-3.3,2.1-3.5,2.6c-0.2,0.5,0.5,0.9,0.9,0.5c0.8-1.6,2.2-2.2,3.2-2.5
					C488.4,301.6,488.2,301.4,488,301.2z"/>
				<g id="XMLID_272_">
					<path id="XMLID_281_" class="st14" d="M457.5,325.2c-0.2,1.4,0.3,2,2,3c1.8,1,4.5,1.3,7.3,0.4c2.9-0.9,4.2-2.2,5.4-2.5
						c1.2-0.3,4.1-0.4,5.3-0.8c1.2-0.4,1.1-1,1.1-2.4L457.5,325.2z"/>
					<g id="XMLID_277_">
						<g>
							<path id="XMLID_278_" class="st17" d="M477.3,316.1c0,0,0.6,1.7,0.9,3.2c0.3,1.2,0.6,3.1,0.3,4c-0.4,0.9-2,1.5-4.5,1.5
								c-1.6,0-4.1,1.2-5.8,2.2c-1.8,1-3.7,1.1-5.6,0.9c-2.2-0.2-4.6-1.5-4.9-2.4c-0.4-0.9-0.5-1.6,4.7-3.9c0,0,6-2.4,8.5-5.2
								L477.3,316.1z"/>
						</g>
					</g>
					<path id="XMLID_276_" class="st11" d="M467.5,327.3c0,0-0.5-4.5-4.2-5.7c-3.3-1.1-6.2,1.4-5.8,3.5
						C457.7,326.6,461.8,329.8,467.5,327.3z"/>
					<path id="XMLID_275_" class="st11" d="M464.2,320.8c0,0,1.2,0,2.5,1.1c1.1,0.9,1.1,1.5,1.1,1.5c0.2,0.4,1,0.1,0.9-0.5
						c0,0-0.3-2.3-3.3-2.7C465.5,320.1,464.6,320,464.2,320.8z"/>
					<path id="XMLID_274_" class="st11" d="M466.2,319.7c0,0,1.2-0.1,2.5,1c1.1,0.9,1.1,1.6,1.1,1.6c0.2,0.4,1,0.1,0.9-0.5
						c0,0-0.3-2.3-3.3-2.7C467.5,319.1,466.7,318.9,466.2,319.7z"/>
					<path id="XMLID_273_" class="st11" d="M468.3,318.5c0,0,1.2-0.2,2.6,0.8c1.1,0.8,1.2,1.5,1.2,1.5c0.3,0.3,1,0.1,0.9-0.5
						c0,0-0.4-2.2-3.5-2.4C469.5,317.8,468.7,317.7,468.3,318.5z"/>
				</g>
				<g id="XMLID_270_">
					<path id="XMLID_271_" class="st18" d="M491.6,302.8l0.1,3.1c0,0-2,1.6-4.9,0.2c-0.1-0.2-0.4-3.2-0.4-3.2L491.6,302.8z"/>
				</g>
				<g id="XMLID_268_">
					<path id="XMLID_269_" class="st18" d="M477.3,314c0,0,0,1.4,0,2.3c0,0.8-0.9,2.1-3.5,2c-1.8,0-3-0.5-3-1.9l0-2.1L477.3,314z"/>
				</g>
				<g id="XMLID_266_">
					<path id="XMLID_267_" class="st14" d="M494.4,276.9c-0.3-6.4-1.7-9.2-1.7-9.2s0.3-8,1.2-17.7c1.3-14.9,0.2-17.1-2.9-23.7
						c0,0-24.6-2.7-25.2,7.7c-0.7,12.9-0.8,37.6-0.4,42.2c0.4,4.6,0.7,6.3,2,15.5c1,7.3,3.4,22.6,3.4,22.6c3.3,1.7,6.4-0.3,6.4-0.3
						s1.6-24.2,1.2-29.4c-0.4-6.4-0.8-8.1-0.8-8.1s2.5-20.9,2.9-24.2c0,0,0.5,6,1,10.5c0.4,4.6,0.5,8.2,1.6,17.6
						c0.9,7.4,3,23.3,3,23.3c3,1.2,5.4-0.5,5.4-0.5S494.6,282.1,494.4,276.9z"/>
				</g>
				<path id="XMLID_265_" class="st11" d="M480.6,303.8c0,0,0.1-3.6,4.9-4.2l0.3,0.2c0,0-0.8-1.4-2.4-1.8c-1.6-0.4-2.9,0-3.7,1.1
					C478.8,300.3,479.7,303.1,480.6,303.8z"/>
				<path id="XMLID_264_" class="st19" d="M480.6,252.3l0.3-4.3c0,0,3.7-1.2,7.6-3.8c0,0-1.7,3.4-6.1,4.7l-0.8,4.2l-0.1,9.8
					L480.6,252.3z"/>
			</g>
			<g>
				<g>
					<g id="XMLID_251_">
						<g id="XMLID_253_">
							<g id="XMLID_254_">
								<path id="XMLID_262_" class="st18" d="M514.6,278.6l-7.6,22.1c-0.2,0.6-1.1,0.6-1.3,0l-7.5-22.3L514.6,278.6z"/>
								<path id="XMLID_261_" class="st20" d="M505.7,300.8c0.2,0.6,1.1,0.6,1.3,0l1.5-4.3l0,0c-1.3,0.7-2.9,0.6-4.1-0.2l-0.3-0.2
									L505.7,300.8z"/>
								<path id="XMLID_259_" class="st17" d="M498.5,179.7l0,2.2l0,2.6l-0.3,93.9c1.7,2,4.3,3,6.9,3.3c4,0.4,8-0.9,9.5-3.1
									l0.3-93.9l0-5C514.7,183,498.3,183,498.5,179.7z"/>
								<path id="XMLID_258_" class="st21" d="M498.4,188l0,4.8c0,1.4,2.9,2.3,6.4,2.6c4.6,0.4,10-0.8,10-2.7l0-3.6l0-1.3
									c-0.1,1.9-5.5,3.1-10,2.7c-3.3-0.3-6.2-1.2-6.4-2.5l0,0C498.4,188.1,498.4,188,498.4,188z"/>
								<path id="XMLID_256_" class="st1" d="M498.4,189.2c-0.1,3.3,16.3,3.2,16.4,0l0-4.8c-0.1,3.3-16.5,3.3-16.4,0L498.4,189.2z"
									/>
								<path id="XMLID_255_" class="st21" d="M498.5,179.7l0,4.8c-0.1,3.2,15.7,3.3,16.4,0.2c0-0.1,0-0.1,0-0.2l0-4.8
									C514.7,183,498.3,183,498.5,179.7z"/>
							</g>
						</g>
						<path class="st22" d="M515,159.3c0,0,0-0.2,0-0.2c0-2.3-3.7-4.2-8.2-4.2c-4.5,0-8.2,1.9-8.2,4.2v2.2l-0.1,18.5
							c-0.1,1.4,2.9,2.3,6.3,2.6c4.6,0.4,10-0.8,10.1-2.6c0,0,0,0,0,0l0.1-20.3C515,159.4,515,159.3,515,159.3z"/>
						<ellipse class="st23" cx="506.8" cy="159.1" rx="8.2" ry="4.2"/>
						<path id="XMLID_252_" class="st24" d="M514.9,184.8l0.1-25.5c-0.1,2-3.5,3.9-7.2,4l-0.3,118.5l-0.4,19l7.6-22.1l0,0
							c0,0,0,0,0,0L514.9,184.8z"/>
					</g>
					<g>
						<path class="st18" d="M487.9,195.9c3.1-0.5,6.3,0.9,9,4.7c2.7,3.8,12.1,12.8,13.1,15.7c0.7,2.1,1,8-3.4,6.1
							c-4.3-1.8-18.9-16.4-18.9-16.4L487.9,195.9z"/>
						<path class="st13" d="M487.8,195.6c1.7-0.4,4.3,0.2,5.6,1.1c1.3,0.9,3.9,3.9,6.9,7.2c3,3.4,4.4,5.4,4.4,5.4s-0.1,5.3-5.7,7.8
							l-11.6-9.8L487.8,195.6z"/>
						<path class="st18" d="M507.1,213l7.7-6.9l0-7.3c0,0,1.5,0.5,2.1,2.9c0.6,2.4,1.4,5.1,1.1,7.1c-0.3,2-6.6,13.2-9.1,13.9
							C506,223.7,507.1,213,507.1,213z"/>
					</g>
				</g>
				<g id="XMLID_231_">
					<polygon id="XMLID_250_" class="st18" points="475.5,192.1 476.6,201.5 485.3,199.5 484.2,187 					"/>
					<g id="XMLID_248_">
						<path id="XMLID_249_" class="st12" d="M494.4,200.6c-0.5-2.6-3.9-5.4-7.2-4.9c-0.8,0.1-1.5,0.2-2.2,0.4
							c-0.4,1.6-4.7,2.6-8.9,1.6c-1.2,0.3-5.4,1.1-6.4,1.4c-3,1-4.2,3.9-4.7,13.6c0,0,0.2,22,0.1,26.3c7.3,3.1,15,3.2,19.3,2.3
							c8.9-1.7,10.1-5.4,10.1-5.4l-1.3-10C493.3,226,495.5,206.5,494.4,200.6z"/>
						<path class="st13" d="M475.9,195.2L475.9,195.2c0,0,2.6,0.9,5.5,0.2s3.5-1.1,3.5-1.1l-0.1-0.7c0,0,0.5,0,1.1,0.8
							c0.7,0.9,0.9,1.3,0.9,1.3s-0.2,2.1-3.6,3.1c-4.9,1.5-8.4-0.9-8.4-0.9l-1.3,0.3c0,0,1.1-2.6,1.5-3.2c0.3-0.5,0.8-0.5,0.8-0.5
							L475.9,195.2z"/>
					</g>
					<g id="XMLID_246_">
						<path id="XMLID_247_" class="st22" d="M469.3,180.6c0,0-2.2,3.4-2,3.7c0.3,0.3,1.9,0.6,1.9,0.6L469.3,180.6z"/>
					</g>
					<g id="XMLID_242_">
						<path id="XMLID_243_" class="st20" d="M470.3,182.8c-1.5,0-2.6-1.2-2.6-2.6c0-1.5,1.2-2.6,2.6-2.6s2.6,1.2,2.6,2.6
							C473,181.6,471.8,182.8,470.3,182.8z M470.3,178.1c-1.1,0-2.1,0.9-2.1,2.1c0,1.1,0.9,2.1,2.1,2.1c1.1,0,2.1-0.9,2.1-2.1
							C472.4,179,471.5,178.1,470.3,178.1z"/>
					</g>
					<g id="XMLID_240_">
						<path id="XMLID_241_" class="st18" d="M475.4,171.3c-4.5,0.9-5.8,2.9-6.2,10c-0.4,7.4,0.3,9.8,1.3,10.8
							c0.7,0.7,4.3,0.8,6.2,0.3c2.3-0.6,7.5-2.5,10-6.2c2.9-4.4,3.6-10.4,0.6-12.8C482.9,169.9,477.3,170.9,475.4,171.3z"/>
					</g>
					<path class="st22" d="M475.6,192.6l-0.2-1.4c0,0-2.2,1.2-4.6,1C471.7,192.7,473.9,192.8,475.6,192.6z"/>
					<polygon id="XMLID_239_" class="st20" points="467.9,179.6 475.9,180.6 475.6,181.2 467.9,180.2 					"/>
					<g id="XMLID_232_">
						<g id="XMLID_236_">
							<g id="XMLID_237_">
								<path id="XMLID_238_" class="st20" d="M468.5,174.2c0.3,0.1,0.7,0,1-0.1c-0.3,0.6,0,1.4,0.5,1.9c0.6,0.4,1.3,0.5,2,0.3
									c-0.2,0.4-0.3,0.9-0.2,1.4c0.2,1,1.3,1.8,2.3,1.7c0,1,0.1,2.1,1.2,2.5c0,0,0.7-2.7,3-2.4c2.3,0.3,2.6,3.3,1.2,5.1
									c-1.5,1.8-2.8,1.1-2.8,1.1c0.1,0.5,0.2,1,0.4,1.3c0.4,0.9,1.2,1.6,2,2.2c1.3,0.9,3.4,1.5,5.6,1.5c0.7-2.1,1.9-3.7,3.2-5.5
									c1-1.4,2.3-3.1,2.8-4.8c0.6-2,0.6-3.9,0.1-5.6c-0.5-1.7-1.2-2.9-3-3.4c-0.4-2.2-2.6-3.4-4.7-4.4c-2-1-4.5-1-6.6-0.1
									c-0.7-0.8-1.3-1.7-2.4-2.2c-0.8-0.4-2-0.3-2.5,0.5c-0.5,0.6-0.4,1.4-0.4,2.1c-0.9-0.1-1.8-0.1-2.6,0.2
									c-0.8,0.3-1.5,1-1.6,1.9c-0.2,0.8,0.3,1.8,1.1,2.1c-0.6,0.4-0.8,1.2-0.6,1.8C467.6,173.8,468,174.1,468.5,174.2z"/>
							</g>
						</g>
						<g id="XMLID_233_">
							<g id="XMLID_234_">
								<path id="XMLID_235_" class="st20" d="M475.3,183.4l0.1-3.1c-0.9,0-1.6,0.7-1.6,1.5C473.7,182.7,474.4,183.4,475.3,183.4z"
									/>
							</g>
						</g>
					</g>
				</g>
				<g>
					<g id="XMLID_45_">
						<g id="XMLID_48_">
							<g id="XMLID_228_">
								<path id="XMLID_230_" class="st20" d="M446.2,215l18.6,10l0.3,0.5v0.4c0,0.2-0.1,0.4-0.3,0.5l-13.9,8
									c-0.1,0.1-0.3,0.1-0.5,0.1s-0.4,0-0.5-0.1l-18.3-10.6v-0.4L446.2,215z"/>
								<path id="XMLID_229_" class="st14" d="M450.4,234.1c0.2,0,0.4,0,0.5-0.1l13.9-8c0.2-0.1,0.3-0.3,0.3-0.5
									c0-0.2-0.1-0.4-0.3-0.5l-17.9-10.4l-15.2,8.8l18.3,10.6C450.1,234,450.3,234.1,450.4,234.1z"/>
							</g>
							<g id="XMLID_224_">
								<path id="XMLID_227_" class="st12" d="M446.9,213.5l17.8,10.3l0.1,0.2v1.5l0,0c0,0.1,0,0.1-0.1,0.2l-13.9,8
									c-0.2,0.1-0.5,0.1-0.7,0l-17.8-10.3v-1.5L446.9,213.5z"/>
								<path id="XMLID_226_" class="st21" d="M432.3,221.9l0.2,0.1l2.3,1.3l0.4,0.2l14.9,8.6c0.2,0.1,0.5,0.1,0.7,0l13.9-8
									c0.2-0.1,0.2-0.3,0-0.4l-0.2-0.1l-17.6-10.2l-14.4,8.3l0,0L432.3,221.9z"/>
								<path id="XMLID_225_" class="st13" d="M450.4,232.2v1.5c0.1,0,0.3,0,0.3-0.1l13.9-8c0.1-0.1,0.1-0.1,0.1-0.2V224
									c0,0.1,0,0.1-0.1,0.2l-13.9,8C450.7,232.2,450.6,232.2,450.4,232.2z"/>
							</g>
							<g>
								<path id="XMLID_223_" class="st11" d="M432.3,221.7l2.5,1.5l0.4,0.2l14.9,8.6c0.2,0.1,0.5,0.1,0.7,0l11.8-6.8
									c0.2-0.1,0.3-0.2,0.4-0.3c0.7-0.4,1.1-0.8,1.4-1.2c0,0,0,0,0-0.1c0,0,0-0.1,0-0.1c0-0.2-0.1-0.3-0.2-0.4
									c-0.3-0.1-0.9-0.3-1.3-0.6c0,0,0,0,0,0l-16.1-9.3L432.3,221.7z"/>
							</g>
							<g>
								<path class="st13" d="M438.1,222.5l9.9-5.7c0.1-0.1,0.3-0.1,0.4,0l0,0c0.1,0.1,0.1,0.2,0,0.3l-9.9,5.7
									c-0.1,0.1-0.3,0.1-0.4,0l0,0C438,222.6,438,222.5,438.1,222.5z"/>
								<path class="st13" d="M439.1,223l9.9-5.7c0.1-0.1,0.3-0.1,0.4,0l0,0c0.1,0.1,0.1,0.2,0,0.3l-9.9,5.7c-0.1,0.1-0.3,0.1-0.4,0
									l0,0C438.9,223.2,438.9,223.1,439.1,223z"/>
								<path class="st13" d="M440,223.6l9.9-5.7c0.1-0.1,0.3-0.1,0.4,0l0,0c0.1,0.1,0.1,0.2,0,0.3l-9.9,5.7c-0.1,0.1-0.3,0.1-0.4,0
									l0,0C439.9,223.7,439.9,223.6,440,223.6z"/>
								<path class="st13" d="M446.9,227.6l9.9-5.7c0.1-0.1,0.3-0.1,0.4,0l0,0c0.1,0.1,0.1,0.2,0,0.3l-9.9,5.7
									c-0.1,0.1-0.3,0.1-0.4,0l0,0C446.8,227.7,446.8,227.6,446.9,227.6z"/>
								<g>
									<text transform="matrix(0.866 -0.5 0.866 0.5 452.7378 223.3845)" class="st13 st29 st30">544</text>
									<text transform="matrix(0.866 -0.5 0.866 0.5 451.0818 222.4285)" class="st13 st29 st30">216</text>
									<text transform="matrix(0.866 -0.5 0.866 0.5 449.5308 221.533)" class="st13 st29 st30">954</text>
									<text transform="matrix(0.866 -0.5 0.866 0.5 449.1394 223.0128)" class="st13 st29 st30">+</text>
								</g>
								<g>
									<text transform="matrix(0.866 -0.5 0.866 0.5 447.8243 226.2262)" class="st13 st29 st30">914</text>
									<text transform="matrix(0.866 -0.5 0.866 0.5 446.1692 225.2706)" class="st13 st29 st30">356</text>
									<text transform="matrix(0.866 -0.5 0.866 0.5 444.6181 224.3751)" class="st13 st29 st30">984</text>
									<text transform="matrix(0.866 -0.5 0.866 0.5 444.2278 225.8553)" class="st13 st29 st30">+</text>
								</g>
							</g>
							<g id="XMLID_193_">
								<g id="XMLID_218_">
									<path id="XMLID_222_" class="st24" d="M434.9,221.5c0.2,0.1,0.2,0.3,0,0.4c-0.2,0.1-0.5,0.1-0.7,0c-0.2-0.1-0.2-0.3,0-0.4
										C434.5,221.4,434.7,221.4,434.9,221.5z"/>
									<path id="XMLID_220_" class="st15" d="M432.4,221.3c0,0.1,0,0.2,0,0.3l0.2-0.1c0-0.1,0-0.1,0-0.2c0-0.4,0.1-0.7,0.3-0.8
										c0.1,0,0.1-0.1,0.2-0.1c0.1,0,0.3,0,0.4,0.1c0.4,0.3,0.8,0.8,1,1.4c0.1,0,0.2,0,0.2,0c-0.2-0.7-0.6-1.3-1.1-1.6
										c-0.3-0.2-0.6-0.2-0.9-0.1C432.5,220.5,432.4,220.8,432.4,221.3z"/>
									<path id="XMLID_219_" class="st20" d="M432.4,221.8C432.4,221.8,432.4,221.8,432.4,221.8L432.4,221.8L432.4,221.8z"/>
								</g>
								<g id="XMLID_214_">
									<path id="XMLID_217_" class="st24" d="M436.9,220.4c0.2,0.1,0.2,0.3,0,0.4c-0.2,0.1-0.5,0.1-0.7,0c-0.2-0.1-0.2-0.3,0-0.4
										S436.7,220.3,436.9,220.4z"/>
									<path id="XMLID_215_" class="st15" d="M434.3,220.2c0,0.1,0,0.2,0,0.3l0.2-0.1c0-0.1,0-0.1,0-0.2c0-0.4,0.1-0.7,0.3-0.8
										c0.1,0,0.1-0.1,0.2-0.1c0.1,0,0.3,0,0.4,0.1c0.4,0.3,0.8,0.8,1,1.4c0.1,0,0.2,0,0.2,0c-0.2-0.7-0.6-1.3-1.1-1.6
										c-0.3-0.2-0.6-0.2-0.9-0.1C434.5,219.3,434.3,219.7,434.3,220.2z"/>
								</g>
								<g id="XMLID_210_">
									<path id="XMLID_213_" class="st24" d="M438.8,219.2c0.2,0.1,0.2,0.3,0,0.4c-0.2,0.1-0.5,0.1-0.7,0c-0.2-0.1-0.2-0.3,0-0.4
										C438.4,219.1,438.7,219.1,438.8,219.2z"/>
									<path id="XMLID_211_" class="st15" d="M436.3,219c0,0.1,0,0.2,0,0.3l0.2-0.1c0-0.1,0-0.1,0-0.2c0-0.4,0.1-0.7,0.3-0.8
										c0.1,0,0.1-0.1,0.2-0.1c0.1,0,0.3,0,0.4,0.1c0.4,0.3,0.8,0.8,1,1.4c0.1,0,0.2,0,0.2,0c-0.2-0.7-0.6-1.3-1.1-1.6
										c-0.3-0.2-0.6-0.2-0.9-0.1C436.5,218.2,436.3,218.6,436.3,219z"/>
								</g>
								<g id="XMLID_206_">
									<path id="XMLID_209_" class="st24" d="M440.8,218.1c0.2,0.1,0.2,0.3,0,0.4c-0.2,0.1-0.5,0.1-0.7,0c-0.2-0.1-0.2-0.3,0-0.4
										C440.3,218,440.6,218,440.8,218.1z"/>
									<path id="XMLID_207_" class="st15" d="M438.3,217.9c0,0.1,0,0.2,0,0.3l0.2-0.1c0-0.1,0-0.1,0-0.2c0-0.4,0.1-0.7,0.3-0.8
										c0.1,0,0.1-0.1,0.2-0.1c0.1,0,0.3,0,0.4,0.1c0.4,0.3,0.8,0.8,1,1.4c0.1,0,0.2,0,0.2,0c-0.2-0.7-0.6-1.3-1.1-1.6
										c-0.3-0.2-0.6-0.2-0.9-0.1C438.4,217.1,438.3,217.4,438.3,217.9z"/>
								</g>
								<g id="XMLID_202_">
									<path id="XMLID_205_" class="st24" d="M442.8,217c0.2,0.1,0.2,0.3,0,0.4c-0.2,0.1-0.5,0.1-0.7,0c-0.2-0.1-0.2-0.3,0-0.4
										C442.3,216.9,442.6,216.9,442.8,217z"/>
									<path id="XMLID_203_" class="st15" d="M440.2,216.8c0,0.1,0,0.2,0,0.3l0.2-0.1c0-0.1,0-0.1,0-0.2c0-0.4,0.1-0.7,0.3-0.8
										c0.1,0,0.1-0.1,0.2-0.1c0.1,0,0.3,0,0.4,0.1c0.4,0.3,0.8,0.8,1,1.4c0.1,0,0.2,0,0.2,0c-0.2-0.7-0.6-1.3-1.1-1.6
										c-0.3-0.2-0.6-0.2-0.9-0.1C440.4,215.9,440.2,216.3,440.2,216.8z"/>
								</g>
								<g id="XMLID_198_">
									<path id="XMLID_201_" class="st24" d="M444.7,215.8c0.2,0.1,0.2,0.3,0,0.4c-0.2,0.1-0.5,0.1-0.7,0c-0.2-0.1-0.2-0.3,0-0.4
										C444.3,215.7,444.6,215.7,444.7,215.8z"/>
									<path id="XMLID_199_" class="st15" d="M442.2,215.6c0,0.1,0,0.2,0,0.3l0.2-0.1c0-0.1,0-0.1,0-0.2c0-0.4,0.1-0.7,0.3-0.8
										c0.1,0,0.1-0.1,0.2-0.1c0.1,0,0.3,0,0.4,0.1c0.4,0.3,0.8,0.8,1,1.4c0.1,0,0.2,0,0.2,0c-0.2-0.7-0.6-1.3-1.1-1.6
										c-0.3-0.2-0.6-0.2-0.9-0.1C442.4,214.8,442.2,215.2,442.2,215.6z"/>
								</g>
								<g id="XMLID_194_">
									<path id="XMLID_197_" class="st24" d="M446.7,214.7c0.2,0.1,0.2,0.3,0,0.4c-0.2,0.1-0.5,0.1-0.7,0c-0.2-0.1-0.2-0.3,0-0.4
										C446.2,214.6,446.5,214.6,446.7,214.7z"/>
									<path id="XMLID_195_" class="st15" d="M444.2,214.5c0,0.1,0,0.2,0,0.3l0.2-0.1c0-0.1,0-0.1,0-0.2c0-0.4,0.1-0.7,0.3-0.8
										c0.1,0,0.1-0.1,0.2-0.1c0.1,0,0.3,0,0.4,0.1c0.4,0.3,0.8,0.8,1,1.4c0.1,0,0.2,0,0.2,0c-0.2-0.7-0.6-1.3-1.1-1.6
										c-0.3-0.2-0.6-0.2-0.9-0.1C444.3,213.7,444.2,214,444.2,214.5z"/>
								</g>
							</g>
							<g class="st4">
								<path id="XMLID_189_" class="st1" d="M432.4,221.3c0,0.1,0,0.2,0,0.3l0.2-0.1c0-0.1,0-0.1,0-0.2c0-0.4,0.1-0.7,0.3-0.8
									c0.1,0,0.1-0.1,0.2-0.1c0.1,0,0.3,0,0.4,0.1c0.4,0.3,0.8,0.8,1,1.4c0.1,0,0.2,0,0.2,0c-0.2-0.7-0.6-1.3-1.1-1.6
									c-0.3-0.2-0.6-0.2-0.9-0.1C432.5,220.5,432.4,220.8,432.4,221.3z"/>
								<path id="XMLID_185_" class="st1" d="M434.3,220.2c0,0.1,0,0.2,0,0.3l0.2-0.1c0-0.1,0-0.1,0-0.2c0-0.4,0.1-0.7,0.3-0.8
									c0.1,0,0.1-0.1,0.2-0.1c0.1,0,0.3,0,0.4,0.1c0.4,0.3,0.8,0.8,1,1.4c0.1,0,0.2,0,0.2,0c-0.2-0.7-0.6-1.3-1.1-1.6
									c-0.3-0.2-0.6-0.2-0.9-0.1C434.5,219.3,434.3,219.7,434.3,220.2z"/>
								<path id="XMLID_181_" class="st1" d="M436.3,219c0,0.1,0,0.2,0,0.3l0.2-0.1c0-0.1,0-0.1,0-0.2c0-0.4,0.1-0.7,0.3-0.8
									c0.1,0,0.1-0.1,0.2-0.1c0.1,0,0.3,0,0.4,0.1c0.4,0.3,0.8,0.8,1,1.4c0.1,0,0.2,0,0.2,0c-0.2-0.7-0.6-1.3-1.1-1.6
									c-0.3-0.2-0.6-0.2-0.9-0.1C436.5,218.2,436.3,218.6,436.3,219z"/>
								<path id="XMLID_177_" class="st1" d="M438.3,217.9c0,0.1,0,0.2,0,0.3l0.2-0.1c0-0.1,0-0.1,0-0.2c0-0.4,0.1-0.7,0.3-0.8
									c0.1,0,0.1-0.1,0.2-0.1c0.1,0,0.3,0,0.4,0.1c0.4,0.3,0.8,0.8,1,1.4c0.1,0,0.2,0,0.2,0c-0.2-0.7-0.6-1.3-1.1-1.6
									c-0.3-0.2-0.6-0.2-0.9-0.1C438.4,217.1,438.3,217.4,438.3,217.9z"/>
								<path id="XMLID_173_" class="st1" d="M440.2,216.8c0,0.1,0,0.2,0,0.3l0.2-0.1c0-0.1,0-0.1,0-0.2c0-0.4,0.1-0.7,0.3-0.8
									c0.1,0,0.1-0.1,0.2-0.1c0.1,0,0.3,0,0.4,0.1c0.4,0.3,0.8,0.8,1,1.4c0.1,0,0.2,0,0.2,0c-0.2-0.7-0.6-1.3-1.1-1.6
									c-0.3-0.2-0.6-0.2-0.9-0.1C440.4,215.9,440.2,216.3,440.2,216.8z"/>
								<path id="XMLID_169_" class="st1" d="M442.2,215.6c0,0.1,0,0.2,0,0.3l0.2-0.1c0-0.1,0-0.1,0-0.2c0-0.4,0.1-0.7,0.3-0.8
									c0.1,0,0.1-0.1,0.2-0.1c0.1,0,0.3,0,0.4,0.1c0.4,0.3,0.8,0.8,1,1.4c0.1,0,0.2,0,0.2,0c-0.2-0.7-0.6-1.3-1.1-1.6
									c-0.3-0.2-0.6-0.2-0.9-0.1C442.4,214.8,442.2,215.2,442.2,215.6z"/>
								<path id="XMLID_49_" class="st1" d="M444.2,214.5c0,0.1,0,0.2,0,0.3l0.2-0.1c0-0.1,0-0.1,0-0.2c0-0.4,0.1-0.7,0.3-0.8
									c0.1,0,0.1-0.1,0.2-0.1c0.1,0,0.3,0,0.4,0.1c0.4,0.3,0.8,0.8,1,1.4c0.1,0,0.2,0,0.2,0c-0.2-0.7-0.6-1.3-1.1-1.6
									c-0.3-0.2-0.6-0.2-0.9-0.1C444.3,213.7,444.2,214,444.2,214.5z"/>
							</g>
						</g>
					</g>
					<g>
						<path class="st18" d="M449.5,233.2c3.5-0.3,16-1.3,17-3.6c1.2-2.9,6.2-18.6,6.2-18.6s1.6-10.6-3.5-11c-2.2,0.4-4.2,1.6-5,5.5
							c-0.4,2.1-2.7,10.3-4.6,19.4c0,0-13.4,4.1-14.4,3.8c-1-0.3-1-1.3-1.8-2.4c-0.8-1.1-1.3-2.6-2-2.2c-0.6,0.4-0.2,2.2,0,3.1
							c0.2,0.9-0.3,1.7-0.3,1.7s-0.6-0.2-1.1-0.4c-0.3-0.1-4.9-2.8-4.9-2.8s-0.4,2.9,1,4.4c1.8,2.1,4.3,2.8,6.6,3.2
							C445.3,233.6,446,233.5,449.5,233.2z"/>
					</g>
				</g>
				<path class="st13" d="M469.8,199.1c-3,0.6-5,1.4-6.1,5.3c-1,3.9-3.3,13-3.3,13s4.7,3.8,9.5,3.6l3-10.3
					C473,210.8,475.5,201.5,469.8,199.1z"/>
			</g>
		</g>
		<g id="Speech_Bubble_3_">
			<g id="Speech_Bubble_4_">
				<g>
					<path class="st15" d="M482.3,145.2l-5.9,3.4l2.4,5.3c0.1,0.1,0.1,0.2,0.2,0.3c0.3,0.2,2,1.1,2,1.2c0.3,0.2,0.7,0,0.8-0.3
						l2.6-8.7L482.3,145.2z"/>
					<path class="st17" d="M482.3,145.2l-5.9,3.4l2.4,5.3c0.1,0.1,0.1,0.2,0.2,0.3c0.3,0.2,2,1.1,2,1.2c0.3,0.2,0.7,0,0.8-0.3
						l2.6-8.7L482.3,145.2z"/>
				</g>
				<g>
					<path id="XMLID_44_" class="st15" d="M490.7,108.6l-24.6,14.2c-0.3,0.2-0.6,0.6-0.6,1v30.5c0,0.4,0.3,0.8,0.6,1l2,1.1
						c0.3,0.2,0.8,0.2,1.1,0l24.6-14.2c0.3-0.2,0.6-0.6,0.6-1v-30.5c0-0.4-0.3-0.8-0.6-1l-2-1.1C491.5,108.4,491,108.4,490.7,108.6z
						"/>
					<path id="XMLID_40_" class="st25" d="M494.4,110.6c0-0.3-0.3-0.4-0.6-0.2l-24.6,14.2c-0.2,0.1-0.3,0.2-0.4,0.4l-3.1-1.8
						c0.1-0.2,0.2-0.3,0.4-0.4l24.6-14.2c0.3-0.2,0.8-0.2,1.1,0l2,1.1C494.1,109.9,494.3,110.2,494.4,110.6z"/>
					<path class="st1" d="M493.8,110.4l-24.6,14.2c-0.3,0.2-0.6,0.6-0.6,1V156c0,0.4,0.3,0.5,0.6,0.3l9.6-5.5l1.9,4.3
						c0.2,0.5,0.9,0.4,1-0.1l2.1-7.2l9.9-5.7c0.3-0.2,0.6-0.6,0.6-1v-30.5C494.4,110.3,494.1,110.2,493.8,110.4z"/>
					<path id="XMLID_2_" class="st17" d="M469.2,156.3c-0.3,0.2-0.8,0.2-1.1,0l-2-1.1c-0.3-0.2-0.6-0.6-0.6-1v-30.5
						c0-0.2,0.1-0.4,0.2-0.6l3.1,1.8c-0.1,0.2-0.2,0.4-0.2,0.6V156C468.7,156.3,468.9,156.5,469.2,156.3z"/>
				</g>
			</g>
			<path class="st11" d="M479,127.1c0,0.6,0,1.1,0,1.6c0,0.5,0,1,0,1.6c-0.1,1.3-0.4,2.6-1,3.7c-0.6,1.1-1.4,2-2.4,2.5
				c-1,0.6-1.8,0.6-2.4,0.2c-0.6-0.4-0.9-1.2-1-2.5c0-0.5,0-1,0-1.5c0-0.5,0-1,0-1.6c0.1-1.3,0.4-2.6,1-3.7c0.6-1.1,1.4-2,2.4-2.5
				c1-0.6,1.8-0.7,2.4-0.3C478.6,125,478.9,125.9,479,127.1z M485,120.3c0.1-0.3,0.2-0.5,0.3-0.6c0.1-0.2,0.3-0.3,0.5-0.4l2.2-1.3
				c0.2-0.1,0.3-0.1,0.4,0c0.1,0.1,0.1,0.2,0.1,0.4c0,0,0,0.1,0,0.2c0,0.1,0,0.1-0.1,0.2l-10.4,27c-0.1,0.3-0.2,0.5-0.3,0.6
				c-0.1,0.2-0.3,0.3-0.5,0.4L475,148c-0.2,0.1-0.3,0.1-0.4,0c-0.1-0.1-0.1-0.2-0.1-0.4c0,0,0-0.1,0-0.2c0-0.1,0-0.1,0.1-0.2
				L485,120.3z M474.9,132.8c0,0.4,0.1,0.6,0.2,0.8c0.1,0.2,0.3,0.2,0.5,0.1c0.2-0.1,0.4-0.4,0.5-0.6c0.1-0.3,0.2-0.6,0.2-1
				c0.1-1.2,0.1-2.4,0-3.5c0-0.4-0.1-0.6-0.2-0.8c-0.1-0.2-0.3-0.2-0.5-0.1c-0.2,0.1-0.4,0.4-0.5,0.6c-0.1,0.3-0.2,0.6-0.2,1
				C474.9,130.5,474.9,131.6,474.9,132.8z M491,131.7c0,0.6,0,1.1,0,1.6c0,0.5,0,1,0,1.6c-0.1,1.3-0.4,2.6-1,3.7
				c-0.6,1.1-1.4,2-2.4,2.5c-1,0.6-1.8,0.6-2.4,0.2c-0.6-0.4-0.9-1.2-1-2.5c0-0.5,0-1,0-1.5s0-1,0-1.6c0.1-1.3,0.4-2.6,1-3.7
				c0.6-1.1,1.4-2,2.4-2.5c1-0.6,1.8-0.7,2.4-0.3C490.6,129.5,490.9,130.4,491,131.7z M486.9,137.3c0,0.4,0.1,0.6,0.2,0.8
				c0.1,0.2,0.3,0.2,0.5,0.1c0.2-0.1,0.4-0.4,0.5-0.6c0.1-0.3,0.2-0.6,0.2-1c0.1-1.2,0.1-2.4,0-3.5c0-0.4-0.1-0.6-0.2-0.8
				c-0.1-0.2-0.3-0.2-0.5-0.1c-0.2,0.1-0.4,0.4-0.5,0.6c-0.1,0.3-0.2,0.6-0.2,1C486.8,135,486.8,136.2,486.9,137.3z"/>
		</g>
		<g class="st26">
			<g>
				<g>
					<path class="st27" d="M235.9,224.9c1,0.6,1.9,1.3,2.7,2c0.7,0.7,1.4,1.4,1.8,2.1c0.5,0.7,0.8,1.5,1,2.2
						c0.2,0.7,0.3,1.4,0.3,2.1c0,0.6-0.1,1-0.3,1.4c-0.2,0.4-0.4,0.6-0.6,0.8c-0.3,0.2-0.5,0.3-0.8,0.4c-0.3,0.1-0.6,0.1-0.9,0
						c1,0.9,1.7,1.8,2.2,2.9c0.5,1,0.7,2.1,0.7,3c0,1.6-0.5,2.6-1.6,3c-1,0.4-2.6,0-4.6-1.2c-0.9-0.5-1.7-1.1-2.4-1.7
						c-0.7-0.6-1.3-1.1-1.8-1.6c-0.5-0.5-0.9-0.9-1.1-1.3c-0.3-0.4-0.4-0.6-0.4-0.6l1.4-2c0.1,0.1,0.2,0.3,0.4,0.6
						c0.2,0.3,0.5,0.7,0.9,1.1c0.4,0.4,0.8,0.8,1.3,1.2c0.5,0.4,1,0.8,1.6,1.1c1.1,0.6,1.8,0.8,2.3,0.6c0.5-0.2,0.7-0.6,0.7-1.3
						c0-0.8-0.3-1.5-0.8-2.2c-0.5-0.7-1.2-1.3-2.2-1.9l-1.6-0.9c-0.1-0.1-0.1-0.4-0.2-0.7c-0.1-0.4-0.1-0.7-0.1-1.1
						c0-0.5,0.1-0.9,0.4-1c0.2-0.1,0.7,0,1.3,0.4l0.3,0.2c0.9,0.5,1.6,0.7,2,0.5c0.4-0.2,0.6-0.6,0.6-1.3c0-0.3,0-0.7-0.1-1
						c-0.1-0.3-0.3-0.7-0.5-1c-0.2-0.3-0.5-0.7-0.9-1c-0.4-0.3-0.8-0.7-1.3-1c-0.6-0.3-1.1-0.5-1.5-0.6c-0.4,0-0.7,0-1,0.1
						c-0.3,0.1-0.5,0.3-0.6,0.5c-0.1,0.2-0.2,0.3-0.3,0.4c-0.6-0.4-1-0.9-1.3-1.4c-0.3-0.5-0.4-1-0.4-1.5c0-0.2,0-0.5,0.1-0.7
						c0.1-0.2,0.2-0.4,0.3-0.5c0.1-0.1,0.3-0.2,0.5-0.3c0.2-0.1,0.5-0.1,0.9-0.1c0.4,0,0.9,0.1,1.4,0.3
						C234.5,224.2,235.1,224.5,235.9,224.9z"/>
				</g>
				<g>
					<path class="st27" d="M257.4,242.8c0.3,1.3,0.4,2.7,0.4,4.1c0,1.4-0.2,2.6-0.4,3.6c-0.3,1-0.7,1.7-1.3,2.2
						c-0.6,0.5-1.3,0.7-2.1,0.7c-0.8,0-1.8-0.4-2.8-1c-1.1-0.6-2-1.4-2.9-2.3c-0.8-0.9-1.5-1.9-2.1-3.1c-0.6-1.1-1-2.3-1.3-3.7
						c-0.3-1.3-0.4-2.7-0.4-4.1c0-1.4,0.2-2.6,0.4-3.6c0.3-1,0.7-1.7,1.3-2.2c0.6-0.5,1.3-0.7,2.1-0.7c0.8,0,1.8,0.4,2.9,1
						c1.1,0.6,2,1.4,2.8,2.3c0.8,0.9,1.5,1.9,2.1,3.1C256.7,240.2,257.1,241.5,257.4,242.8z M254.2,247.4c0.1-0.7,0.2-1.5,0.2-2.4
						c0-0.9-0.1-1.8-0.2-2.6c-0.1-0.8-0.3-1.6-0.6-2.3c-0.3-0.7-0.6-1.4-1-1.9c-0.4-0.6-0.9-1-1.4-1.3c-0.6-0.3-1-0.4-1.5-0.4
						c-0.4,0.1-0.8,0.3-1,0.7c-0.3,0.4-0.5,1-0.6,1.7c-0.1,0.7-0.2,1.5-0.2,2.4c0,0.9,0.1,1.8,0.2,2.6c0.1,0.8,0.3,1.6,0.6,2.3
						c0.3,0.7,0.6,1.3,1,1.9c0.4,0.5,0.9,1,1.5,1.3c0.5,0.3,1,0.4,1.4,0.4c0.4-0.1,0.7-0.3,1-0.7
						C253.9,248.6,254.1,248.1,254.2,247.4"/>
				</g>
				<g>
					<path class="st27" d="M272.4,251.5c0.3,1.3,0.4,2.7,0.4,4.1c0,1.4-0.2,2.6-0.4,3.6c-0.3,1-0.7,1.7-1.3,2.2
						c-0.6,0.5-1.3,0.7-2.1,0.7c-0.8,0-1.8-0.4-2.8-1s-2-1.4-2.9-2.3c-0.8-0.9-1.5-1.9-2.1-3.1c-0.6-1.1-1-2.3-1.3-3.7
						c-0.3-1.3-0.4-2.7-0.4-4.1c0-1.4,0.2-2.6,0.4-3.6c0.3-1,0.7-1.7,1.3-2.2c0.6-0.5,1.3-0.7,2.1-0.7c0.8,0,1.8,0.4,2.9,1
						c1.1,0.6,2,1.4,2.8,2.3c0.8,0.9,1.5,1.9,2.1,3.1C271.7,248.9,272.1,250.1,272.4,251.5z M269.2,256c0.1-0.7,0.2-1.5,0.2-2.4
						c0-0.9-0.1-1.8-0.2-2.6c-0.1-0.8-0.3-1.6-0.6-2.3c-0.3-0.7-0.6-1.4-1-1.9c-0.4-0.6-0.9-1-1.4-1.3c-0.6-0.3-1-0.4-1.5-0.4
						c-0.4,0.1-0.8,0.3-1,0.7c-0.3,0.4-0.5,1-0.6,1.7c-0.1,0.7-0.2,1.5-0.2,2.4c0,0.9,0.1,1.8,0.2,2.6c0.1,0.8,0.3,1.6,0.6,2.3
						c0.3,0.7,0.6,1.3,1,1.9c0.4,0.5,0.9,1,1.5,1.3c0.5,0.3,1,0.4,1.4,0.4c0.4-0.1,0.7-0.3,1-0.7C268.9,257.3,269.1,256.7,269.2,256
						"/>
				</g>
				<g>
					<path class="st27" d="M291.5,266.3c0.9,1.3,1.3,2.7,1.3,4.2c0,0.7-0.1,1.3-0.3,1.9c-0.2,0.5-0.5,0.9-1,1.1
						c-0.4,0.2-1,0.3-1.7,0.2c-0.7-0.1-1.5-0.4-2.5-0.9l0,2.9l-1.8-1.1l0-2.9c-0.8-0.6-1.6-1.1-2.3-1.8c-0.7-0.6-1.2-1.2-1.7-1.8
						c-0.5-0.6-0.9-1.1-1.2-1.5c-0.3-0.4-0.5-0.7-0.6-0.9l1.5-1.5c0.1,0.1,0.2,0.4,0.4,0.7c0.2,0.3,0.5,0.7,0.9,1.1
						c0.4,0.4,0.8,0.9,1.3,1.3c0.5,0.5,1,0.9,1.6,1.3l0-4.7l-0.6-0.5c-0.6-0.5-1.2-1.1-1.8-1.6c-0.6-0.6-1.1-1.2-1.5-1.9
						c-0.4-0.7-0.8-1.4-1-2.1c-0.2-0.7-0.4-1.5-0.4-2.3c0-0.6,0.1-1.2,0.3-1.7c0.2-0.5,0.5-0.9,0.9-1.2c0.4-0.3,1-0.4,1.6-0.3
						c0.7,0.1,1.5,0.3,2.5,0.8l0-1.8c0-0.6,0.3-0.7,0.9-0.4c0.3,0.2,0.5,0.3,0.7,0.5c0.1,0.1,0.3,0.2,0.3,0.3l0,2.5
						c0.6,0.4,1.1,0.8,1.5,1.1c0.4,0.4,0.8,0.7,1.2,1c0.3,0.3,0.6,0.6,0.8,0.9c0.2,0.3,0.4,0.5,0.5,0.6c0.2,0.3,0.4,0.7,0.6,1
						c0.1,0.3,0.2,0.6,0.2,0.9c0,0.6-0.1,1-0.4,1.2c-0.2,0.2-0.5,0.3-0.7,0.4c-0.1-0.2-0.2-0.4-0.4-0.7c-0.2-0.3-0.4-0.7-0.7-1
						c-0.3-0.4-0.7-0.8-1.1-1.2c-0.4-0.4-0.9-0.8-1.5-1.2l0,4.6l0.3,0.3C289.4,263.7,290.7,265,291.5,266.3z M289.4,269.6
						c0.1-0.2,0.1-0.4,0.1-0.6c0-0.5-0.2-1.1-0.5-1.6c-0.3-0.5-0.8-1.1-1.5-1.7l-0.1-0.1l0,4.3c0.4,0.2,0.8,0.3,1.1,0.3
						c0.3,0,0.5,0,0.6-0.1C289.2,270,289.3,269.8,289.4,269.6 M285.6,260.6l0-4.2c-0.4-0.2-0.8-0.3-1.1-0.3c-0.3,0-0.5,0-0.6,0.2
						c-0.2,0.1-0.3,0.2-0.3,0.4c-0.1,0.2-0.1,0.4-0.1,0.6c0,0.4,0.1,0.9,0.4,1.4c0.3,0.5,0.8,1.1,1.6,1.7L285.6,260.6"/>
				</g>
			</g>
		</g>
	</g>
</g>
</svg>
