<svg id="Layer_1" data-name="Layer 1" xmlns="http://www.w3.org/2000/svg" xmlns:xlink="http://www.w3.org/1999/xlink" viewBox="0 0 203.56 203.56"><defs><style>.cls-1{fill:url(#linear-gradient);}.cls-2{fill:#fff;}</style><linearGradient id="linear-gradient" x1="5.84" y1="192.96" x2="195.48" y2="12.72" gradientUnits="userSpaceOnUse"><stop offset="0.01" stop-color="#b71c1c"/><stop offset="1" stop-color="#e53935"/></linearGradient></defs><title>qutu icon</title><rect class="cls-1" width="203.56" height="203.56"/><path class="cls-2" d="M101.66,82.67l-.49.46-3.24,5.34a1.71,1.71,0,0,1-2.34.57L85.05,82.7a2.27,2.27,0,0,1-.76-3.15l6-9.61,1.3-1.34,2.86-.41,3.84,7.57Z"/><path class="cls-2" d="M120.13,115.2l-.19-.64-3.35-5.27a1.71,1.71,0,0,1,.52-2.36l10.35-6.64a2.27,2.27,0,0,1,3.16.72l6,9.63.63,1.76-.91,2.75-8.48.09Z"/><path class="cls-2" d="M84.06,114.17l.64.18,6.25,0a1.71,1.71,0,0,1,1.7,1.71v12.3a2.29,2.29,0,0,1-2.32,2.27L79,130.47l-1.82-.42-1.82-2.25,4.51-7.19Z"/><path class="cls-2" d="M119.16,81.9l3.92-1.83a1.94,1.94,0,0,1,2.67,2.37l-5.5,16.78a2.33,2.33,0,0,1-3,1.47L101.11,95.2a2.21,2.21,0,0,1-.26-4.07l3.53-1.73-9.22-18c-1.23-2.39-3.1-2.89-4.87-1.46L91,68.8a5.5,5.5,0,0,1,4.74-2.71h14.13a2,2,0,0,1,1.78,1.09Z"/><path class="cls-2" d="M113.08,131.23l-.1,4.33a1.94,1.94,0,0,1-3.31,1.34L97.06,124.54a2.31,2.31,0,0,1,0-3.29l12.09-12.09a2.2,2.2,0,0,1,3.76,1.57v3.93l20.22-.3c2.68,0,4-1.5,3.46-3.72l.72,1.11a5.49,5.49,0,0,1,.34,5.44l-6.26,12.68a2,2,0,0,1-1.76,1.11Z"/><path class="cls-2" d="M74.39,99.57,70.8,97.14a1.94,1.94,0,0,1,.66-3.51l17.21-3.92a2.32,2.32,0,0,1,2.78,1.77l3.63,16.71a2.21,2.21,0,0,1-3.35,2.32l-3.31-2.14L77.74,125.55c-1.41,2.28-.88,4.14,1.26,4.92H77.67a5.51,5.51,0,0,1-4.76-2.66L65.64,115.7a2,2,0,0,1,0-2.09Z"/><path class="cls-2" d="M42.3,143.54V60a2.25,2.25,0,0,0,.06-.36,16.9,16.9,0,0,1,.82-4.34A18.42,18.42,0,0,1,51.1,45.14a18.11,18.11,0,0,1,7.42-2.66L60,42.3H143.6c.59.07,1.19.12,1.78.21a18,18,0,0,1,9.83,4.72,18.23,18.23,0,0,1,6,13.85q0,40.65,0,81.28a20.71,20.71,0,0,1-.25,3.24,18,18,0,0,1-4.63,9.58,18.16,18.16,0,0,1-13.84,6.07H61.15a18.66,18.66,0,0,1-16.48-9.59A17.67,17.67,0,0,1,42.48,145ZM101.75,50.3H61.47a11,11,0,0,0-4.6.85,10.59,10.59,0,0,0-6.52,9.08,11.3,11.3,0,0,0-.05,1.3q0,40.26,0,80.53a11.67,11.67,0,0,0,.71,4.3,10.7,10.7,0,0,0,5.21,5.78,11.09,11.09,0,0,0,5.22,1.14h80.69a11.59,11.59,0,0,0,4.36-.77,10.6,10.6,0,0,0,5.11-4.21,11.1,11.1,0,0,0,1.68-6.15q0-40.34,0-80.69a11.44,11.44,0,0,0-1.2-5.3,10.49,10.49,0,0,0-4.69-4.67,11.61,11.61,0,0,0-5.31-1.18Z"/></svg>