<svg id="Layer_1" data-name="Layer 1" xmlns="http://www.w3.org/2000/svg" xmlns:xlink="http://www.w3.org/1999/xlink" viewBox="0 0 203.56 203.56"><defs><style>.cls-1{fill:url(#linear-gradient);}.cls-2{fill:#fff;}</style><linearGradient id="linear-gradient" x1="5.84" y1="192.96" x2="195.48" y2="12.72" gradientUnits="userSpaceOnUse"><stop offset="0.01" stop-color="#b71c1c"/><stop offset="1" stop-color="#e53935"/></linearGradient></defs><title>qutu icon</title><rect class="cls-1" width="203.56" height="203.56"/><path class="cls-2" d="M42.3,143.54V60a2.25,2.25,0,0,0,.06-.36,16.9,16.9,0,0,1,.82-4.34A18.42,18.42,0,0,1,51.1,45.14a18.11,18.11,0,0,1,7.42-2.66L60,42.3H143.6c.59.07,1.19.12,1.78.21a18,18,0,0,1,9.83,4.72,18.23,18.23,0,0,1,6,13.85q0,40.65,0,81.28a20.71,20.71,0,0,1-.25,3.24,18,18,0,0,1-4.63,9.58,18.16,18.16,0,0,1-13.84,6.07H61.15a18.66,18.66,0,0,1-16.48-9.59A17.67,17.67,0,0,1,42.48,145ZM101.75,50.3H61.47a11,11,0,0,0-4.6.85,10.59,10.59,0,0,0-6.52,9.08,11.3,11.3,0,0,0-.05,1.3q0,40.26,0,80.53a11.67,11.67,0,0,0,.71,4.3,10.7,10.7,0,0,0,5.21,5.78,11.09,11.09,0,0,0,5.22,1.14h80.69a11.59,11.59,0,0,0,4.36-.77,10.6,10.6,0,0,0,5.11-4.21,11.1,11.1,0,0,0,1.68-6.15q0-40.34,0-80.69a11.44,11.44,0,0,0-1.2-5.3,10.49,10.49,0,0,0-4.69-4.67,11.61,11.61,0,0,0-5.31-1.18Z"/><path class="cls-2" d="M65.17,136.56c.33-.41.63-.84,1-1.21,2.47-2.48,5-4.94,7.41-7.44a1.37,1.37,0,0,0,.37-.88q0-8,0-16a2,2,0,0,1,1-1.87c2-1.36,4-2.77,5.95-4.16l.26-.21-.69,0H75.57A1.52,1.52,0,0,1,74,103.07q0-13,0-26a1.73,1.73,0,0,1,.76-1.5l11.46-8C87.1,67,88,66.25,89,65.65a2.7,2.7,0,0,1,1.38-.46q18.74,0,37.46,0c1.25,0,1.8.57,1.81,1.83v4.86c.22-.2.37-.32.5-.46l5.7-5.69a1.42,1.42,0,0,1,2.49.48,1.34,1.34,0,0,1-.29,1.4,5.77,5.77,0,0,1-.42.44L68,137.61a12.58,12.58,0,0,1-1,.78h-.73l-1.1-1.1Zm48.32-58.17H76.93v23.37l.35,0q11,0,22,0a1.31,1.31,0,0,0,.82-.38c4.14-4.12,8.24-8.26,12.41-12.35a3,3,0,0,0,1-2.43C113.44,83.88,113.49,81.16,113.49,78.39Zm10.32-10.24-.28-.05H90.9a1.43,1.43,0,0,0-.77.27q-4.18,2.91-8.33,5.83c-.53.36-1,.74-1.65,1.16l.19,0q16.91,0,33.79,0a1.12,1.12,0,0,0,.6-.21c1-.77,2-1.56,3-2.34Zm-46.89,43.9v12.3l12.29-12.3Zm3.17-3h9.18a8.45,8.45,0,0,0,3.07-.1c.91-.38,1.54-1.4,2.3-2.13l2.13-2.08a2,2,0,0,0-.29-.08c-3.27,0-6.55,0-9.82,0A1.23,1.23,0,0,0,86,105c-1,.7-2.07,1.41-3.09,2.12S81.13,108.36,80.09,109.1Z"/><path class="cls-2" d="M75.05,138.39A2,2,0,0,1,74,136.07a.62.62,0,0,1,.11-.33l2.79-2.8v2.47h36.59V112H97.78c1-1,1.9-1.92,2.82-2.8a1,1,0,0,1,.62-.12q6.28,0,12.57,0a1.69,1.69,0,0,0,1.16-.38c2.84-2.23,5.7-4.45,8.55-6.67.08-.06.15-.13.31-.28-1.64,0-3.18,0-4.7,0-.39,0-.75.5-1.11.79-.69.56-1.34,1.17-2.07,1.68a2.25,2.25,0,0,1-1.22.4c-3,0-6,0-9,0h-.64c.82-.83,1.57-1.52,2.25-2.28a1.86,1.86,0,0,1,1.59-.67c1.48.06,3,0,4.55,0v-.6c0-1.46,0-2.92,0-4.39a1.21,1.21,0,0,1,.28-.74q7.77-7.81,15.56-15.59l.26-.2v.64c0,3.68,0,7.36,0,11a2,2,0,0,1-.71,1.6l-5.55,4.61c-.24.2-.47.42-.78.7h5.23a1.56,1.56,0,0,1,1.79,1.77c0,8.34,0,16.68,0,25a1.93,1.93,0,0,1-.73,1.59l-5.44,4.55c-2.31,1.92-4.63,3.85-7,5.76-.37.31-.78.57-1.17.85Z"/></svg>