<svg id="Layer_1" data-name="Layer 1" xmlns="http://www.w3.org/2000/svg" xmlns:xlink="http://www.w3.org/1999/xlink" viewBox="0 0 203.56 203.56"><defs><style>.cls-1{fill:url(#linear-gradient);}.cls-2{fill:#fff;}</style><linearGradient id="linear-gradient" x1="5.84" y1="192.96" x2="195.48" y2="12.72" gradientUnits="userSpaceOnUse"><stop offset="0.01" stop-color="#b71c1c"/><stop offset="1" stop-color="#e53935"/></linearGradient></defs><title>qutu icon</title><rect class="cls-1" width="203.56" height="203.56"/><path class="cls-2" d="M68.33,70.53a2.92,2.92,0,0,1,.52-1.23,2.4,2.4,0,0,1,1.93-1h38.61A2.57,2.57,0,0,1,112,70.26a2.82,2.82,0,0,1,.08.65c0,7.36,0,14.73,0,22.09a20.66,20.66,0,0,1-4.43,12.78,22.08,22.08,0,0,1-10.78,7.58c-.12,0-.21.07-.21.25,0,3.93,0,7.85,0,11.78a4,4,0,0,0,2.72,3.86,11,11,0,0,0,3.5.76c.58,0,1.16,0,1.73.09a2.56,2.56,0,0,1,.36,5.05,2.6,2.6,0,0,1-.56.07,20.07,20.07,0,0,1-5.56-.67,10,10,0,0,1-5.11-3.12,9.12,9.12,0,0,1-2-4.41,15.14,15.14,0,0,1-.2-2.32c0-4.29,0-8.58,0-12.86a2.58,2.58,0,0,1,2.15-2.68,16.73,16.73,0,0,0,13-13.25,17.91,17.91,0,0,0,.29-3.27V73.48H73.49a1.1,1.1,0,0,0,0,.18c0,6.45,0,12.9,0,19.34A16.13,16.13,0,0,0,78,104.23a16.37,16.37,0,0,0,8.78,4.94,2.56,2.56,0,0,1,2.13,2.62c0,4.39,0,8.77,0,13.16a10,10,0,0,1-2.06,6.26A9.18,9.18,0,0,1,83.06,134a14.57,14.57,0,0,1-4.6,1.08c-.81.06-1.62.11-2.43.12a2.57,2.57,0,0,1-.06-5.14,19.35,19.35,0,0,0,3-.24,8.47,8.47,0,0,0,3-1,3.71,3.71,0,0,0,1.84-3.18q0-.69,0-1.38,0-5.26,0-10.53a.32.32,0,0,0-.28-.37,22.16,22.16,0,0,1-8.65-5.23,21.12,21.12,0,0,1-6.16-11.46c-.17-.88-.22-1.78-.32-2.67,0-.07,0-.15,0-.22Z"/><path class="cls-2" d="M127.5,103.9v28.67a2.52,2.52,0,0,1-1.37,2.38,2.56,2.56,0,0,1-3.76-2.14c0-.11,0-.22,0-.32V102a2.62,2.62,0,0,1,2.7-2.76,5,5,0,0,0,3.68-1.66A5.09,5.09,0,0,0,130.08,94q0-11.45,0-22.88a2.78,2.78,0,0,1,.55-1.81,2.29,2.29,0,0,1,1.39-.91,2.48,2.48,0,0,1,3.2,2.49c0,7.71,0,15.41,0,23.12a10.16,10.16,0,0,1-6.26,9.39C128.5,103.55,128,103.71,127.5,103.9Z"/><path class="cls-2" d="M122.36,79.88c0-3,0-5.92,0-8.87A2.67,2.67,0,0,1,123,69.2a2.2,2.2,0,0,1,1.82-.87,2.76,2.76,0,0,1,1.21.13,2.49,2.49,0,0,1,1.52,2.33q0,9,0,18.08a2.57,2.57,0,0,1-2.17,2.61,2.54,2.54,0,0,1-3-2.37c0-1.88,0-3.76,0-5.65Z"/><path class="cls-2" d="M119.78,79.85v9.08a2.57,2.57,0,1,1-5.14,0V70.82a2.55,2.55,0,0,1,1.91-2.46,7.75,7.75,0,0,1,.84,0,2.41,2.41,0,0,1,2.34,2,3.05,3.05,0,0,1,0,.52Z"/><path class="cls-2" d="M42.3,143.54V60a2.25,2.25,0,0,0,.06-.36,16.9,16.9,0,0,1,.82-4.34A18.42,18.42,0,0,1,51.1,45.14a18.11,18.11,0,0,1,7.42-2.66L60,42.3H143.6c.59.07,1.19.12,1.78.21a18,18,0,0,1,9.83,4.72,18.23,18.23,0,0,1,6,13.85q0,40.65,0,81.28a20.71,20.71,0,0,1-.25,3.24,18,18,0,0,1-4.63,9.58,18.16,18.16,0,0,1-13.84,6.07H61.15a18.66,18.66,0,0,1-16.48-9.59A17.67,17.67,0,0,1,42.48,145ZM101.75,50.3H61.47a11,11,0,0,0-4.6.85,10.59,10.59,0,0,0-6.52,9.08,11.3,11.3,0,0,0-.05,1.3q0,40.26,0,80.53a11.67,11.67,0,0,0,.71,4.3,10.7,10.7,0,0,0,5.21,5.78,11.09,11.09,0,0,0,5.22,1.14h80.69a11.59,11.59,0,0,0,4.36-.77,10.6,10.6,0,0,0,5.11-4.21,11.1,11.1,0,0,0,1.68-6.15q0-40.34,0-80.69a11.44,11.44,0,0,0-1.2-5.3,10.49,10.49,0,0,0-4.69-4.67,11.61,11.61,0,0,0-5.31-1.18Z"/></svg>