<svg id="Layer_1" data-name="Layer 1" xmlns="http://www.w3.org/2000/svg" xmlns:xlink="http://www.w3.org/1999/xlink" viewBox="0 0 203.56 203.56"><defs><style>.cls-1{fill:url(#linear-gradient);}.cls-2{fill:#fff;}</style><linearGradient id="linear-gradient" x1="5.84" y1="192.96" x2="195.48" y2="12.72" gradientUnits="userSpaceOnUse"><stop offset="0.01" stop-color="#b71c1c"/><stop offset="1" stop-color="#e53935"/></linearGradient></defs><title>qutu icon</title><rect class="cls-1" width="203.56" height="203.56"/><path class="cls-2" d="M107.19,111V73.1a9.31,9.31,0,0,0-18.61,0V111A16.12,16.12,0,0,0,84.15,116a15.87,15.87,0,1,0,27.47,0A16.25,16.25,0,0,0,107.19,111Zm-3.62,3.34a11,11,0,0,1,5.4,9.51,11.09,11.09,0,1,1-22.17,0,11,11,0,0,1,5.4-9.51,2.42,2.42,0,0,0,1.16-2V73.1a4.53,4.53,0,0,1,9,0v39.23A2.4,2.4,0,0,0,103.57,114.38Z"/><path class="cls-2" d="M113.06,77.49h10.32a2.39,2.39,0,0,0,0-4.78H113.06a2.39,2.39,0,0,0,0,4.78Z"/><path class="cls-2" d="M113.06,86.69h5.36a2.39,2.39,0,0,0,0-4.78h-5.36a2.39,2.39,0,0,0,0,4.78Z"/><path class="cls-2" d="M123.38,91.11H113.06a2.39,2.39,0,0,0,0,4.78h10.32a2.39,2.39,0,0,0,0-4.78Z"/><path class="cls-2" d="M118.42,100.31h-5.36a2.39,2.39,0,0,0,0,4.78h5.36a2.39,2.39,0,0,0,0-4.78Z"/><path class="cls-2" d="M42.3,143.54V60a2.25,2.25,0,0,0,.06-.36,16.9,16.9,0,0,1,.82-4.34A18.42,18.42,0,0,1,51.1,45.14a18.11,18.11,0,0,1,7.42-2.66L60,42.3H143.6c.59.07,1.19.12,1.78.21a18,18,0,0,1,9.83,4.72,18.23,18.23,0,0,1,6,13.85q0,40.65,0,81.28a20.71,20.71,0,0,1-.25,3.24,18,18,0,0,1-4.63,9.58,18.16,18.16,0,0,1-13.84,6.07H61.15a18.66,18.66,0,0,1-16.48-9.59A17.67,17.67,0,0,1,42.48,145ZM101.75,50.3H61.47a11,11,0,0,0-4.6.85,10.59,10.59,0,0,0-6.52,9.08,11.3,11.3,0,0,0-.05,1.3q0,40.26,0,80.53a11.67,11.67,0,0,0,.71,4.3,10.7,10.7,0,0,0,5.21,5.78,11.09,11.09,0,0,0,5.22,1.14h80.69a11.59,11.59,0,0,0,4.36-.77,10.6,10.6,0,0,0,5.11-4.21,11.1,11.1,0,0,0,1.68-6.15q0-40.34,0-80.69a11.44,11.44,0,0,0-1.2-5.3,10.49,10.49,0,0,0-4.69-4.67,11.61,11.61,0,0,0-5.31-1.18Z"/></svg>