<svg id="Layer_1" data-name="Layer 1" xmlns="http://www.w3.org/2000/svg" xmlns:xlink="http://www.w3.org/1999/xlink" viewBox="0 0 203.56 203.56"><defs><style>.cls-1{fill:url(#linear-gradient);}.cls-2{fill:#fff;}</style><linearGradient id="linear-gradient" x1="5.84" y1="192.96" x2="195.48" y2="12.72" gradientUnits="userSpaceOnUse"><stop offset="0.01" stop-color="#b71c1c"/><stop offset="1" stop-color="#e53935"/></linearGradient></defs><title>qutu icon</title><rect class="cls-1" width="203.56" height="203.56"/><path class="cls-2" d="M42.3,143.54V60a2.25,2.25,0,0,0,.06-.36,16.9,16.9,0,0,1,.82-4.34A18.42,18.42,0,0,1,51.1,45.14a18.11,18.11,0,0,1,7.42-2.66L60,42.3H143.6c.59.07,1.19.12,1.78.21a18,18,0,0,1,9.83,4.72,18.23,18.23,0,0,1,6,13.85q0,40.65,0,81.28a20.71,20.71,0,0,1-.25,3.24,18,18,0,0,1-4.63,9.58,18.16,18.16,0,0,1-13.84,6.07H61.15a18.66,18.66,0,0,1-16.48-9.59A17.67,17.67,0,0,1,42.48,145ZM101.75,50.3H61.47a11,11,0,0,0-4.6.85,10.59,10.59,0,0,0-6.52,9.08,11.3,11.3,0,0,0-.05,1.3q0,40.26,0,80.53a11.67,11.67,0,0,0,.71,4.3,10.7,10.7,0,0,0,5.21,5.78,11.09,11.09,0,0,0,5.22,1.14h80.69a11.59,11.59,0,0,0,4.36-.77,10.6,10.6,0,0,0,5.11-4.21,11.1,11.1,0,0,0,1.68-6.15q0-40.34,0-80.69a11.44,11.44,0,0,0-1.2-5.3,10.49,10.49,0,0,0-4.69-4.67,11.61,11.61,0,0,0-5.31-1.18Z"/><path class="cls-2" d="M76.28,92a6.16,6.16,0,0,0-3.38,1.59,3.45,3.45,0,0,0-.71,4.64q2.61,4.35,5.24,8.7a1.12,1.12,0,0,0,.17.21,1.78,1.78,0,0,0-.13-1.11q-2.37-3.87-4.7-7.76a6.25,6.25,0,0,1-.61-1.14,2.54,2.54,0,0,1,.44-2.48,5.86,5.86,0,0,1,3.91-2.27,3.09,3.09,0,0,1,3.09,1.44l8.13,11.12c1.33,1.82,2.64,3.66,4,5.46a13.5,13.5,0,0,1,2.35,5.36,25,25,0,0,1,.54,5.46c0,5.75,0,11.51,0,17.26v.4H79v-.38c0-5.23,0-10.46,0-15.69a8.34,8.34,0,0,0-1.59-5c-2-2.92-4.08-5.85-6.09-8.79a33.43,33.43,0,0,1-2.81-4.85,9.41,9.41,0,0,1-.85-3.83V76.05a6.76,6.76,0,0,1,.68-3.38,4.12,4.12,0,0,1,3.15-2.29,3.85,3.85,0,0,1,3.1,1.1,4.88,4.88,0,0,1,1.63,3.31,14.63,14.63,0,0,1,.07,1.62c0,5,0,10.09,0,15.14Z"/><path class="cls-2" d="M127.25,92c0-.09,0-.14,0-.18,0-5.44,0-10.88,0-16.32a5.68,5.68,0,0,1,.9-3.23,4.08,4.08,0,0,1,2.62-1.83A3.57,3.57,0,0,1,134,71.48a5,5,0,0,1,1.47,3.2,14.64,14.64,0,0,1,.08,1.62c0,7.73,0,15.46,0,23.18a11.75,11.75,0,0,1-1.64,6.16c-1.76,3-3.74,6-5.7,8.87-.83,1.23-1.69,2.42-2.5,3.66a6.87,6.87,0,0,0-1.16,3.87c0,5.47,0,10.94,0,16.41v.39H108.92v-.3c0-6.09,0-12.18,0-18.27a18.77,18.77,0,0,1,1.55-7.68,10.48,10.48,0,0,1,1.08-1.86c4-5.57,8-11.11,12-16.7a3.57,3.57,0,0,1,4.83-1.25,5.23,5.23,0,0,1,2.47,2.08,3.08,3.08,0,0,1,.27,2.75,3.15,3.15,0,0,1-.36.61c-1.58,2.57-3.15,5.14-4.75,7.69a2,2,0,0,0-.19,1.25l.23-.34c1.63-2.72,3.23-5.46,4.92-8.14a4.05,4.05,0,0,0-.82-5.28A5.49,5.49,0,0,0,127.25,92Z"/><path class="cls-2" d="M116.06,73.64l-.3.18-13.68,8.26c-.16.09-.28.16-.48,0L87.65,73.75l-.17-.12.24-.16,13.86-8.31a.36.36,0,0,1,.42,0l13.93,8.41Z"/><path class="cls-2" d="M101.58,99.79c-.13-.07-.22-.11-.31-.17l-13.7-7.81a.51.51,0,0,1-.29-.51c0-5.5,0-11,0-16.52v-.33l.26.13L101,82.79a.44.44,0,0,1,.24.43c.06,3.35.13,6.7.19,10l.12,6.18C101.59,99.55,101.58,99.65,101.58,99.79Z"/><path class="cls-2" d="M115.58,74.39V91a.46.46,0,0,1-.22.46q-6.58,4.1-13.16,8.2l-.24.13c0-.1,0-.18,0-.26V83.14a.38.38,0,0,1,.19-.38q6.62-4.11,13.21-8.24Z"/></svg>