<svg id="Layer_1" data-name="Layer 1" xmlns="http://www.w3.org/2000/svg" xmlns:xlink="http://www.w3.org/1999/xlink" viewBox="0 0 203.56 203.56"><defs><style>.cls-1{fill:url(#linear-gradient);}.cls-2{fill:#fff;}</style><linearGradient id="linear-gradient" x1="5.84" y1="192.96" x2="195.48" y2="12.72" gradientUnits="userSpaceOnUse"><stop offset="0.01" stop-color="#b71c1c"/><stop offset="1" stop-color="#e53935"/></linearGradient></defs><title>qutu icon</title><rect class="cls-1" width="203.56" height="203.56"/><path class="cls-2" d="M126.46,78.51a6.18,6.18,0,0,1,5.19,2.56c1.13,1.51,2.36,3,3.55,4.42,2.3,2.83,4.61,5.65,6.9,8.49a15.53,15.53,0,0,1,1.54,2.08,6.52,6.52,0,0,1-1.53,8,1.38,1.38,0,0,0-.31.33,2.42,2.42,0,0,1-1.08.9c-2.54,1.24-5.08,2.46-7.59,3.75-1.39.71-2.71,1.55-4.07,2.32a.49.49,0,0,0-.27.5q.36,9.41.7,18.81a4,4,0,0,1-2.28,3.82,3.55,3.55,0,0,1-4.48-1.6,4.21,4.21,0,0,1-.53-1.87q-.35-9.55-.7-19.13a19.68,19.68,0,0,0-.22-2,3.94,3.94,0,0,1,.43-2.39,1.89,1.89,0,0,1,.61-.58c1.29-1,2.6-2,3.9-3,1.64-1.27,3.27-2.55,4.91-3.81.21-.16.22-.27.05-.47l-8.3-10c-.5-.59-.5-.58-1.06-.07q-6.91,6.33-13.84,12.66a2.94,2.94,0,0,1-3.84.39,3.39,3.39,0,0,1-.39-5.16c1.06-1,2.18-2,3.28-3l15.15-13.86a6.57,6.57,0,0,1,2.7-1.7C125.49,78.66,126.11,78.57,126.46,78.51Z"/><path class="cls-2" d="M74.4,121.44q.16-4.81.35-9.63a.48.48,0,0,0-.26-.48c-2.69-1.6-5.44-3.11-8.28-4.44-1.22-.58-2.44-1.18-3.65-1.79a2,2,0,0,1-.54-.4c-.34-.33-.66-.69-1-1a6.48,6.48,0,0,1-1.63-6.34A6.81,6.81,0,0,1,61,94.52c1-1.09,1.84-2.25,2.75-3.38,2.61-3.21,5.22-6.41,7.82-9.63a9.06,9.06,0,0,1,1.76-1.9,6,6,0,0,1,7.49.45L96.76,94.61c1,.88,1.92,1.76,2.87,2.65a3.33,3.33,0,0,1,1.08,3.27,3,3,0,0,1-2,2.39,2.77,2.77,0,0,1-3-.56c-1.77-1.59-3.51-3.2-5.26-4.81L81.38,89.2c-.19-.18-.3-.12-.44,0L76.3,94.87Q74.61,96.94,72.9,99a7.82,7.82,0,0,1-.55.6c-.17.18-.14.29.05.45,1.85,1.42,3.69,2.86,5.53,4.29,1.1.85,2.2,1.69,3.31,2.52a2.74,2.74,0,0,1,1,2.79,40.16,40.16,0,0,0-.3,4.9c-.22,5.52-.41,11-.63,16.56a4,4,0,0,1-2.67,3.5,3.66,3.66,0,0,1-4.29-2.17,4.38,4.38,0,0,1-.32-1.78C74.17,127.58,74.28,124.51,74.4,121.44Z"/><path class="cls-2" d="M89.16,96.81c.36.33.67.61,1,.9,1.24,1.18,2.47,2.38,3.72,3.55a13.55,13.55,0,0,0,1.93,1.63,3.34,3.34,0,0,0,4.51-.58,3.68,3.68,0,0,0,.69-2.94,4.85,4.85,0,0,0-1.75-2.87l-7.36-7a2.15,2.15,0,0,1-.24-.29h20.08a2.28,2.28,0,0,1-.23.3c-2.38,2.27-4.76,4.52-7.13,6.81a8.65,8.65,0,0,0-1.44,1.7,3.93,3.93,0,0,0,.11,4.22,3.32,3.32,0,0,0,3.69,1.07,6.73,6.73,0,0,0,2.48-1.74L113.05,98c.09-.08.2-.14.35-.26a3.26,3.26,0,0,1,0,.34v16.61c0,.43,0,.43-.43.43H89.53c-.4,0-.4,0-.4-.42q0-8.78,0-17.55C89.12,97.05,89.14,97,89.16,96.81Z"/><path class="cls-2" d="M113.26,74.77a5.92,5.92,0,0,1,4.09-5.72,5.48,5.48,0,0,1,6.65,3.2,6,6,0,0,1-2.92,7.64,5.47,5.47,0,0,1-7.16-2.46A5.88,5.88,0,0,1,113.26,74.77Z"/><path class="cls-2" d="M90.28,74.2c0,2.87-1.36,4.94-3.39,5.77a5.49,5.49,0,0,1-6.28-1.47,5.87,5.87,0,0,1,1.22-8.91,5.73,5.73,0,0,1,8.45,4.61Z"/><path class="cls-2" d="M42.3,143.54V60a2.25,2.25,0,0,0,.06-.36,16.9,16.9,0,0,1,.82-4.34A18.42,18.42,0,0,1,51.1,45.14a18.11,18.11,0,0,1,7.42-2.66L60,42.3H143.6c.59.07,1.19.12,1.78.21a18,18,0,0,1,9.83,4.72,18.23,18.23,0,0,1,6,13.85q0,40.65,0,81.28a20.71,20.71,0,0,1-.25,3.24,18,18,0,0,1-4.63,9.58,18.16,18.16,0,0,1-13.84,6.07H61.15a18.66,18.66,0,0,1-16.48-9.59A17.67,17.67,0,0,1,42.48,145ZM101.75,50.3H61.47a11,11,0,0,0-4.6.85,10.59,10.59,0,0,0-6.52,9.08,11.3,11.3,0,0,0-.05,1.3q0,40.26,0,80.53a11.67,11.67,0,0,0,.71,4.3,10.7,10.7,0,0,0,5.21,5.78,11.09,11.09,0,0,0,5.22,1.14h80.69a11.59,11.59,0,0,0,4.36-.77,10.6,10.6,0,0,0,5.11-4.21,11.1,11.1,0,0,0,1.68-6.15q0-40.34,0-80.69a11.44,11.44,0,0,0-1.2-5.3,10.49,10.49,0,0,0-4.69-4.67,11.61,11.61,0,0,0-5.31-1.18Z"/></svg>