<svg id="Layer_1" data-name="Layer 1" xmlns="http://www.w3.org/2000/svg" xmlns:xlink="http://www.w3.org/1999/xlink" viewBox="0 0 203.56 203.56"><defs><style>.cls-1{fill:url(#linear-gradient);}.cls-2{fill:#fff;}</style><linearGradient id="linear-gradient" x1="5.84" y1="192.96" x2="195.48" y2="12.72" gradientUnits="userSpaceOnUse"><stop offset="0.01" stop-color="#b71c1c"/><stop offset="1" stop-color="#e53935"/></linearGradient></defs><title>qutu icon</title><rect class="cls-1" width="203.56" height="203.56"/><path class="cls-2" d="M42.3,143.54V60a2.25,2.25,0,0,0,.06-.36,16.9,16.9,0,0,1,.82-4.34A18.42,18.42,0,0,1,51.1,45.14a18.11,18.11,0,0,1,7.42-2.66L60,42.3H143.6c.59.07,1.19.12,1.78.21a18,18,0,0,1,9.83,4.72,18.23,18.23,0,0,1,6,13.85q0,40.65,0,81.28a20.71,20.71,0,0,1-.25,3.24,18,18,0,0,1-4.63,9.58,18.16,18.16,0,0,1-13.84,6.07H61.15a18.66,18.66,0,0,1-16.48-9.59A17.67,17.67,0,0,1,42.48,145ZM101.75,50.3H61.47a11,11,0,0,0-4.6.85,10.59,10.59,0,0,0-6.52,9.08,11.3,11.3,0,0,0-.05,1.3q0,40.26,0,80.53a11.67,11.67,0,0,0,.71,4.3,10.7,10.7,0,0,0,5.21,5.78,11.09,11.09,0,0,0,5.22,1.14h80.69a11.59,11.59,0,0,0,4.36-.77,10.6,10.6,0,0,0,5.11-4.21,11.1,11.1,0,0,0,1.68-6.15q0-40.34,0-80.69a11.44,11.44,0,0,0-1.2-5.3,10.49,10.49,0,0,0-4.69-4.67,11.61,11.61,0,0,0-5.31-1.18Z"/><path class="cls-2" d="M100.37,77c-.6,1.84-1.29,3.65-1.79,5.5A74.66,74.66,0,0,0,96.52,95c-.24,2.41-.36,4.83-.54,7.25-.1,1.38-.93,1.84-2.11,1.15a7.6,7.6,0,0,0-7.55-.33c-1.21.58-2.19-.06-2-1.33,1-6.54,3-12.75,7-18.13a17.58,17.58,0,0,1,8.58-6.52A2.88,2.88,0,0,1,100.37,77Z"/><path class="cls-2" d="M109.4,100.34c0,.56.07,1.12.07,1.68,0,1.18-.91,1.67-2,1.19a18,18,0,0,0-2.84-1,5.61,5.61,0,0,0-4.08.73c-1.87,1-2.78.23-2.62-1.88a102.62,102.62,0,0,1,2.4-17.71,43.65,43.65,0,0,1,1.8-5.27c.29-.74.69-1.65,1.67-1.61s1.26.92,1.59,1.62A32.94,32.94,0,0,1,108,87.64c.6,4.21,1,8.45,1.55,12.68Z"/><path class="cls-2" d="M107,76.62c1.3.69,2.66,1.29,3.89,2.1a22.07,22.07,0,0,1,7,8.1,48.89,48.89,0,0,1,5,14.75,1.81,1.81,0,0,1-.41,1.28c-.37.46-1,.37-1.47.13a7.61,7.61,0,0,0-5.52-.56,13.55,13.55,0,0,0-2,.87c-1.16.57-1.92.17-2-1.1-.45-4.67-.83-9.34-1.41-14a33.52,33.52,0,0,0-3.17-11.33Z"/><path class="cls-2" d="M112.85,77.5a32.78,32.78,0,0,1,11.36,5.82,34.18,34.18,0,0,1,11.9,17.39.88.88,0,0,0,0,.15c.18.6.35,1.2-.2,1.71s-1.13.31-1.71.07a6.79,6.79,0,0,0-4.46-.37,12,12,0,0,0-2.55,1.1c-1.12.61-1.93.3-2.14-1a55,55,0,0,0-3.31-12.23C119.76,85.29,117.06,80.87,112.85,77.5Z"/><path class="cls-2" d="M94.53,77.61c-1.39,1.46-2.72,2.69-3.87,4.08a38.31,38.31,0,0,0-7.59,16.55c-.32,1.46-.51,2.94-.78,4.41a1.12,1.12,0,0,1-1.87.85,8.22,8.22,0,0,0-7.43-.79,1.75,1.75,0,0,1-1.43-.29,1.46,1.46,0,0,1-.21-1.28A33.5,33.5,0,0,1,90.6,79.07C91.82,78.52,93.12,78.13,94.53,77.61Z"/><path class="cls-2" d="M104.65,104.21V134.5a5.88,5.88,0,0,1-3.08,5.5,6.13,6.13,0,0,1-6.46-.33l-.2-.14c-1.6-.92-2.55-2.17-2.22-4.16a15.78,15.78,0,0,0,0-2.48c0-1,.33-1.44,1-1.45s1,.48,1,1.42,0,2.09,0,3.12a2,2,0,0,0,.51,1.18A4.78,4.78,0,0,0,99,138.81a4,4,0,0,0,3.88-4.15q0-9.69,0-19.37v-10C102.9,103.9,103.17,103.73,104.65,104.21Z"/><path class="cls-2" d="M68.25,72.67a4,4,0,0,1-4.14-3.17A3.6,3.6,0,0,1,66,65.2c2.09-.91,4.27-1.62,6.43-2.36a1,1,0,0,1,1.23,1.22c-.74,2.22-1.48,4.44-2.4,6.59A3.31,3.31,0,0,1,68.25,72.67Z"/><path class="cls-2" d="M67.93,87a3.89,3.89,0,0,1-3.65-2.62,3.66,3.66,0,0,1,1.26-4.43,18,18,0,0,1,3.56-1.73,32.54,32.54,0,0,1,3.38-1c.81-.21,1.46.34,1.2,1.12-.77,2.29-1.54,4.59-2.51,6.79A3.32,3.32,0,0,1,67.93,87Z"/><path class="cls-2" d="M111.8,72.66a4,4,0,0,1-3.85-3,3.64,3.64,0,0,1,2-4.36c2.11-.91,4.32-1.63,6.5-2.37a.86.86,0,0,1,1.15,1c-.75,2.24-1.49,4.48-2.4,6.66A3.45,3.45,0,0,1,111.8,72.66Z"/><path class="cls-2" d="M90.25,72.63a4.06,4.06,0,0,1-4.15-3,3.61,3.61,0,0,1,2-4.39c2.09-.92,4.28-1.62,6.44-2.35a.89.89,0,0,1,1.11,1.18c-.78,2.28-1.56,4.58-2.54,6.78A3.22,3.22,0,0,1,90.25,72.63Z"/><path class="cls-2" d="M133.76,84.8A3.9,3.9,0,0,1,130,81.91a3.66,3.66,0,0,1,1.91-4.45c2.11-.92,4.32-1.63,6.51-2.38a.88.88,0,0,1,1.12,1.1c-.77,2.26-1.54,4.53-2.46,6.72A3.52,3.52,0,0,1,133.76,84.8Z"/><path class="cls-2" d="M134,72.63a4,4,0,0,1-4-2.87,3.68,3.68,0,0,1,1.88-4.46c2.11-.91,4.32-1.63,6.5-2.38a.87.87,0,0,1,1.16,1.1c-.75,2.21-1.49,4.43-2.39,6.58A3.42,3.42,0,0,1,134,72.63Z"/><path class="cls-2" d="M102.77,73.64c0-.57,0-1.1,0-1.62a1,1,0,0,1,1-1c.62,0,.79.43.88.93a3.85,3.85,0,0,1,0,.48C104.7,74,104.4,74.2,102.77,73.64Z"/></svg>