<svg id="Layer_1" data-name="Layer 1" xmlns="http://www.w3.org/2000/svg" xmlns:xlink="http://www.w3.org/1999/xlink" viewBox="0 0 203.56 203.56"><defs><style>.cls-1{fill:url(#linear-gradient);}.cls-2{fill:#fff;}</style><linearGradient id="linear-gradient" x1="5.84" y1="192.96" x2="195.48" y2="12.72" gradientUnits="userSpaceOnUse"><stop offset="0.01" stop-color="#b71c1c"/><stop offset="1" stop-color="#e53935"/></linearGradient></defs><title>qutu icon</title><rect class="cls-1" width="203.56" height="203.56"/><path class="cls-2" d="M110.92,140.86c.22-2,.42-4,.66-6q.75-6.19,1.52-12.39t1.54-12.6c.5-4.06,1-8.12,1.47-12.18.07-.62.31-.75.86-.72q8.86.54,17.73,1c.63,0,.84.26.83.92-.05,3.25-.05,6.5-.06,9.75,0,5.46,0,10.93,0,16.4,0,4.93-.06,9.87-.09,14.8,0,.22,0,.45-.06.67l-.28.06-9.49-27.45-14.3,27.72Z"/><path class="cls-2" d="M82.53,75.52c1.11,0,2.23,0,3.34,0,5,.16,10,.34,15.08.51l20.62.73c1,0,2,0,3,.13a1.31,1.31,0,0,1,.9.51c3.34,5.74,6.64,11.5,9.95,17.25.1.18.18.38.32.69-.39,0-.68.1-1,.12l-11.1.49c-2.17.09-4.33.16-6.49.31a.91.91,0,0,1-1-.63c-1.62-3.46-3.32-6.88-4.88-10.37a3.37,3.37,0,0,0-2.45-2.08c-8.52-2.37-17-4.81-25.52-7.23-.27-.08-.52-.18-.78-.27Z"/><path class="cls-2" d="M115.56,75.66a7.64,7.64,0,0,1-5.15-2.24,6.09,6.09,0,0,1,.51-9,7.45,7.45,0,0,1,8.93-.51,5.88,5.88,0,0,1,2.72,5.83,6.31,6.31,0,0,1-4.43,5.31A20.1,20.1,0,0,1,115.56,75.66Z"/><path class="cls-2" d="M82,82.84c2.53.55,4.91,1.12,7.31,1.58a4.54,4.54,0,0,0,2.26-.15c1.61-.6,3.16-1.39,4.86-2.15.44.58,1,1.25,1.5,2s1,1.34,2.09.81a3.57,3.57,0,0,1-1,3.44,15.9,15.9,0,0,1-2.51,1.76c-.47.29-1,.44-1.49.72a3.49,3.49,0,0,0-1.88,4,1.75,1.75,0,0,1-.4-.18c-1.38-1.39-3.12-1.51-4.9-1.3A10.17,10.17,0,0,0,85.1,94a9.17,9.17,0,0,1-7.21-.4c-.7-.3-1.34-.74-2.11-1.17.66-.68,1.27-1.25,1.81-1.87,1.17-1.35,2.34-2.69,3.43-4.1C81.82,85.42,82.6,84.31,82,82.84Zm9.9,9.71a6.36,6.36,0,0,1,3.69-3.4,9.63,9.63,0,0,0,1.54-.77,3.36,3.36,0,0,0,1.55-2c-5.2.29-10.17-.71-15.11-1.9C82.36,87.6,80,89.8,77.85,92.23c.55.23,1,.45,1.44.59a7.72,7.72,0,0,0,5.28.07A10.68,10.68,0,0,1,91.87,92.55Zm1.64-7.62,0,.14,3.6.19c-.41-.55-.67-.93-1-1.27-.11-.12-.36-.23-.47-.18C95,84.16,94.24,84.55,93.51,84.93Z"/><path class="cls-2" d="M67.85,98.09a2.56,2.56,0,0,1,2.61-1.41q12.86,0,25.71-.07c2.82,0,5.64,0,8.45-.06,1.39,0,2.24.67,2.25,1.79s-.83,1.87-2.23,1.89h-.51c-.2,1.58-.4,3.12-.59,4.66q-.92,7.38-1.82,14.75-.82,6.81-1.66,13.61c-.21,1.65-.4,3.3-.62,4.95-.14,1.1-.58,1.44-1.83,1.45-3,0-5.92,0-8.89,0l-11.26.1c-1.27,0-1.62-.33-1.79-1.56q-1.11-7.83-2.24-15.64T71.19,107c-.29-2-.57-4-.88-6.07,0-.17-.25-.46-.39-.46a2.36,2.36,0,0,1-2.07-1.32ZM88.7,130.61c0,2.13,0,4.17,0,6.2,0,.15.29.41.47.43.62,0,1.25,0,1.87,0,.45,0,.65-.18.65-.64,0-.7.07-1.39.11-2.09.06-1.3.13-2.61.19-3.92Zm-5.72,0,.45,6.58H86v-6.58Zm14.71-.07h-3c-.12,2.11-.25,4.14-.34,6.18,0,.15.27.44.44.45.68.05,1.37,0,2.08,0Zm-16.93,6.68-.46-6.54h-3c.22,1.54.44,3,.64,4.43C78.26,137.47,78.25,137.47,80.76,137.25Zm7.81-16c1.26,0,2.44,0,3.61,0,.13,0,.35-.15.36-.24.09-1.3.15-2.6.22-3.87H88.57ZM99.37,117H95.45l-.22,4.23c1.14,0,2.17,0,3.2,0a.61.61,0,0,0,.47-.39C99.08,119.52,99.22,118.25,99.37,117Zm-10.91-8.31c1.53,0,2.94,0,4.36,0a.62.62,0,0,0,.44-.41c.08-.94.11-1.89.15-2.85h-5Zm3.7,19.46.24-4.37H88.68v4.37ZM73.7,105.52c.14,1,.26,2,.42,3a.46.46,0,0,0,.33.29c1.43,0,2.86,0,4.35,0l-.23-3.28Zm1.66,11.68.58,4.07h3.71c-.08-1.27-.14-2.44-.25-3.61a.62.62,0,0,0-.39-.44C77.81,117.19,76.62,117.2,75.36,117.2Zm13.18-2.68h4.37l.18-3.39H88.54Zm-9.33.33c-.08-1.22-.13-2.23-.22-3.23,0-.14-.21-.36-.33-.36-1.35,0-2.71,0-4.14,0,.15,1.17.28,2.19.44,3.2,0,.16.26.39.4.39C76.6,114.86,77.84,114.85,79.21,114.85Zm2.86,2.33c.08,1.31.15,2.55.25,3.79a.47.47,0,0,0,.28.33c1.09,0,2.19,0,3.25,0v-4.13Zm13.86-8.68h4.49l.39-3.23H96.09ZM76.31,123.85c.2,1.39.39,2.71.6,4a.41.41,0,0,0,.3.3c1,0,1.9,0,2.92,0l-.3-4.34Zm4.94-18.49c.07,1.13.12,2.11.21,3.08a.55.55,0,0,0,.4.3c1.29,0,2.58,0,3.92,0,0-1.11,0-2.07,0-3,0-.12-.21-.35-.32-.35C84.07,105.35,82.71,105.36,81.25,105.36Zm17.29,18.32H95.07l-.23,4.37c1,0,1.88,0,2.76,0a.59.59,0,0,0,.44-.33C98.23,126.39,98.38,125.06,98.54,123.68Zm-2.94-9.26c1.3,0,2.5,0,3.7,0a.59.59,0,0,0,.42-.36c.15-1,.26-2,.38-3-1.39,0-2.71,0-4,0a.49.49,0,0,0-.32.29C95.69,112.35,95.65,113.36,95.6,114.42Zm-9.67,9.38H82.51l.29,4.31h3.13Zm-4.28-12.59c.08,1.12.12,2.13.23,3.13,0,.14.3.35.47.35,1,0,2,0,3,0,.16,0,.43-.25.43-.39,0-1,0-2,0-3.06Zm6.76-8.37c1.62,0,3.17,0,4.73,0,.14,0,.4-.17.41-.28.08-.72.1-1.46.14-2.21H88.41Zm-10.18-2.43H73l.38,2.56H78.4Zm23.21-.15c-1.65,0-3.18,0-4.72,0a.56.56,0,0,0-.36.4c0,.69,0,1.38,0,2h4.79ZM85.73,103c0-.85,0-1.54,0-2.23a.55.55,0,0,0-.32-.37c-1.48,0-3,0-4.48,0,0,.77,0,1.45.13,2.11,0,.18.24.47.38.47C82.83,103,84.25,103,85.73,103Z"/><path class="cls-2" d="M42.3,143.54V60a2.25,2.25,0,0,0,.06-.36,16.9,16.9,0,0,1,.82-4.34A18.42,18.42,0,0,1,51.1,45.14a18.11,18.11,0,0,1,7.42-2.66L60,42.3H143.6c.59.07,1.19.12,1.78.21a18,18,0,0,1,9.83,4.72,18.23,18.23,0,0,1,6,13.85q0,40.65,0,81.28a20.71,20.71,0,0,1-.25,3.24,18,18,0,0,1-4.63,9.58,18.16,18.16,0,0,1-13.84,6.07H61.15a18.66,18.66,0,0,1-16.48-9.59A17.67,17.67,0,0,1,42.48,145ZM101.75,50.3H61.47a11,11,0,0,0-4.6.85,10.59,10.59,0,0,0-6.52,9.08,11.3,11.3,0,0,0-.05,1.3q0,40.26,0,80.53a11.67,11.67,0,0,0,.71,4.3,10.7,10.7,0,0,0,5.21,5.78,11.09,11.09,0,0,0,5.22,1.14h80.69a11.59,11.59,0,0,0,4.36-.77,10.6,10.6,0,0,0,5.11-4.21,11.1,11.1,0,0,0,1.68-6.15q0-40.34,0-80.69a11.44,11.44,0,0,0-1.2-5.3,10.49,10.49,0,0,0-4.69-4.67,11.61,11.61,0,0,0-5.31-1.18Z"/></svg>