<svg id="Layer_1" data-name="Layer 1" xmlns="http://www.w3.org/2000/svg" xmlns:xlink="http://www.w3.org/1999/xlink" viewBox="0 0 203.56 203.56"><defs><style>.cls-1{fill:url(#linear-gradient);}.cls-2{fill:#fff;}</style><linearGradient id="linear-gradient" x1="5.84" y1="192.96" x2="195.48" y2="12.72" gradientUnits="userSpaceOnUse"><stop offset="0.01" stop-color="#b71c1c"/><stop offset="1" stop-color="#e53935"/></linearGradient></defs><title>qutu icon</title><rect class="cls-1" width="203.56" height="203.56"/><rect class="cls-2" x="89.43" y="119.88" width="18.94" height="18.94"/><polygon class="cls-2" points="110.45 105.39 110.45 89.24 107.86 89.24 107.86 103.97 110.45 105.39"/><polygon class="cls-2" points="96.18 100.57 105.87 88.45 103.84 86.83 90.29 103.79 96.18 100.57"/><polygon class="cls-2" points="98.9 100.07 71.26 115.17 73.52 119.37 98.9 105.65 124.29 119.37 126.54 115.17 98.9 100.07"/><circle class="cls-2" cx="109.05" cy="82.45" r="5.29"/><rect class="cls-2" x="107.86" y="64.74" width="2.59" height="10.92"/><rect class="cls-2" x="92.91" y="67.23" width="2.59" height="18.76" transform="translate(-11.33 136.67) rotate(-68.76)"/><rect class="cls-2" x="122.42" y="79.38" width="2.59" height="17.4" transform="translate(-3.19 171.49) rotate(-68.76)"/><rect class="cls-2" x="115.45" y="67.31" width="2.59" height="10.92" transform="translate(70.98 -56.96) rotate(38.63)"/><rect class="cls-2" x="101.12" y="66.96" width="2.59" height="10.92" transform="translate(-23 70.54) rotate(-34.41)"/><rect class="cls-2" x="120.5" y="85.45" width="2.59" height="30.54" transform="translate(-35.6 86.44) rotate(-34.41)"/><rect class="cls-2" x="122.14" y="69.99" width="2.59" height="16.13" transform="matrix(0.29, 0.96, -0.96, 0.29, 162.38, -62.7)"/><rect class="cls-2" x="88.65" y="74.84" width="2.59" height="26.69" transform="translate(148.29 -23.44) rotate(73.16)"/><path class="cls-2" d="M42.3,143.54V60a2.25,2.25,0,0,0,.06-.36,16.9,16.9,0,0,1,.82-4.34A18.42,18.42,0,0,1,51.1,45.14a18.11,18.11,0,0,1,7.42-2.66L60,42.3H143.6c.59.07,1.19.12,1.78.21a18,18,0,0,1,9.83,4.72,18.23,18.23,0,0,1,6,13.85q0,40.65,0,81.28a20.71,20.71,0,0,1-.25,3.24,18,18,0,0,1-4.63,9.58,18.16,18.16,0,0,1-13.84,6.07H61.15a18.66,18.66,0,0,1-16.48-9.59A17.67,17.67,0,0,1,42.48,145ZM101.75,50.3H61.47a11,11,0,0,0-4.6.85,10.59,10.59,0,0,0-6.52,9.08,11.3,11.3,0,0,0-.05,1.3q0,40.26,0,80.53a11.67,11.67,0,0,0,.71,4.3,10.7,10.7,0,0,0,5.21,5.78,11.09,11.09,0,0,0,5.22,1.14h80.69a11.59,11.59,0,0,0,4.36-.77,10.6,10.6,0,0,0,5.11-4.21,11.1,11.1,0,0,0,1.68-6.15q0-40.34,0-80.69a11.44,11.44,0,0,0-1.2-5.3,10.49,10.49,0,0,0-4.69-4.67,11.61,11.61,0,0,0-5.31-1.18Z"/></svg>