<svg id="Layer_1" data-name="Layer 1" xmlns="http://www.w3.org/2000/svg" xmlns:xlink="http://www.w3.org/1999/xlink" viewBox="0 0 203.56 203.56"><defs><style>.cls-1{fill:url(#linear-gradient);}.cls-2{fill:#fff;}</style><linearGradient id="linear-gradient" x1="5.84" y1="192.96" x2="195.48" y2="12.72" gradientUnits="userSpaceOnUse"><stop offset="0.01" stop-color="#b71c1c"/><stop offset="1" stop-color="#e53935"/></linearGradient></defs><title>qutu icon</title><rect class="cls-1" width="203.56" height="203.56"/><path class="cls-2" d="M42.3,143.54V60a2.25,2.25,0,0,0,.06-.36,16.9,16.9,0,0,1,.82-4.34A18.42,18.42,0,0,1,51.1,45.14a18.11,18.11,0,0,1,7.42-2.66L60,42.3H143.6c.59.07,1.19.12,1.78.21a18,18,0,0,1,9.83,4.72,18.23,18.23,0,0,1,6,13.85q0,40.65,0,81.28a20.71,20.71,0,0,1-.25,3.24,18,18,0,0,1-4.63,9.58,18.16,18.16,0,0,1-13.84,6.07H61.15a18.66,18.66,0,0,1-16.48-9.59A17.67,17.67,0,0,1,42.48,145ZM101.75,50.3H61.47a11,11,0,0,0-4.6.85,10.59,10.59,0,0,0-6.52,9.08,11.3,11.3,0,0,0-.05,1.3q0,40.26,0,80.53a11.67,11.67,0,0,0,.71,4.3,10.7,10.7,0,0,0,5.21,5.78,11.09,11.09,0,0,0,5.22,1.14h80.69a11.59,11.59,0,0,0,4.36-.77,10.6,10.6,0,0,0,5.11-4.21,11.1,11.1,0,0,0,1.68-6.15q0-40.34,0-80.69a11.44,11.44,0,0,0-1.2-5.3,10.49,10.49,0,0,0-4.69-4.67,11.61,11.61,0,0,0-5.31-1.18Z"/><path class="cls-2" d="M104.09,130.17a7.27,7.27,0,0,1-.16-1.61v-19.3a6.56,6.56,0,0,1,4.24-6.13c5.71-2.15,8-6.35,7.89-11.92l-1.8-27.73h-.9l-6.07,7.63,5.23,5.34L91,93l14.82-15.84-5.58-5.22,10.22-8.41H89.3L87.5,91.21c-.07,5.57,2.17,9.77,7.89,11.92a6.55,6.55,0,0,1,4.23,6.13v19.3a7.91,7.91,0,0,1-.15,1.61c-1.09,5.14-6.84,6.47-13.47,7.08v2.82h31.56v-2.82C110.93,136.64,105.17,135.31,104.09,130.17Z"/></svg>